# Blender 4.4.3
# www.blender.org
mtllib tower.mtl
o Cube
v -8.000000 0.000000 8.000000
v -8.000000 65.000008 8.000000
v -8.000000 0.000000 -8.000000
v -8.000000 65.000008 -8.000000
v 8.000000 0.000000 8.000000
v 8.000000 65.000008 8.000000
v 8.000000 0.000000 -8.000000
v 8.000000 65.000008 -8.000000
vn -1.0000 -0.0000 -0.0000
vn -0.0000 -0.0000 -1.0000
vn 1.0000 -0.0000 -0.0000
vn -0.0000 -0.0000 1.0000
vt 0.385500 0.999023
vt 0.604734 -0.000977
vt 0.385500 -0.000977
vt 0.604734 0.999023
s 0
usemtl Material.002
f 2/1/1 3/2/1 1/3/1
f 4/1/2 7/2/2 3/3/2
f 8/4/3 5/3/3 7/2/3
f 6/4/4 1/3/4 5/2/4
f 2/1/1 4/4/1 3/2/1
f 4/1/2 8/4/2 7/2/2
f 8/4/3 6/1/3 5/3/3
f 6/4/4 2/1/4 1/3/4
