mtllib unnamed.mtl
# vertices
v -20 18 20
v -28 18 -0
v -28 10 -0
v -20 10 20
v -20 10 -20
v -20 18 -20
v -18 27 -18
v -25 27 -0
v -25 1 -0
v -18 2 18
v -18 26 18
v -18 2 -18
v -14 -5 13
v -14 33 13
v -14 -5 -13
v -14 33 -13
v -19 -5 -0
v -19 33 -0
v -11 37 -0
v -8 37 7
v -8 37 -7
v -2 18 28
v -2 10 28
v -2 10 -28
v -2 18 -28
v -2 26 25
v -2 2 -25
v -1 1 25
v -2 26 -25
v -2 -11 -0
v -2 33 18
v -2 -5 -18
v -2 -5 18
v -2 33 -18
v -2 39 -0
v -2 37 10
v -2 37 -10
v 5 37 7
v 5 37 -7
v 11 -5 13
v 11 -5 -13
v 11 33 13
v 11 33 -13
v 8 37 -0
v 15 1 -18
v 15 1 18
v 15 26 18
v 15 26 -18
v 16 -5 -0
v 17 18 20
v 17 18 -20
v 17 10 -20
v 17 10 20
v 16 33 -0
v 22 27 -0
v 22 2 -0
v 25 10 -0
v 25 18 -0

# texture coordinates
vt -15.625 14.09
vt 0 14.09
vt 0 7.84
vt -15.625 7.84
vt 15.625 7.84
vt 15.625 14.09
vt 14.0625 21.12125
vt 0 21.12125
vt 0 0.80875003
vt 0 0.80875
vt -14.0625 1.59
vt -14.0625 20.34
vt 14.0625 1.59
vt -14.0625 1.58901
vt 0 0.80776
vt -10.15625 -3.87974
vt -10.15625 25.82492
vt 0 21.13742
vt -14.0625 20.35617
vt 10.15625 -3.879739
vt 0 0.80776095
vt 14.0625 1.589011
vt 14.0625 21.137428
vt 0 21.137428
vt 10.15625 25.824928
vt -10.9015 -10.131051
vt -19.495249 0.025198877
vt -14.80775 0.025198877
vt -14.807758 0.11432919
vt -19.495258 0.11432919
vt -10.901508 -10.041921
vt -14.789331 0.010671033
vt -19.476831 0.010671033
vt -10.883081 10.166921
vt -10.883068 10.256051
vt -19.476818 0.09980093
vt -14.789318 0.09980093
vt -8.601741 -0
vt -14.851741 -0
vt -10.945491 -10.15625
vt -10.945491 10.15625
vt -6.257991 -5.46875
vt -6.257991 5.46875
vt -1.5704908 14.09
vt -15.632991 14.09
vt -15.632991 7.84
vt -1.5704908 7.84
vt -14.070491 21.12125
vt -14.070491 1.59
vt -14.070491 20.34
vt -1.5704908 20.34
vt -1.5704908 1.59
vt -0.78924084 0.80875
vt -1.5704908 -0
vt -0.78924084 0.8075723
vt -14.070491 1.5888224
vt -10.945491 -3.8799276
vt -10.945491 25.82799
vt -14.070491 20.35924
vt -1.5704908 20.35924
vt -1.5704908 1.5888224
vt -1.5704908 -13.927507
vt -10.945491 -10.021257
vt -1.5704908 -19.396257
vt -1.5704908 14.052507
vt -10.945491 10.146257
vt -1.5704908 19.521257
vt -0.78924084 -19.474766
vt -10.945491 -10.099767
vt -1.5704908 -14.006017
vt -1.5704908 14.138654
vt -14.070491 14.138654
vt -10.945491 10.232404
vt -1.5704908 19.594704
vt -14.070491 14.125955
vt -1.5704908 14.125955
vt -1.5704908 -7.8125
vt -1.5704908 7.8125
vt -1.5704908 -14.0625
vt -1.5704908 14.0625
vt 3.8982592 -5.46875
vt 3.8982592 5.46875
vt 8.585759 -10.15625
vt 8.585759 10.15625
vt 6.242009 -0
vt -0.78924084 -19.475315
vt -1.5704908 -14.006565
vt 8.585759 -10.100315
vt 11.710759 14.051139
vt -1.5704908 14.051139
vt -1.5704908 19.51989
vt 8.585759 10.146843
vt -1.5704908 14.053093
vt 11.710759 14.053093
vt 8.585759 -10.023105
vt -1.5704908 -13.929355
vt -1.5704908 -19.398106
vt -1.5704907 19.59189
vt -1.5704907 14.123141
vt 8.585759 10.216891
vt 11.710759 -14.014766
vt -0.78924084 -19.483515
vt 8.585759 -10.108516
vt 8.585759 25.827991
vt -1.5704908 20.359241
vt 11.710759 20.359241
vt -1.5704907 20.359241
vt 12.492009 -0
vt 11.710759 0.80875
vt 11.710759 20.34
vt 13.273259 14.09
vt 13.273259 7.84
vt 17.140549 0.114332676
vt 12.453048 0.114332676
vt 8.546798 -10.041918
vt 8.565217 10.256072
vt 12.471467 0.09982188
vt 17.158966 0.09982188
vt -14.0625 0.80776036
vt -10.15625 -3.8797395
vt 0 -3.8797395
vt 0 -3.8797398
vt 10.15625 -3.8797398
vt 14.0625 0.80776036
vt -10.15625 25.824928
vt -14.0625 20.356178
vt 14.0625 20.356178
vt 0 1.5890104
vt 14.0625 20.34
vt -14.0625 0.80875
vt 0 1.59
vt 14.0625 0.80875

# normals
vn -0.9284766908852594 0 0.3713906763541037
vn -0.9284766908852594 0 -0.3713906763541037
vn -0.8920077351722195 0.27751351760913495 -0.3568030940688878
vn -0.8900427175814677 0.29668090586048923 -0.3461277235039041
vn -0.8869685939836239 -0.2956561979945413 0.35478743759344955
vn -0.8869685939836239 0.2956561979945413 0.35478743759344955
vn -0.8869685939836239 -0.2956561979945413 -0.35478743759344955
vn -0.8801728039116287 -0.30992000137733405 0.3595072015977075
vn -0.8801728039116287 0.30992000137733405 0.3595072015977075
vn -0.8801728039116287 -0.30992000137733405 -0.3595072015977075
vn -0.7117770204702044 -0.6294226544653874 0.3117700998753788
vn -0.7117770204702044 0.6294226544653874 0.3117700998753788
vn -0.7117770204702044 -0.6294226544653874 -0.3117700998753788
vn -0.6847385083211746 0.6783983369478304 -0.2662871976804568
vn -0.6823230454059214 -0.6823230454059214 0.262431940540739
vn -0.6823230454059214 0.6823230454059214 0.262431940540739
vn -0.6823230454059214 -0.6823230454059214 -0.262431940540739
vn -0.6823230454059214 0.6823230454059214 -0.262431940540739
vn -0.44074127735352675 0.8814825547070535 0.16951587590520262
vn -0.44074127735352675 0.8814825547070535 -0.16951587590520262
vn -0.4161068087944348 0.891657447416646 0.1783314894833292
vn -0.4161068087944348 0.891657447416646 -0.1783314894833292
vn -0.40613846605344767 0 0.9138115486202573
vn -0.40613846605344767 0 -0.9138115486202573
vn -0.3897190434773998 0.2814637536225665 -0.8768678478241495
vn -0.3856821571215161 -0.3133667526612319 0.8677848535234113
vn -0.3856821571215161 0.3133667526612319 0.8677848535234113
vn -0.3856821571215161 -0.3133667526612319 -0.8677848535234113
vn -0.37907125275171766 0.3249182166443294 0.8664485777182117
vn -0.37907125275171766 -0.3249182166443294 -0.8664485777182117
vn -0.37592346714908204 -0.33035698628252663 0.8657631364645526
vn -0.3614822204889705 0.3273801242164261 -0.8730136645771363
vn -0.33012638543857825 -0.9353580920759716 0.12697168670714548
vn -0.33012638543857825 -0.9353580920759716 -0.12697168670714548
vn -0.31759211684286703 -0.6645909111711847 0.676353582165365
vn -0.30038746321738496 0.6620784903566852 0.6865999159254513
vn -0.30038746321738496 -0.6620784903566852 -0.6865999159254513
vn -0.28261670947211076 0.6782801027330658 0.6782801027330658
vn -0.28261670947211076 -0.6782801027330658 -0.6782801027330658
vn -0.27022640946662696 -0.7115962115954511 0.6485433827199047
vn -0.2685000523575153 0.7160001396200408 -0.6444001256580367
vn -0.25630729731502827 0.6834861261734088 -0.6834861261734088
vn -0.2159989773133856 0.9719953979102353 0.09257099027716525
vn -0.2159989773133856 0.9719953979102353 -0.09257099027716525
vn -0.19900743804199783 0.8955334711889903 0.39801487608399566
vn -0.19900743804199783 0.8955334711889903 -0.39801487608399566
vn -0.18318582636182792 0.879291966536774 0.439645983268387
vn -0.18318582636182792 0.879291966536774 -0.439645983268387
vn -0.13063248606829106 -0.9405538996916956 0.3135179665638985
vn -0.13063248606829106 -0.9405538996916956 -0.3135179665638985
vn -0.09759000729485331 0.9759000729485332 0.19518001458970663
vn -0.09759000729485331 0.9759000729485332 -0.19518001458970663
vn 0.08375445684445354 0.9771353298519581 0.1954270659703916
vn 0.08375445684445354 0.9771353298519581 -0.1954270659703916
vn 0.1207363221040738 -0.9417433124117756 0.3139144374705919
vn 0.1207363221040738 -0.9417433124117756 -0.3139144374705919
vn 0.16951587590520262 0.8814825547070535 0.44074127735352675
vn 0.16951587590520262 0.8814825547070535 -0.44074127735352675
vn 0.1783314894833292 0.891657447416646 0.4161068087944348
vn 0.1783314894833292 0.891657447416646 -0.4161068087944348
vn 0.1954270659703916 0.9771353298519581 0.08375445684445354
vn 0.1954270659703916 0.9771353298519581 -0.08375445684445354
vn 0.23570226039551584 -0.7542472332656507 0.6128258770283411
vn 0.2421402936813785 -0.6860641654305725 -0.6860641654305725
vn 0.2516746640668925 -0.7130782148561955 -0.6543541265739206
vn 0.262431940540739 0.6823230454059213 0.6823230454059213
vn 0.262431940540739 0.6823230454059213 -0.6823230454059213
vn 0.279108277990115 -0.71770700054601 0.63796177826312
vn 0.28610974157038443 0.6598040979072131 0.6948379438137907
vn 0.28610974157038443 0.6598040979072131 -0.6948379438137907
vn 0.3139144374705919 -0.9417433124117756 0.1207363221040738
vn 0.3139144374705919 -0.9417433124117756 -0.1207363221040738
vn 0.3427854757317266 -0.32985017476071804 -0.8796004660285814
vn 0.3597364427707249 0.3276171175233388 0.8736456467289033
vn 0.3597364427707249 0.3276171175233388 -0.8736456467289033
vn 0.368791862582081 0.31116813405363086 0.8758806736324424
vn 0.368791862582081 0.31116813405363086 -0.8758806736324424
vn 0.3725971462660978 -0.27944785969957336 -0.8849182223819824
vn 0.37519342754879914 -0.2553399715262661 0.891084390428398
vn 0.384683063855772 -0.28087969741850016 0.8792755745274788
vn 0.38805700005813276 0 0.9216353751380653
vn 0.38805700005813276 -0 -0.9216353751380653
vn 0.4161068087944348 0.891657447416646 0.1783314894833292
vn 0.4161068087944348 0.891657447416646 -0.1783314894833292
vn 0.44074127735352675 0.8814825547070535 0.16951587590520262
vn 0.44074127735352675 0.8814825547070535 -0.16951587590520262
vn 0.6823230454059214 0.6823230454059214 0.262431940540739
vn 0.6823230454059214 0.6823230454059214 -0.262431940540739
vn 0.6864059305728604 -0.677605854539875 0.2640022809895617
vn 0.6864059305728604 -0.677605854539875 -0.2640022809895617
vn 0.7117770204702044 0.6294226544653874 0.3117700998753788
vn 0.7117770204702044 0.6294226544653874 -0.3117700998753788
vn 0.7349844327862483 -0.6299866566739271 0.2508280207127673
vn 0.7349844327862483 -0.6299866566739271 -0.2508280207127673
vn 0.8801728039116287 0.30992000137733405 0.3595072015977075
vn 0.8801728039116287 0.30992000137733405 -0.3595072015977075
vn 0.8852366086069551 -0.33196372822760817 0.32581625177894874
vn 0.8852366086069551 -0.33196372822760817 -0.32581625177894874
vn 0.8869685939836239 0.2956561979945413 0.35478743759344955
vn 0.8869685939836239 0.2956561979945413 -0.35478743759344955
vn 0.8920077351722195 -0.27751351760913495 0.3568030940688878
vn 0.8920077351722195 -0.27751351760913495 -0.3568030940688878
vn 0.9284766908852594 0 0.3713906763541037
vn 0.9284766908852594 -0 -0.3713906763541037

o entity0_brush0
usemtl BW_Marble_Tile_05-128x128
f  1/1/1  2/2/1  3/3/1  4/4/1
usemtl BW_Marble_Tile_05-128x128
f  5/5/2  3/3/2  2/2/2  6/6/2
usemtl BW_Marble_Tile_05-128x128
f  6/6/3  2/2/3  7/7/3
usemtl BW_Marble_Tile_05-128x128
f  7/7/4  2/2/4  8/8/4
usemtl BW_Marble_Tile_05-128x128
f  4/4/5  3/3/5  9/9/5
usemtl BW_Marble_Tile_05-128x128
f  8/8/6  2/2/6  1/1/6
usemtl BW_Marble_Tile_05-128x128
f  9/10/7  3/3/7  5/5/7
usemtl BW_Marble_Tile_05-128x128
f  4/4/8  9/9/8  10/11/8
usemtl BW_Marble_Tile_05-128x128
f  11/12/9  8/8/9  1/1/9
usemtl BW_Marble_Tile_05-128x128
f  12/13/10  9/10/10  5/5/10
usemtl BW_Marble_Tile_05-128x128
f  10/14/11  9/15/11  13/16/11
usemtl BW_Marble_Tile_05-128x128
f  14/17/12  8/18/12  11/19/12
usemtl BW_Marble_Tile_05-128x128
f  15/20/13  9/21/13  12/22/13
usemtl BW_Marble_Tile_05-128x128
f  7/23/14  8/24/14  16/25/14
usemtl BW_Marble_Tile_05-128x128
f  13/26/15  9/27/15  17/28/15
usemtl BW_Marble_Tile_05-128x128
f  18/29/16  8/30/16  14/31/16
usemtl BW_Marble_Tile_05-128x128
f  17/32/17  9/33/17  15/34/17
usemtl BW_Marble_Tile_05-128x128
f  16/35/18  8/36/18  18/37/18
usemtl BW_Marble_Tile_05-128x128
f  19/38/19  18/39/19  14/40/19
usemtl BW_Marble_Tile_05-128x128
f  16/41/20  18/39/20  19/38/20
usemtl BW_Marble_Tile_05-128x128
f  20/42/21  19/38/21  14/40/21
usemtl BW_Marble_Tile_05-128x128
f  16/41/22  19/38/22  21/43/22
usemtl BW_Marble_Tile_05-128x128
f  22/44/23  1/45/23  4/46/23  23/47/23
usemtl BW_Marble_Tile_05-128x128
f  24/47/24  5/46/24  6/45/24  25/44/24
usemtl BW_Marble_Tile_05-128x128
f  25/44/25  6/45/25  7/48/25
usemtl BW_Marble_Tile_05-128x128
f  23/47/26  4/46/26  10/49/26
usemtl BW_Marble_Tile_05-128x128
f  11/50/27  1/45/27  22/44/27
usemtl BW_Marble_Tile_05-128x128
f  12/49/28  5/46/28  24/47/28
usemtl BW_Marble_Tile_05-128x128
f  26/51/29  11/50/29  22/44/29
usemtl BW_Marble_Tile_05-128x128
f  27/52/30  12/49/30  24/47/30
usemtl BW_Marble_Tile_05-128x128
f  23/47/31  10/49/31  28/53/31
usemtl BW_Marble_Tile_05-128x128
f  25/44/32  7/48/32  29/51/32
usemtl BW_Marble_Tile_05-128x128
f  13/40/33  17/39/33  30/54/33
usemtl BW_Marble_Tile_05-128x128
f  30/54/34  17/39/34  15/41/34
usemtl BW_Marble_Tile_05-128x128
f  28/55/35  10/56/35  13/57/35
usemtl BW_Marble_Tile_05-128x128
f  14/58/36  11/59/36  26/60/36
usemtl BW_Marble_Tile_05-128x128
f  15/57/37  12/56/37  27/61/37
usemtl BW_Marble_Tile_05-128x128
f  31/62/38  14/63/38  26/64/38
usemtl BW_Marble_Tile_05-128x128
f  32/65/39  15/66/39  27/67/39
usemtl BW_Marble_Tile_05-128x128
f  28/68/40  13/69/40  33/70/40
usemtl BW_Marble_Tile_05-128x128
f  34/71/41  7/72/41  16/73/41
usemtl BW_Marble_Tile_05-128x128
f  29/74/42  7/75/42  34/76/42
usemtl BW_Marble_Tile_05-128x128
f  35/54/43  19/38/43  20/42/43
usemtl BW_Marble_Tile_05-128x128
f  21/43/44  19/38/44  35/54/44
usemtl BW_Marble_Tile_05-128x128
f  20/42/45  14/40/45  36/77/45
usemtl BW_Marble_Tile_05-128x128
f  37/78/46  16/41/46  21/43/46
usemtl BW_Marble_Tile_05-128x128
f  36/77/47  14/40/47  31/79/47
usemtl BW_Marble_Tile_05-128x128
f  34/80/48  16/41/48  37/78/48
usemtl BW_Marble_Tile_05-128x128
f  33/79/49  13/40/49  30/54/49
usemtl BW_Marble_Tile_05-128x128
f  30/54/50  15/41/50  32/80/50
usemtl BW_Marble_Tile_05-128x128
f  35/54/51  20/42/51  36/77/51
usemtl BW_Marble_Tile_05-128x128
f  37/78/52  21/43/52  35/54/52
usemtl BW_Marble_Tile_05-128x128
f  35/54/53  36/77/53  38/81/53
usemtl BW_Marble_Tile_05-128x128
f  39/82/54  37/78/54  35/54/54
usemtl BW_Marble_Tile_05-128x128
f  40/83/55  33/79/55  30/54/55
usemtl BW_Marble_Tile_05-128x128
f  30/54/56  32/80/56  41/84/56
usemtl BW_Marble_Tile_05-128x128
f  42/83/57  36/77/57  31/79/57
usemtl BW_Marble_Tile_05-128x128
f  34/80/58  37/78/58  43/84/58
usemtl BW_Marble_Tile_05-128x128
f  38/81/59  36/77/59  42/83/59
usemtl BW_Marble_Tile_05-128x128
f  43/84/60  37/78/60  39/82/60
usemtl BW_Marble_Tile_05-128x128
f  44/85/61  35/54/61  38/81/61
usemtl BW_Marble_Tile_05-128x128
f  39/82/62  35/54/62  44/85/62
usemtl BW_Marble_Tile_05-128x128
f  28/86/63  33/87/63  40/88/63
usemtl BW_Marble_Tile_05-128x128
f  45/89/64  32/90/64  27/91/64
usemtl BW_Marble_Tile_05-128x128
f  41/92/65  32/93/65  45/94/65
usemtl BW_Marble_Tile_05-128x128
f  42/95/66  31/96/66  26/97/66
usemtl BW_Marble_Tile_05-128x128
f  29/98/67  34/99/67  43/100/67
usemtl BW_Marble_Tile_05-128x128
f  46/101/68  28/102/68  40/103/68
usemtl BW_Marble_Tile_05-128x128
f  42/104/69  26/105/69  47/106/69
usemtl BW_Marble_Tile_05-128x128
f  48/106/70  29/107/70  43/104/70
usemtl BW_Marble_Tile_05-128x128
f  40/83/71  30/54/71  49/108/71
usemtl BW_Marble_Tile_05-128x128
f  49/108/72  30/54/72  41/84/72
usemtl BW_Marble_Tile_05-128x128
f  45/109/73  27/52/73  24/47/73
usemtl BW_Marble_Tile_05-128x128
f  47/110/74  26/51/74  22/44/74
usemtl BW_Marble_Tile_05-128x128
f  25/44/75  29/51/75  48/110/75
usemtl BW_Marble_Tile_05-128x128
f  47/110/76  22/44/76  50/111/76
usemtl BW_Marble_Tile_05-128x128
f  51/111/77  25/44/77  48/110/77
usemtl BW_Marble_Tile_05-128x128
f  45/109/78  24/47/78  52/112/78
usemtl BW_Marble_Tile_05-128x128
f  23/47/79  28/53/79  53/112/79
usemtl BW_Marble_Tile_05-128x128
f  53/112/80  28/53/80  46/109/80
usemtl BW_Marble_Tile_05-128x128
f  50/111/81  22/44/81  23/47/81  53/112/81
usemtl BW_Marble_Tile_05-128x128
f  52/112/82  24/47/82  25/44/82  51/111/82
usemtl BW_Marble_Tile_05-128x128
f  44/85/83  38/81/83  42/83/83
usemtl BW_Marble_Tile_05-128x128
f  43/84/84  39/82/84  44/85/84
usemtl BW_Marble_Tile_05-128x128
f  54/108/85  44/85/85  42/83/85
usemtl BW_Marble_Tile_05-128x128
f  43/84/86  44/85/86  54/108/86
usemtl BW_Marble_Tile_05-128x128
f  55/113/87  54/114/87  42/115/87
usemtl BW_Marble_Tile_05-128x128
f  43/116/88  54/117/88  55/118/88
usemtl BW_Marble_Tile_05-128x128
f  46/119/89  40/120/89  49/121/89
usemtl BW_Marble_Tile_05-128x128
f  49/122/90  41/123/90  45/124/90
usemtl BW_Marble_Tile_05-128x128
f  55/24/91  42/125/91  47/126/91
usemtl BW_Marble_Tile_05-128x128
f  48/127/92  43/25/92  55/24/92
usemtl BW_Marble_Tile_05-128x128
f  46/119/93  49/121/93  56/128/93
usemtl BW_Marble_Tile_05-128x128
f  56/128/94  49/122/94  45/124/94
usemtl BW_Marble_Tile_05-128x128
f  55/8/95  47/12/95  50/1/95
usemtl BW_Marble_Tile_05-128x128
f  51/6/96  48/129/96  55/8/96
usemtl BW_Marble_Tile_05-128x128
f  46/130/97  56/131/97  57/3/97
usemtl BW_Marble_Tile_05-128x128
f  57/3/98  56/131/98  45/132/98
usemtl BW_Marble_Tile_05-128x128
f  58/2/99  55/8/99  50/1/99
usemtl BW_Marble_Tile_05-128x128
f  51/6/100  55/8/100  58/2/100
usemtl BW_Marble_Tile_05-128x128
f  53/4/101  46/130/101  57/3/101
usemtl BW_Marble_Tile_05-128x128
f  57/3/102  45/132/102  52/5/102
usemtl BW_Marble_Tile_05-128x128
f  58/2/103  50/1/103  53/4/103  57/3/103
usemtl BW_Marble_Tile_05-128x128
f  57/3/104  52/5/104  51/6/104  58/2/104

