# Made in Blockbench 4.9.4
mtllib vase.mtl

o vase
v 1 0 2
v 2 6 4
v 2 0 1.4141003182998758e-16
v 4 6 2.8282006365997516e-16
v 1 0 -2
v 2 6 -4
v -1 0 -1.9999999999999998
v -2 6 -3.9999999999999996
v -2 0 -4.242300954899627e-16
v -4 6 -8.484601909799254e-16
v -1 0 1.9999999999999993
v -2 6 3.9999999999999987
v 2 9 4
v 4 9 2.8282006365997516e-16
v 2 9 -4
v -2 9 -3.9999999999999996
v -4 9 -8.484601909799254e-16
v -2 9 3.9999999999999987
v 1 11 2
v 2 11 1.4141003182998758e-16
v 1 11 -2
v -1 11 -1.9999999999999998
v -2 11 -4.440892098500626e-16
v -1 11 1.9999999999999993
v 1 12 2
v 2 12 1.4141003182998758e-16
v 0 12 0
v 1 12 -2
v -1 12 -1.9999999999999998
v -2 12 -4.440892098500626e-16
v -1 12 1.9999999999999993
vt 0.06249999999999997 0.821875
vt 0.18750000000000006 0.8218750000000001
vt 0.12500000000000006 0.946875
vt 0.06249999999999997 0.821875
vt 0.18750000000000006 0.8218750000000001
vt 0.12500000000000006 0.946875
vt 0.06249999999999997 0.821875
vt 0.18750000000000006 0.8218750000000001
vt 0.12500000000000006 0.946875
vt 0.06249999999999997 0.821875
vt 0.18750000000000006 0.8218750000000001
vt 0.12500000000000006 0.946875
vt 0.06249999999999997 0.821875
vt 0.18750000000000006 0.8218750000000001
vt 0.12500000000000006 0.946875
vt 0.06249999999999997 0.821875
vt 0.18750000000000006 0.8218750000000001
vt 0.12500000000000006 0.946875
vt 0 0.39528125000000003
vt 0.06249999999999997 0
vt 0.18750000000000006 0
vt 0 0.39528125000000003
vt 0.18750000000000006 0
vt 0.25000000000000017 0.39528125000000003
vt 0 0.39528125000000003
vt 0.06249999999999997 0
vt 0.18750000000000006 0
vt 0 0.39528125000000003
vt 0.18750000000000006 0
vt 0.25000000000000017 0.39528125000000003
vt 0 0.39528125000000003
vt 0.06249999999999997 0
vt 0.18750000000000006 0
vt 0 0.39528125000000003
vt 0.18750000000000006 0
vt 0.25000000000000017 0.39528125000000003
vt 0 0.39528125000000003
vt 0.06249999999999997 0
vt 0.18750000000000006 0
vt 0 0.39528125000000003
vt 0.18750000000000006 0
vt 0.25000000000000017 0.39528125000000003
vt 0 0.39528125000000003
vt 0.06249999999999997 0
vt 0.18750000000000006 0
vt 0 0.39528125000000003
vt 0.18750000000000006 0
vt 0.25000000000000017 0.39528125000000003
vt 0 0.39528125000000003
vt 0.06249999999999997 0
vt 0.18750000000000006 0
vt 0 0.39528125000000003
vt 0.18750000000000006 0
vt 0.25000000000000017 0.39528125000000003
vt 0.25000000000000017 0.39511718750000013
vt 0.25000000000000017 0.5826171874999999
vt 0 0.5826171874999999
vt 0.25000000000000017 0.39511718750000013
vt 0 0.5826171874999999
vt 0 0.39511718750000013
vt 0.25000000000000017 0.39511718750000013
vt 0.25000000000000017 0.5826171874999999
vt 0 0.5826171874999999
vt 0.25000000000000017 0.39511718750000013
vt 0 0.5826171874999999
vt 0 0.39511718750000013
vt 0.25000000000000017 0.39511718750000013
vt 0.25000000000000017 0.5826171874999999
vt 0 0.5826171874999999
vt 0.25000000000000017 0.39511718750000013
vt 0 0.5826171874999999
vt 0 0.39511718750000013
vt 0.25000000000000017 0.39511718750000013
vt 0.25000000000000017 0.5826171874999999
vt 0 0.5826171874999999
vt 0.25000000000000017 0.39511718750000013
vt 0 0.5826171874999999
vt 0 0.39511718750000013
vt 0.25000000000000017 0.39511718750000013
vt 0.25000000000000017 0.5826171874999999
vt 0 0.5826171874999999
vt 0.25000000000000017 0.39511718750000013
vt 0 0.5826171874999999
vt 0 0.39511718750000013
vt 0.25000000000000017 0.39511718750000013
vt 0.25000000000000017 0.5826171874999999
vt 0 0.5826171874999999
vt 0.25000000000000017 0.39511718750000013
vt 0 0.5826171874999999
vt 0 0.39511718750000013
vt 0.25000000000000017 0.5826171875000001
vt 0.18750000000000006 0.7593984374999999
vt 0.06249999999999997 0.7593984374999999
vt 0.25000000000000017 0.5826171875000001
vt 0.06249999999999997 0.7593984374999999
vt 0 0.5826171875000001
vt 0.25000000000000017 0.5826171875000001
vt 0.18750000000000006 0.7593984374999999
vt 0.06249999999999997 0.7593984374999999
vt 0.25000000000000017 0.5826171875000001
vt 0.06249999999999997 0.7593984374999999
vt 0 0.5826171875000001
vt 0.25000000000000017 0.5826171875000001
vt 0.18750000000000006 0.7593984374999999
vt 0.06249999999999997 0.7593984374999999
vt 0.25000000000000017 0.5826171875000001
vt 0.06249999999999997 0.7593984374999999
vt 0 0.5826171875000001
vt 0.25000000000000017 0.5826171875000001
vt 0.18750000000000006 0.7593984374999999
vt 0.06249999999999997 0.7593984374999999
vt 0.25000000000000017 0.5826171875000001
vt 0.06249999999999997 0.7593984374999999
vt 0 0.5826171875000001
vt 0.25000000000000017 0.5826171875000001
vt 0.18750000000000006 0.7593984374999999
vt 0.06249999999999997 0.7593984374999999
vt 0.25000000000000017 0.5826171875000001
vt 0.06249999999999997 0.7593984374999999
vt 0 0.5826171875000001
vt 0.25000000000000017 0.5826171875000001
vt 0.18750000000000006 0.7593984374999999
vt 0.06249999999999997 0.7593984374999999
vt 0.25000000000000017 0.5826171875000001
vt 0.06249999999999997 0.7593984374999999
vt 0 0.5826171875000001
vt 0.18750000000000006 0.7593749999999999
vt 0.18750000000000006 0.8218749999999999
vt 0.06249999999999997 0.8218749999999999
vt 0.18750000000000006 0.7593749999999999
vt 0.06249999999999997 0.8218749999999999
vt 0.06249999999999997 0.7593749999999999
vt 0.18750000000000006 0.7593749999999999
vt 0.18750000000000006 0.8218749999999999
vt 0.06249999999999997 0.8218749999999999
vt 0.18750000000000006 0.7593749999999999
vt 0.06249999999999997 0.8218749999999999
vt 0.06249999999999997 0.7593749999999999
vt 0.18750000000000006 0.7593749999999999
vt 0.18750000000000006 0.8218749999999999
vt 0.06249999999999997 0.8218749999999999
vt 0.18750000000000006 0.7593749999999999
vt 0.06249999999999997 0.8218749999999999
vt 0.06249999999999997 0.7593749999999999
vt 0.18750000000000006 0.7593749999999999
vt 0.18750000000000006 0.8218749999999999
vt 0.06249999999999997 0.8218749999999999
vt 0.18750000000000006 0.7593749999999999
vt 0.06249999999999997 0.8218749999999999
vt 0.06249999999999997 0.7593749999999999
vt 0.18750000000000006 0.7593749999999999
vt 0.18750000000000006 0.8218749999999999
vt 0.06249999999999997 0.8218749999999999
vt 0.18750000000000006 0.7593749999999999
vt 0.06249999999999997 0.8218749999999999
vt 0.06249999999999997 0.7593749999999999
vt 0.18750000000000006 0.7593749999999999
vt 0.18750000000000006 0.8218749999999999
vt 0.06249999999999997 0.8218749999999999
vt 0.18750000000000006 0.7593749999999999
vt 0.06249999999999997 0.8218749999999999
vt 0.06249999999999997 0.7593749999999999
vn 0 1 0
vn 0 1 0
vn 0 1 0
vn 0 1 0
vn 0 1 0
vn 0 1 0
vn 0.8571428571428573 -0.28571428571428575 0.42857142857142866
vn 0.8571428571428571 -0.28571428571428575 0.4285714285714286
vn 0.8571428571428572 -0.2857142857142857 -0.42857142857142844
vn 0.8571428571428573 -0.28571428571428575 -0.42857142857142866
vn 0 -0.316227766016838 -0.948683298050514
vn -1.0532500405730105e-16 -0.3162277660168379 -0.948683298050514
vn -0.8571428571428572 -0.28571428571428575 -0.42857142857142877
vn -0.8571428571428571 -0.2857142857142857 -0.42857142857142866
vn -0.8571428571428571 -0.28571428571428564 0.4285714285714286
vn -0.8571428571428571 -0.2857142857142857 0.4285714285714286
vn -2.8086667748613614e-16 -0.31622776601683794 0.948683298050514
vn -3.159750121719031e-16 -0.3162277660168379 0.948683298050514
vn 0.8944271909999159 0 0.447213595499958
vn 0.8944271909999159 0 0.447213595499958
vn 0.8944271909999161 0 -0.44721359549995804
vn 0.8944271909999161 0 -0.44721359549995804
vn -1.1102230246251565e-16 0 -1
vn -1.1102230246251565e-16 0 -1
vn -0.8944271909999159 0 -0.44721359549995804
vn -0.8944271909999159 0 -0.44721359549995804
vn -0.8944271909999159 0 0.447213595499958
vn -0.8944271909999159 0 0.447213595499958
vn -3.3306690738754696e-16 0 1
vn -3.3306690738754696e-16 0 1
vn 0.6666666666666666 0.6666666666666666 0.3333333333333333
vn 0.6666666666666667 0.6666666666666666 0.33333333333333337
vn 0.6666666666666666 0.6666666666666666 -0.3333333333333333
vn 0.6666666666666666 0.6666666666666666 -0.3333333333333333
vn -7.850462293418876e-17 0.7071067811865475 -0.7071067811865476
vn -7.850462293418876e-17 0.7071067811865476 -0.7071067811865476
vn -0.6666666666666666 0.6666666666666667 -0.3333333333333334
vn -0.6666666666666666 0.6666666666666667 -0.3333333333333334
vn -0.6666666666666667 0.6666666666666666 0.33333333333333337
vn -0.6666666666666667 0.6666666666666666 0.33333333333333337
vn -3.1401849173675503e-16 0.7071067811865475 0.7071067811865476
vn -2.355138688025663e-16 0.7071067811865476 0.7071067811865476
vn 0.894427190999916 0 0.447213595499958
vn 0.894427190999916 0 0.447213595499958
vn 0.8944271909999161 0 -0.44721359549995804
vn 0.8944271909999161 0 -0.44721359549995804
vn -1.1102230246251565e-16 0 -1
vn -1.1102230246251565e-16 0 -1
vn -0.8944271909999159 0 -0.4472135954999581
vn -0.8944271909999159 0 -0.4472135954999581
vn -0.894427190999916 0 0.447213595499958
vn -0.894427190999916 0 0.447213595499958
vn -3.3306690738754696e-16 0 1
vn -3.3306690738754696e-16 0 1
usemtl m_0e373bd4-befd-a3b6-5123-9851ebf985c0
f 25/1/1 26/2/1 27/3/1
f 26/4/2 28/5/2 27/6/2
f 28/7/3 29/8/3 27/9/3
f 29/10/4 30/11/4 27/12/4
f 30/13/5 31/14/5 27/15/5
f 31/16/6 25/17/6 27/18/6
f 2/19/7 1/20/7 3/21/7
f 2/22/8 3/23/8 4/24/8
f 4/25/9 3/26/9 5/27/9
f 4/28/10 5/29/10 6/30/10
f 6/31/11 5/32/11 7/33/11
f 6/34/12 7/35/12 8/36/12
f 8/37/13 7/38/13 9/39/13
f 8/40/14 9/41/14 10/42/14
f 10/43/15 9/44/15 11/45/15
f 10/46/16 11/47/16 12/48/16
f 12/49/17 11/50/17 1/51/17
f 12/52/18 1/53/18 2/54/18
f 4/55/19 14/56/19 13/57/19
f 4/58/20 13/59/20 2/60/20
f 6/61/21 15/62/21 14/63/21
f 6/64/22 14/65/22 4/66/22
f 8/67/23 16/68/23 15/69/23
f 8/70/24 15/71/24 6/72/24
f 10/73/25 17/74/25 16/75/25
f 10/76/26 16/77/26 8/78/26
f 12/79/27 18/80/27 17/81/27
f 12/82/28 17/83/28 10/84/28
f 2/85/29 13/86/29 18/87/29
f 2/88/30 18/89/30 12/90/30
f 14/91/31 20/92/31 19/93/31
f 14/94/32 19/95/32 13/96/32
f 15/97/33 21/98/33 20/99/33
f 15/100/34 20/101/34 14/102/34
f 16/103/35 22/104/35 21/105/35
f 16/106/36 21/107/36 15/108/36
f 17/109/37 23/110/37 22/111/37
f 17/112/38 22/113/38 16/114/38
f 18/115/39 24/116/39 23/117/39
f 18/118/40 23/119/40 17/120/40
f 13/121/41 19/122/41 24/123/41
f 13/124/42 24/125/42 18/126/42
f 20/127/43 26/128/43 25/129/43
f 20/130/44 25/131/44 19/132/44
f 21/133/45 28/134/45 26/135/45
f 21/136/46 26/137/46 20/138/46
f 22/139/47 29/140/47 28/141/47
f 22/142/48 28/143/48 21/144/48
f 23/145/49 30/146/49 29/147/49
f 23/148/50 29/149/50 22/150/50
f 24/151/51 31/152/51 30/153/51
f 24/154/52 30/155/52 23/156/52
f 19/157/53 25/158/53 31/159/53
f 19/160/54 31/161/54 24/162/54