# Blender 4.4.3
# www.blender.org
mtllib dungeon.mtl
o Plane
v -2.000000 0.000000 2.000000
v 2.000000 0.000000 2.000000
v -2.000000 0.000000 -2.000000
v 2.000000 0.000000 -2.000000
v -2.000000 2.000000 11.000000
v 2.000000 2.000000 11.000000
v -2.000000 2.000000 7.000000
v 2.000000 2.000000 7.000000
v -13.000000 4.000000 11.000000
v -5.000000 4.000000 11.000000
v -13.000000 4.000000 7.000000
v -5.000000 4.000000 7.000000
v 2.000000 2.000000 11.000000
v 2.000000 2.000000 7.000000
v 6.000000 2.000000 11.000000
v 6.000000 2.000000 7.000000
vn -0.0000 1.0000 -0.0000
vn -0.0000 0.9285 -0.3714
vn 0.5547 0.8321 -0.0000
vt 2.011109 -0.750266
vt -0.499266 1.760109
vt -0.499266 -0.750266
vt 1.765314 -0.765314
vt -0.765314 1.765314
vt -0.765314 -0.765314
vt -1.237096 -0.758166
vt 2.266625 1.777852
vt -1.237096 1.777852
vt -0.752415 -2.001097
vt 1.752415 2.794391
vt -0.752415 2.794391
vt 1.773479 -0.748871
vt -0.753793 1.778401
vt -0.753793 -0.748871
vt 1.765314 1.765314
vt 2.011109 1.760109
vt 2.266625 -0.758166
vt 1.752415 -2.001097
vt 1.773479 1.778401
s 0
usemtl Material.001
f 2/1/1 3/2/1 1/3/1
f 6/4/1 7/5/1 5/6/1
f 8/7/2 1/8/2 7/9/2
f 10/10/1 11/11/1 9/12/1
f 10/13/3 7/14/3 12/15/3
f 8/16/1 13/4/1 14/16/1
f 13/4/1 16/5/1 14/6/1
f 2/1/1 4/17/1 3/2/1
f 6/4/1 8/16/1 7/5/1
f 8/7/2 2/18/2 1/8/2
f 10/10/1 12/19/1 11/11/1
f 10/13/3 5/20/3 7/14/3
f 8/16/1 6/4/1 13/4/1
f 13/4/1 15/16/1 16/5/1
