# Blender 4.4.3
# www.blender.org
mtllib sewer.mtl
o Plane
v -2.000000 0.000000 2.000000
v 2.000000 0.000000 2.000000
v -2.000000 0.000000 -2.000000
v 2.000000 0.000000 -2.000000
v -2.000000 2.000000 11.000000
v 2.000000 2.000000 11.000000
v -2.000000 2.000000 7.000000
v 2.000000 2.000000 7.000000
v -8.999999 4.000000 11.000000
v -5.000000 4.000000 11.000000
v -8.999999 4.000000 7.000000
v -5.000000 4.000000 7.000000
vn -0.0000 1.0000 -0.0000
vn -0.0000 0.9285 -0.3714
vn 0.5547 0.8321 -0.0000
vt 2.000000 -1.000000
vt -1.000000 2.000000
vt -1.000000 -1.000000
vt 2.000000 -1.000000
vt -1.000000 -1.000000
vt -1.000000 2.000000
vt 1.228343 -1.000000
vt 1.228343 2.000000
vt -1.000000 2.000000
vt 1.999999 -1.000000
vt 1.999999 2.000000
vt 1.704164 2.000000
vt -0.999999 -1.000000
vt 1.704164 -1.000000
vt 2.000000 2.000000
vt 2.000000 2.000000
vt -1.000000 -1.000000
vt -1.000000 -1.000000
vt -0.999999 2.000000
s 0
f 2/1/1 3/2/1 1/3/1
f 6/4/1 7/2/1 5/5/1
f 8/6/2 1/7/2 7/8/2
f 10/9/1 11/10/1 9/11/1
f 10/12/3 7/13/3 12/14/3
f 2/1/1 4/15/1 3/2/1
f 6/4/1 8/16/1 7/2/1
f 8/6/2 2/17/2 1/7/2
f 10/9/1 12/18/1 11/10/1
f 10/12/3 5/19/3 7/13/3
