# Made in Blockbench 4.9.4
mtllib sewer.mtl

o sewer
v -32.00000000000001 2 -1.9999999999999694
v 31.999999999999993 2 -2.0000000000000298
v -32.000000000000014 3 3.019806626980426e-14
v 31.999999999999993 3 -3.019806626980426e-14
v -32.00000000000001 2 2.00000000000003
v 31.999999999999993 2 1.9999999999999698
v -31.999999999999993 0 2.00000000000003
v 32 0 1.9999999999999694
v -31.999999999999993 0 -1.9999999999999694
v 32 0 -2.0000000000000298
v -31.999999999999993 0 1.0000000000000293
v 32 0 0.9999999999999689
v -31.999999999999986 -1 1.0000000000000293
v 32 -1 0.9999999999999689
v 32 0 -1.0000000000000293
v -31.999999999999993 0 -0.9999999999999689
v 32 -1 -1.0000000000000293
v -31.999999999999986 -1 -0.9999999999999689
v -32.00000000000001 2 3.042011087472929e-14
v 31.999999999999993 2 3.042011087472929e-14
vt 0.375 0
vt 0.125 0
vt 0.125 0.125
vt 0.25 0.375
vt 0 0.375
vt 0.25 0.5
vt 0.25 0.5
vt 0.5 0.375
vt 0.25 0.375
vt 0.375 0
vt 0.125 0
vt 0.375 0.125
vt 0.125 0
vt 0.125 0.125
vt 0.375 0.125
vt 0.5 0.375
vt 0.24999999999999997 0.375
vt 0.24999999999999997 0.5
vt 0 0.375
vt 0.24999999999999997 0.5
vt 0.24999999999999997 0.375
vt 0.4999999999999999 0.375
vt 0.4999999999999999 0.1250000000000001
vt 0 0.375
vt 0 0.375
vt 0.4999999999999999 0.375
vt 0 0.12500000000000022
vt 2.220446049250313e-16 0.12500000000000022
vt 2.220446049250313e-16 0.3749999999999999
vt 0.5 0.12500000000000022
vt 0.4999999999999998 0.375
vt 0.4999999999999998 0.12500000000000033
vt 0 0.12500000000000033
vt 0.375 0.125
vt 0.375 0
vt 0.125 0.125
vt 0.75 0
vt 0.5 0
vt 0.5 8
vt 0.75 0
vt 0.5 8
vt 0.75 8
vt 0.75 0
vt 0.5 0
vt 0.5 8
vt 0.75 0
vt 0.5 8
vt 0.75 8
vt 0.75 0
vt 0.5 0
vt 0.5 8
vt 0.75 0
vt 0.5 8
vt 0.75 8
vt 0.75 0
vt 0.5 0
vt 0.5 8
vt 0.75 0
vt 0.5 8
vt 0.75 8
vt 0.75 0
vt 0.875 0
vt 0.875 8
vt 0.75 0
vt 0.875 8
vt 0.75 8
vt 0.875 0
vt 1 0
vt 1 8
vt 0.875 0
vt 1 8
vt 0.875 8
vt 0.75 0
vt 0.875 0
vt 0.875 8
vt 0.75 0
vt 0.875 8
vt 0.75 8
vt 0.875 0
vt 1 0
vt 1 8
vt 0.875 0
vt 1 8
vt 0.875 8
vn 1 7.105427357601002e-15 0
vn 1 7.105427357601002e-15 0
vn 1 7.105427357601002e-15 0
vn -1 0 0
vn -1 0 0
vn -1 0 0
vn -1 0 0
vn -1 -3.552713678800501e-15 0
vn 1 7.105427357601002e-15 0
vn -1 -3.552713678800501e-15 0
vn 1 7.105427357601002e-15 0
vn 1 7.105427357601002e-15 0
vn 4.2203080605203647e-16 -0.8944271909999159 0.447213595499958
vn 4.2203080605203647e-16 -0.8944271909999159 0.447213595499958
vn -4.2203080605203647e-16 -0.8944271909999161 -0.44721359549995804
vn -4.2203080605203647e-16 -0.8944271909999161 -0.44721359549995804
vn -9.506284648352905e-16 2.2204460492502793e-16 -1
vn -9.43689570931383e-16 -6.310887241768095e-30 -1
vn 9.436895709313833e-16 3.352658847189301e-30 1
vn 9.436895709313833e-16 6.310887241768096e-30 1
vn 0 1 0
vn 0 1 0
vn -9.436895709313833e-16 0 -1
vn -9.436895709313833e-16 0 -1
vn 0 1 0
vn 0 1 0
vn 9.436895709313833e-16 6.705317694378602e-30 1
vn 9.436895709313833e-16 0 1
usemtl m_fc1b1930-5627-b9af-b8ff-39739491aaa9
f 13/1/1 18/2/1 16/3/1
f 19/4/2 1/5/2 3/6/2
f 3/7/3 5/8/3 19/9/3
f 17/10/4 14/11/4 15/12/4
f 14/13/5 12/14/5 15/15/5
f 2/16/6 20/17/6 4/18/6
f 6/19/7 4/20/7 20/21/7
f 2/22/8 10/23/8 6/24/8
f 1/25/9 5/26/9 9/27/9
f 8/28/10 6/29/10 10/30/10
f 5/31/11 7/32/11 9/33/11
f 11/34/12 13/35/12 16/36/12
f 2/37/13 4/38/13 3/39/13
f 2/40/14 3/41/14 1/42/14
f 4/43/15 6/44/15 5/45/15
f 4/46/16 5/47/16 3/48/16
f 6/49/17 8/50/17 7/51/17
f 6/52/18 7/53/18 5/54/18
f 10/55/19 2/56/19 1/57/19
f 10/58/20 1/59/20 9/60/20
f 8/61/21 12/62/21 11/63/21
f 8/64/22 11/65/22 7/66/22
f 12/67/23 14/68/23 13/69/23
f 12/70/24 13/71/24 11/72/24
f 9/73/25 16/74/25 15/75/25
f 9/76/26 15/77/26 10/78/26
f 16/79/27 18/80/27 17/81/27
f 16/82/28 17/83/28 15/84/28