# Blender 4.4.3
# www.blender.org
mtllib dungeon.mtl
o Plane.001
v -1.000000 0.000000 -9.000000
v 1.000000 0.000000 -9.000000
v -1.000000 0.000000 -11.000000
v 6.000000 0.000000 -9.000000
v 8.000000 0.000000 -9.000000
v 8.000000 0.000000 -2.000000
v 8.000000 0.000000 0.000000
v 17.000000 0.000000 -2.000000
v 17.000000 0.000000 0.000000
v 19.000000 0.000000 -2.000000
v 19.000000 0.000000 0.000000
v 17.000000 0.000000 -18.000000
v 19.000000 0.000000 -18.000000
v -6.000000 0.000000 -18.000000
v -6.000000 0.000000 -20.000000
v -8.000000 0.000000 -20.000000
v -6.000000 0.000000 6.000000
v -8.000000 0.000000 6.000000
v -6.000000 0.000000 8.000000
v -8.000000 0.000000 8.000000
v -1.000000 0.000000 6.000000
v -1.000000 0.000000 8.000000
v 6.000000 0.000000 10.000000
v 8.000000 0.000000 10.000000
v 6.000000 0.000000 12.000000
v 8.000000 0.000000 12.000000
v 17.000000 0.000000 10.000000
v 17.000000 0.000000 12.000000
v 1.000000 0.000000 10.000000
v 1.000000 0.000000 12.000000
v 10.000000 1.000000 -9.000000
v 10.000000 1.000000 -11.000000
v -16.000000 0.000000 6.000000
v -16.000000 0.000000 8.000000
v -18.000000 0.000000 6.000000
v -18.000000 0.000000 8.000000
v -16.000000 0.063149 19.000000
v -18.000000 0.000000 19.000000
v -16.000000 0.000000 21.000000
v -18.000000 0.000000 21.000000
v -1.000000 0.000000 19.000000
v -1.000000 0.000000 21.000000
v -18.000000 3.000000 -6.000000
v -16.000000 3.000000 -6.000000
v 29.000000 5.000000 -18.000000
v 29.000000 5.000000 -20.000000
v 17.000000 0.000000 24.000000
v -26.000000 4.000000 19.000000
v -26.000000 4.000000 21.000000
v 1.000000 0.000000 21.000000
v -6.000000 2.309546 12.000000
v -8.000000 2.309546 12.000000
v 24.000000 1.840901 0.000000
v 17.000000 0.000000 26.000000
v 19.000000 0.000000 26.000000
v 8.000000 0.000000 24.000000
v 8.000000 0.000000 26.000000
v 6.000000 0.000000 26.000000
v 8.000000 0.000000 22.000000
v 8.000000 0.000000 14.000000
v 15.000000 0.000000 14.000000
v 15.000000 0.000000 22.000000
v -6.000000 2.309546 17.000000
v -14.000000 2.309546 12.000000
v -14.000000 2.309546 17.000000
v 10.000000 1.000000 -16.000000
v 15.000000 1.000000 -16.000000
v 10.000000 1.000000 -4.000000
v 15.000000 1.000000 -4.000000
v 29.000000 5.000000 -24.000000
v 39.000000 5.000000 -24.000000
v 29.000000 5.000000 -14.000000
v 39.000000 5.000000 -14.000000
v -16.000000 0.000000 27.000000
v 30.000000 1.840901 -2.000000
v -10.000000 3.000000 -6.000000
v -10.000000 3.000000 -16.000000
v -24.000000 3.000000 -6.000000
v -24.000000 3.000000 -16.000000
v 24.000000 1.840901 -2.000000
v 24.000000 1.840901 5.000000
v 30.000000 1.840901 5.000000
v -32.000000 4.000000 21.000000
v -26.000000 4.000000 6.000000
v -32.000000 4.000000 6.000000
v -18.000000 0.000000 27.000000
v -10.000000 0.000000 33.000000
v -10.000000 0.000000 27.000000
v -24.000000 0.000000 33.000000
v -24.000000 0.000000 27.000000
v 8.000000 0.000000 -11.000000
v 19.000000 0.000000 -20.000000
vn -0.0000 1.0000 -0.0000
vn 0.0042 0.9995 0.0316
vn -0.0000 0.9701 0.2425
vn -0.4472 0.8944 -0.0000
vn 0.4472 0.8944 -0.0000
vn -0.0000 0.8660 -0.5000
vn -0.3455 0.9384 -0.0000
vn -1.0000 -0.0000 -0.0000
vt -6.639621 -5.501104
vt -6.639621 -13.767708
vt -5.136601 -8.507141
vt -1.379054 -8.507141
vt 0.123965 -10.010159
vt 0.123965 -8.507141
vt 0.123965 0.510973
vt 6.887548 2.013992
vt 0.123965 2.013992
vt -10.397168 15.541164
vt 6.887548 14.038143
vt 8.390568 14.038143
vt 6.887548 -7.004123
vt 0.123965 -7.004123
vt -1.379054 -7.004123
vt -5.136601 -7.004123
vt 16.657175 9.529091
vt 12.899625 18.547203
vt 12.899625 14.789655
vt -11.900187 -3.998085
vt -17.912262 -3.998085
vt -17.912262 -5.501104
vt 17.408682 5.020028
vt 18.911613 3.517009
vt 18.911613 13.286635
vt 17.409243 -13.016098
vt 15.906038 -1.743483
vt 15.905663 -13.016199
vt 17.409243 -3.720540
vt 18.912262 -13.016199
vt 18.912262 -3.720540
vt -16.409243 15.541164
vt -14.906225 17.221588
vt -16.409243 17.221588
vt 6.887548 -8.507141
vt 8.390568 0.510973
vt 17.408682 20.008343
vt 18.911703 13.286636
vt 18.911703 20.008343
vt 12.899625 9.529091
vt 17.408682 -0.992044
vt 17.408682 3.517014
vt -17.912262 19.012291
vt -16.409243 19.012291
vt -19.415281 19.545296
vt -17.912262 15.541159
vt -17.912262 19.545296
vt 6.887548 -17.525257
vt 0.123965 -19.028275
vt 6.887548 -19.028275
vt 0.123965 -16.022240
vt 5.384531 -10.010159
vt 19.663212 -17.525257
vt 19.663212 -19.028275
vt 12.899625 -0.992041
vt 11.396604 -0.992041
vt 8.390568 -8.507137
vt 15.905663 -8.507138
vt 8.390568 -13.016196
vt 8.390568 -14.519216
vt 8.390568 14.038149
vt 12.899625 10.280601
vt 8.390568 15.541166
vt -10.397168 14.038143
vt 12.899625 0.510975
vt 8.390568 10.280601
vt 12.899625 -0.992044
vt 0.123965 8.777577
vt -6.639621 7.274556
vt -5.136601 7.274556
vt 20.415281 -4.614065
vt 18.912264 -13.016199
vt 20.415281 -13.016199
vt -6.639621 -3.998085
vt -6.639621 -15.270727
vt -5.136601 -15.270727
vt 0.123965 7.274556
vt -1.379054 7.274556
vt -1.379054 -19.028275
vt 0.123965 -17.525257
vt 6.887548 0.510973
vt 8.390568 15.541164
vt 12.899625 13.286636
vt 16.657175 18.547203
vt -10.397168 -5.501104
vt -10.397168 -3.998085
vt -11.900187 -5.501104
vt -19.415281 -3.998085
vt -19.415281 -5.501104
vt 17.408682 3.517009
vt 17.408682 -0.992047
vt 18.911613 -0.992048
vt 18.912125 5.020028
vt 17.408682 13.286635
vt 17.408867 -1.743483
vt 17.409243 -13.016199
vt -14.906225 15.541164
vt 8.390568 2.013992
vt 8.390568 -19.028275
vt 17.408682 13.286636
vt 17.408682 5.020031
vt 17.408678 9.529091
vt -17.912262 15.541164
vt -19.415281 15.541159
vt 5.384531 -16.022240
vt 19.663210 -13.016199
vt 15.905663 -19.028275
vt 15.905663 -8.507137
vt 15.905663 -0.992041
vt 8.390568 -0.992041
vt 8.390572 -19.028271
vt 15.905663 -19.028271
vt 8.390568 -8.507141
vt 12.899625 15.541166
vt -11.900187 15.541164
vt 8.390568 -0.992044
vt -6.639621 8.777577
vt 18.912264 -4.614065
s 0
usemtl Material
f 22/1/1 41/2/1 30/3/1
f 25/4/1 60/5/1 26/6/1
f 7/7/1 8/8/1 6/9/1
f 15/10/1 12/11/1 13/12/1
f 26/6/1 27/13/1 24/14/1
f 30/3/1 23/15/1 29/16/1
f 69/17/1 66/18/1 32/19/1
f 18/20/1 33/21/1 34/22/1
f 38/23/1 39/24/1 34/25/1
f 39/26/2 41/27/2 37/28/2
f 33/29/3 43/30/3 35/31/3
f 31/32/4 91/33/4 5/34/4
f 27/13/1 28/35/1 11/36/1
f 38/37/5 49/38/5 40/39/5
f 89/40/1 88/41/1 74/42/1
f 20/43/6 51/32/6 19/44/6
f 11/45/7 80/46/7 10/47/7
f 47/48/1 57/49/1 54/50/1
f 59/51/1 61/52/1 60/5/1
f 52/53/1 65/28/1 51/54/1
f 46/55/1 45/56/1 73/57/1
f 79/58/1 43/59/1 44/60/1
f 53/61/1 82/62/1 80/63/1
f 18/20/1 14/64/1 15/10/1
f 48/65/1 85/66/1 49/67/1
f 91/68/1 1/69/1 2/70/1
f 92/71/4 45/72/4 46/73/4
f 29/16/1 2/70/1 1/69/1
f 29/16/1 1/69/1 21/74/1
f 42/75/1 50/76/1 30/3/1
f 30/3/1 29/16/1 21/74/1
f 30/3/1 21/74/1 22/1/1
f 41/2/1 42/75/1 30/3/1
f 5/77/1 4/78/1 23/15/1
f 25/4/1 58/79/1 57/49/1
f 5/77/1 23/15/1 25/4/1
f 6/9/1 5/77/1 25/4/1
f 25/4/1 57/49/1 56/80/1
f 25/4/1 56/80/1 59/51/1
f 7/7/1 6/9/1 25/4/1
f 24/14/1 7/7/1 25/4/1
f 25/4/1 59/51/1 60/5/1
f 26/6/1 24/14/1 25/4/1
f 7/7/1 9/81/1 8/8/1
f 13/12/1 92/82/1 15/10/1
f 15/10/1 14/64/1 12/11/1
f 26/6/1 28/35/1 27/13/1
f 30/3/1 25/4/1 23/15/1
f 31/83/1 68/40/1 69/17/1
f 69/17/1 67/84/1 66/18/1
f 32/19/1 31/83/1 69/17/1
f 19/85/1 22/1/1 21/74/1
f 19/85/1 21/74/1 17/86/1
f 20/87/1 19/85/1 17/86/1
f 20/87/1 17/86/1 18/20/1
f 35/88/1 36/89/1 34/22/1
f 34/22/1 20/87/1 18/20/1
f 33/21/1 35/88/1 34/22/1
f 40/90/1 86/91/1 74/92/1
f 39/24/8 37/93/8 34/25/8
f 40/90/1 74/92/1 39/24/1
f 34/25/1 36/94/1 38/23/1
f 38/23/1 40/90/1 39/24/1
f 39/26/1 42/95/1 41/27/1
f 33/29/3 44/96/3 43/30/3
f 31/32/4 32/97/4 91/33/4
f 10/98/1 13/12/1 12/11/1
f 10/98/1 12/11/1 8/8/1
f 54/50/1 55/99/1 11/36/1
f 11/36/1 10/98/1 8/8/1
f 11/36/1 8/8/1 9/81/1
f 47/48/1 54/50/1 11/36/1
f 28/35/1 47/48/1 11/36/1
f 11/36/1 9/81/1 27/13/1
f 38/37/5 48/100/5 49/38/5
f 86/101/1 90/102/1 89/40/1
f 89/40/1 87/67/1 88/41/1
f 74/42/1 86/101/1 89/40/1
f 20/43/6 52/103/6 51/32/6
f 11/45/7 53/104/7 80/46/7
f 47/48/1 56/80/1 57/49/1
f 59/51/1 62/105/1 61/52/1
f 52/53/1 64/106/1 65/28/1
f 65/28/1 63/107/1 51/54/1
f 73/57/1 71/108/1 70/109/1
f 73/57/1 70/109/1 46/55/1
f 45/56/1 72/110/1 73/57/1
f 76/111/1 77/112/1 79/58/1
f 79/58/1 78/113/1 43/59/1
f 44/60/1 76/111/1 79/58/1
f 53/61/1 81/66/1 82/62/1
f 82/62/1 75/114/1 80/63/1
f 15/10/1 16/115/1 18/20/1
f 18/20/1 17/86/1 14/64/1
f 48/65/1 84/62/1 85/66/1
f 85/66/1 83/116/1 49/67/1
f 4/78/1 5/77/1 91/68/1
f 91/68/1 3/117/1 1/69/1
f 2/70/1 4/78/1 91/68/1
f 92/71/4 13/118/4 45/72/4
