# Blender 4.4.3
# www.blender.org
mtllib train_inside.mtl
o Plane
v -1.000000 1.000000 -1.000000
v 1.000000 1.000000 -2.000000
v -1.000000 0.000000 -1.000000
v 1.000000 0.000000 -1.000000
v -1.000000 1.000000 -2.000000
v -1.000000 3.000000 -2.000000
v 1.000000 3.000000 -2.000000
v -2.000000 3.000000 0.000000
v 2.000000 3.000000 0.000000
v -2.000000 0.000000 0.000000
v 2.000000 0.000000 0.000000
v 1.000000 1.000000 -1.000000
v -1.000000 4.000000 -1.000000
v 1.000000 4.000000 -1.000000
v -2.000000 3.000000 1.000000
v 1.000000 3.000000 2.000000
v 2.000000 3.000000 1.000000
v -2.000000 0.000000 1.000000
v -1.000000 0.000000 2.000000
v 1.000000 0.000000 2.000000
v 2.000000 0.000000 1.000000
v -1.000000 3.000000 2.000000
v -1.000000 4.000000 1.000000
v 1.000000 4.000000 1.000000
v -2.000000 1.000000 0.000000
v 2.000000 1.000000 0.000000
vn -0.0000 1.0000 -0.0000
vn -0.0000 -0.0000 1.0000
vn -0.0000 -0.0000 -1.0000
vn -0.7071 -0.0000 0.7071
vn -0.0000 -0.7071 0.7071
vn 1.0000 -0.0000 -0.0000
vn -1.0000 -0.0000 -0.0000
vn 0.8165 -0.4082 0.4082
vn -0.8165 -0.4082 0.4082
vn -0.0000 -1.0000 -0.0000
vn -0.7071 -0.7071 -0.0000
vn -0.7071 -0.0000 -0.7071
vn 0.7071 -0.0000 -0.7071
vn 0.5774 -0.5774 -0.5774
vn -0.5774 -0.5774 -0.5774
vn -0.0000 -0.7071 -0.7071
vn 0.7071 -0.7071 -0.0000
vn -0.8944 -0.0000 0.4472
vn 0.8944 -0.0000 0.4472
vn 0.7071 -0.0000 0.7071
vt 0.866750 0.247918
vt 0.982907 0.480233
vt 0.866749 0.480233
vt 0.962710 0.237872
vt 0.730396 0.005558
vt 0.962710 0.005558
vt 0.353443 0.120541
vt 0.237285 0.469013
vt 0.004971 0.352855
vt 0.363488 0.353442
vt 0.595803 0.004971
vt 0.595803 0.353442
vt 0.415155 0.875726
vt 0.250884 0.991883
vt 0.250884 0.875726
vt 0.412911 0.857238
vt 0.248639 0.624924
vt 0.412911 0.624924
vt 0.721472 0.353443
vt 0.605314 0.237285
vt 0.605314 0.004971
vt 0.605340 0.242424
vt 0.721472 0.004971
vt 0.480811 0.741668
vt 0.636652 0.614424
vt 0.740546 0.741668
vt 0.856116 0.596925
vt 0.623802 0.364610
vt 0.856116 0.364611
vt 0.886411 0.724384
vt 0.654097 0.888655
vt 0.886411 0.888655
vt 0.266406 0.616000
vt 0.614878 0.451728
vt 0.614878 0.616000
vt 0.266406 0.451729
vt 0.969442 0.709129
vt 0.969442 0.544858
vt 0.827179 0.626993
vt 0.237872 0.751313
vt 0.005558 0.915584
vt 0.005558 0.751313
vt 0.770254 0.724384
vt 0.422957 0.866215
vt 0.655271 0.750057
vt 0.655271 0.866215
vt 0.730396 0.237872
vt 0.962710 0.005558
vt 0.730396 0.005558
vt 0.790451 0.606436
vt 0.906608 0.722594
vt 0.674293 0.606436
vt 0.730395 0.237872
vt 0.962710 0.005558
vt 0.962710 0.237872
vt 0.250884 0.875726
vt 0.415155 0.991883
vt 0.415155 0.875726
vt 0.982907 0.247918
vt 0.730396 0.237872
vt 0.004971 0.120541
vt 0.121128 0.004383
vt 0.237285 0.004383
vt 0.353443 0.352855
vt 0.121128 0.469013
vt 0.363488 0.004971
vt 0.415155 0.991883
vt 0.248639 0.857238
vt 0.721472 0.004971
vt 0.605314 0.353443
vt 0.605314 0.004971
vt 0.605314 0.353442
vt 0.623802 0.596925
vt 0.237872 0.915584
vt 0.422957 0.750057
vt 0.962710 0.237872
vt 0.730395 0.005558
vt 0.250884 0.991883
s 0
usemtl Material
f 12/1/1 5/2/1 1/3/1
f 2/4/2 6/5/2 5/6/2
f 4/7/1 10/8/1 19/9/1
f 19/10/3 16/11/3 20/12/3
f 11/13/4 12/14/4 4/15/4
f 7/16/5 13/17/5 6/18/5
f 18/19/6 25/20/6 8/21/6
f 26/22/7 21/19/7 17/23/7
f 8/24/8 6/25/8 13/26/8
f 9/24/9 14/26/9 7/25/9
f 14/27/10 23/28/10 13/29/10
f 9/30/11 24/31/11 14/32/11
f 16/33/12 21/34/12 20/35/12
f 19/35/13 15/36/13 22/33/13
f 22/37/14 15/38/14 23/39/14
f 16/37/15 24/39/15 17/38/15
f 22/40/16 24/41/16 16/42/16
f 8/30/17 23/31/17 15/43/17
f 1/44/2 4/45/2 12/46/2
f 7/47/18 26/48/18 9/49/18
f 12/50/1 26/51/1 2/52/1
f 1/50/1 5/52/1 25/51/1
f 6/53/19 25/54/19 5/55/19
f 3/56/20 25/57/20 10/58/20
f 12/1/1 2/59/1 5/2/1
f 2/4/2 7/60/2 6/5/2
f 19/9/1 20/61/1 21/62/1
f 21/62/1 11/63/1 4/7/1
f 4/7/1 3/64/1 10/8/1
f 10/8/1 18/65/1 19/9/1
f 19/9/1 21/62/1 4/7/1
f 19/10/3 22/66/3 16/11/3
f 11/13/4 26/67/4 12/14/4
f 7/16/5 14/68/5 13/17/5
f 8/21/6 15/69/6 18/19/6
f 18/19/6 10/70/6 25/20/6
f 17/23/7 9/71/7 26/22/7
f 26/22/7 11/72/7 21/19/7
f 14/27/10 24/73/10 23/28/10
f 9/30/11 17/43/11 24/31/11
f 16/33/12 17/36/12 21/34/12
f 19/35/13 18/34/13 15/36/13
f 22/40/16 23/74/16 24/41/16
f 8/30/17 13/32/17 23/31/17
f 1/44/2 3/75/2 4/45/2
f 7/47/18 2/76/18 26/48/18
f 6/53/19 8/77/19 25/54/19
f 3/56/20 1/78/20 25/57/20
