# Blender 4.4.3
# www.blender.org
mtllib train.mtl
o Cube
v -1.000000 0.000000 3.000000
v -1.000000 3.000000 3.000000
v -1.000000 0.000000 2.000000
v -1.000000 3.000000 2.000000
v 1.000000 0.000000 3.000000
v 1.000000 3.000000 3.000000
v 1.000000 0.000000 2.000000
v 1.000000 3.000000 2.000000
vn -1.0000 -0.0000 -0.0000
vn -0.0000 -0.0000 -1.0000
vn 1.0000 -0.0000 -0.0000
vn -0.0000 1.0000 -0.0000
vt 0.748607 0.011537
vt 0.507716 0.734211
vt 0.748607 0.734211
vt 0.009131 0.008658
vt 0.490913 0.731331
vt 0.009131 0.731331
vt 0.507716 0.011537
vt 0.748607 0.734211
vt 0.507716 0.734211
vt 0.490913 0.751013
vt 0.009131 0.991904
vt 0.009131 0.751013
vt 0.507716 0.011537
vt 0.490913 0.008658
vt 0.748607 0.011537
vt 0.490913 0.991904
s 0
f 2/1/1 3/2/1 1/3/1
f 4/4/2 7/5/2 3/6/2
f 8/7/3 5/8/3 7/9/3
f 4/10/4 6/11/4 8/12/4
f 2/1/1 4/13/1 3/2/1
f 4/4/2 8/14/2 7/5/2
f 8/7/3 6/15/3 5/8/3
f 4/10/4 2/16/4 6/11/4
