<?xml version="1.0" encoding="UTF-8"?>
<svg id="Layer_1" data-name="Layer 1" xmlns="http://www.w3.org/2000/svg" viewBox="0 0 274.6 274.6">
  <g>
    <rect x="14.9" y="14.9" width="14.4" height="14.4" rx="2.83" ry="2.83" fill="#fff"/>
    <rect x="14.9" y="14.9" width="14.4" height="14.4" rx="2.83" ry="2.83" fill="none" stroke="#000" stroke-miterlimit="10" stroke-width="1"/>
  </g>
  <g>
    <rect x="245.3" y="14.9" width="14.4" height="14.4" rx="2.83" ry="2.83" fill="#fff"/>
    <rect x="245.3" y="14.9" width="14.4" height="14.4" rx="2.83" ry="2.83" fill="none" stroke="#000" stroke-miterlimit="10" stroke-width="1"/>
  </g>
  <g>
    <rect x="245.3" y="245.3" width="14.4" height="14.4" rx="2.83" ry="2.83" fill="#fff"/>
    <rect x="245.3" y="245.3" width="14.4" height="14.4" rx="2.83" ry="2.83" fill="none" stroke="#000" stroke-miterlimit="10" stroke-width="1"/>
  </g>
  <g>
    <rect x="14.9" y="245.3" width="14.4" height="14.4" rx="2.83" ry="2.83" fill="#fff"/>
    <rect x="14.9" y="245.3" width="14.4" height="14.4" rx="2.83" ry="2.83" fill="none" stroke="#000" stroke-miterlimit="10" stroke-width="1"/>
  </g>
  <g>
    <path d="M269.73,122.9c-1.56,0-2.83,1.28-2.83,2.83v1.53c0,1.56-1.28,2.83-2.83,2.83h-1.53c-1.56,0-2.83-1.28-2.83-2.83v-15.69c0-1.56,1.28-2.83,2.83-2.83h1.53c1.56,0,2.83-1.28,2.83-2.83v-1.77c0-1.56-1.28-2.83-2.83-2.83h-8.73c-1.56,0-2.83,1.28-2.83,2.83v23.13c0,1.56-1.28,2.83-2.83,2.83h-1.53c-1.56,0-2.83-1.28-2.83-2.83v-30.33c0-1.56,1.28-2.83,2.83-2.83h8.73c1.56,0,2.83-1.28,2.83-2.83v-15.93c0-1.56-1.28-2.83-2.83-2.83h-1.53c-1.56,0-2.83,1.28-2.83,2.83v8.73c0,1.56-1.28,2.83-2.83,2.83h-15.93c-1.56,0-2.83-1.28-2.83-2.83v-15.93c0-1.56,1.28-2.83,2.83-2.83h15.93c1.56,0,2.83-1.28,2.83-2.83v-23.13c0-1.56-1.28-2.83-2.83-2.83h-1.53c-1.56,0-2.83,1.28-2.83,2.83v15.93c0,1.56-1.28,2.83-2.83,2.83h-8.73c-1.56,0-2.83-1.28-2.83-2.83v-1.53c0-1.56,1.28-2.83,2.83-2.83h1.53c1.56,0,2.83-1.28,2.83-2.83v-8.73c0-1.56-1.28-2.83-2.83-2.83h-8.73c-1.56,0-2.83,1.28-2.83,2.83v1.53c0,1.56-1.28,2.83-2.83,2.83h-1.53c-1.56,0-2.83-1.28-2.83-2.83v-8.73c0-1.56,1.28-2.83,2.83-2.83h15.93c1.56,0,2.83-1.28,2.83-2.83v-1.53c0-1.56-1.28-2.83-2.83-2.83h-23.13c-1.56,0-2.83,1.28-2.83,2.83v15.93c0,1.56-1.28,2.83-2.83,2.83h-15.93c-1.56,0-2.83-1.28-2.83-2.83v-15.93c0-1.56,1.28-2.83,2.83-2.83h8.73c1.56,0,2.83-1.28,2.83-2.83v-1.53c0-1.56-1.28-2.83-2.83-2.83h-15.93c-1.56,0-2.83,1.28-2.83,2.83v8.73c0,1.56-1.28,2.83-2.83,2.83h-30.33c-1.56,0-2.83-1.28-2.83-2.83v-1.53c0-1.56,1.28-2.83,2.83-2.83h23.13c1.56,0,2.83-1.28,2.83-2.83v-8.73c0-1.56-1.28-2.83-2.83-2.83h-1.53c-1.56,0-2.83,1.28-2.83,2.83v1.53c0,1.56-1.28,2.83-2.83,2.83h-15.93c-1.56,0-2.83-1.28-2.83-2.83v-1.53c0-1.56,1.28-2.83,2.83-2.83h1.53c1.56,0,2.83-1.28,2.83-2.83v-1.53c0-1.56-1.28-2.83-2.83-2.83h-23.13c-1.56,0-2.83,1.28-2.83,2.83v1.53c0,1.56,1.28,2.83,2.83,2.83h1.53c1.56,0,2.83,1.28,2.83,2.83v1.53c0,1.56-1.28,2.83-2.83,2.83h-15.93c-1.56,0-2.83-1.28-2.83-2.83v-1.53c0-1.56-1.28-2.83-2.83-2.83h-1.53c-1.56,0-2.83,1.28-2.83,2.83v8.73c0,1.56,1.28,2.83,2.83,2.83h23.13c1.56,0,2.83,1.28,2.83,2.83v1.53c0,1.56-1.28,2.83-2.83,2.83h-30.33c-1.56,0-2.83-1.28-2.83-2.83v-8.73c0-1.56-1.28-2.83-2.83-2.83h-15.93c-1.56,0-2.83,1.28-2.83,2.83v1.53c0,1.56,1.28,2.83,2.83,2.83h8.73c1.56,0,2.83,1.28,2.83,2.83v15.93c0,1.56-1.28,2.83-2.83,2.83h-15.93c-1.56,0-2.83-1.28-2.83-2.83v-15.93c0-1.56-1.28-2.83-2.83-2.83h-23.13c-1.56,0-2.83,1.28-2.83,2.83v1.53c0,1.56,1.28,2.83,2.83,2.83h15.93c1.56,0,2.83,1.28,2.83,2.83v8.73c0,1.56-1.28,2.83-2.83,2.83h-1.53c-1.56,0-2.83-1.28-2.83-2.83v-1.53c0-1.56-1.28-2.83-2.83-2.83h-8.73c-1.56,0-2.83,1.28-2.83,2.83v8.73c0,1.56,1.28,2.83,2.83,2.83h1.53c1.56,0,2.83,1.28,2.83,2.83v1.53c0,1.56-1.28,2.83-2.83,2.83h-8.73c-1.56,0-2.83-1.28-2.83-2.83v-15.93c0-1.56-1.28-2.83-2.83-2.83h-1.53c-1.56,0-2.83,1.28-2.83,2.83v23.13c0,1.56,1.28,2.83,2.83,2.83h15.93c1.56,0,2.83,1.28,2.83,2.83v15.93c0,1.56-1.28,2.83-2.83,2.83h-15.93c-1.56,0-2.83-1.28-2.83-2.83v-8.73c0-1.56-1.28-2.83-2.83-2.83h-1.53c-1.56,0-2.83,1.28-2.83,2.83v15.93c0,1.56,1.28,2.83,2.83,2.83h8.73c1.56,0,2.83,1.28,2.83,2.83v30.33c0,1.56-1.28,2.83-2.83,2.83h-1.53c-1.56,0-2.83-1.28-2.83-2.83v-23.13c0-1.56-1.28-2.83-2.83-2.83h-8.73c-1.56,0-2.83,1.28-2.83,2.83v1.53c0,1.56,1.28,2.83,2.83,2.83h1.53c1.56,0,2.83,1.28,2.83,2.83v15.93c0,1.56-1.28,2.83-2.83,2.83h-1.53c-1.56,0-2.83-1.28-2.83-2.83v-1.53c0-1.56-1.28-2.83-2.83-2.83h-1.53c-1.56,0-2.83,1.28-2.83,2.83v23.13c0,1.56,1.28,2.83,2.83,2.83h1.53c1.56,0,2.83-1.28,2.83-2.83v-1.53c0-1.56,1.28-2.83,2.83-2.83h1.53c1.56,0,2.83,1.28,2.83,2.83v15.93c0,1.56-1.28,2.83-2.83,2.83h-1.53c-1.56,0-2.83,1.28-2.83,2.83v1.53c0,1.56,1.28,2.83,2.83,2.83h8.73c1.56,0,2.83-1.28,2.83-2.83v-23.13c0-1.56,1.28-2.83,2.83-2.83h1.53c1.56,0,2.83,1.28,2.83,2.83v30.33c0,1.56-1.28,2.83-2.83,2.83h-8.73c-1.56,0-2.83,1.28-2.83,2.83v15.93c0,1.56,1.28,2.83,2.83,2.83h1.53c1.56,0,2.83-1.28,2.83-2.83v-8.73c0-1.56,1.28-2.83,2.83-2.83h15.93c1.56,0,2.83,1.28,2.83,2.83v15.93c0,1.56-1.28,2.83-2.83,2.83h-15.93c-1.56,0-2.83,1.28-2.83,2.83v23.13c0,1.56,1.28,2.83,2.83,2.83h1.53c1.56,0,2.83-1.28,2.83-2.83v-15.93c0-1.56,1.28-2.83,2.83-2.83h8.73c1.56,0,2.83,1.28,2.83,2.83v1.53c0,1.56-1.28,2.83-2.83,2.83h-1.53c-1.56,0-2.83,1.28-2.83,2.83v8.73c0,1.56,1.28,2.83,2.83,2.83h8.73c1.56,0,2.83-1.28,2.83-2.83v-1.53c0-1.56,1.28-2.83,2.83-2.83h1.53c1.56,0,2.83,1.28,2.83,2.83v8.73c0,1.56-1.28,2.83-2.83,2.83h-15.93c-1.56,0-2.83,1.28-2.83,2.83v1.53c0,1.56,1.28,2.83,2.83,2.83h23.13c1.56,0,2.83-1.28,2.83-2.83v-15.93c0-1.56,1.28-2.83,2.83-2.83h15.93c1.56,0,2.83,1.28,2.83,2.83v15.93c0,1.56-1.28,2.83-2.83,2.83h-8.73c-1.56,0-2.83,1.28-2.83,2.83v1.53c0,1.56,1.28,2.83,2.83,2.83h15.93c1.56,0,2.83-1.28,2.83-2.83v-8.73c0-1.56,1.28-2.83,2.83-2.83h30.33c1.56,0,2.83,1.28,2.83,2.83v1.53c0,1.56-1.28,2.83-2.83,2.83h-23.13c-1.56,0-2.83,1.28-2.83,2.83v8.73c0,1.56,1.28,2.83,2.83,2.83h1.53c1.56,0,2.83-1.28,2.83-2.83v-1.53c0-1.56,1.28-2.83,2.83-2.83h15.93c1.56,0,2.83,1.28,2.83,2.83v1.53c0,1.56-1.28,2.83-2.83,2.83h-1.53c-1.56,0-2.83,1.28-2.83,2.83v1.53c0,1.56,1.28,2.83,2.83,2.83h23.13c1.56,0,2.83-1.28,2.83-2.83v-1.53c0-1.56-1.28-2.83-2.83-2.83h-1.53c-1.56,0-2.83-1.28-2.83-2.83v-1.53c0-1.56,1.28-2.83,2.83-2.83h15.93c1.56,0,2.83,1.28,2.83,2.83v1.53c0,1.56,1.28,2.83,2.83,2.83h1.53c1.56,0,2.83-1.28,2.83-2.83v-8.73c0-1.56-1.28-2.83-2.83-2.83h-23.13c-1.56,0-2.83-1.28-2.83-2.83v-1.53c0-1.56,1.28-2.83,2.83-2.83h30.33c1.56,0,2.83,1.28,2.83,2.83v8.73c0,1.56,1.28,2.83,2.83,2.83h15.93c1.56,0,2.83-1.28,2.83-2.83v-1.53c0-1.56-1.28-2.83-2.83-2.83h-8.73c-1.56,0-2.83-1.28-2.83-2.83v-15.93c0-1.56,1.28-2.83,2.83-2.83h15.93c1.56,0,2.83,1.28,2.83,2.83v15.93c0,1.56,1.28,2.83,2.83,2.83h23.13c1.56,0,2.83-1.28,2.83-2.83v-1.53c0-1.56-1.28-2.83-2.83-2.83h-15.93c-1.56,0-2.83-1.28-2.83-2.83v-8.73c0-1.56,1.28-2.83,2.83-2.83h1.53c1.56,0,2.83,1.28,2.83,2.83v1.53c0,1.56,1.28,2.83,2.83,2.83h8.73c1.56,0,2.83-1.28,2.83-2.83v-8.73c0-1.56-1.28-2.83-2.83-2.83h-1.53c-1.56,0-2.83-1.28-2.83-2.83v-1.53c0-1.56,1.28-2.83,2.83-2.83h8.73c1.56,0,2.83,1.28,2.83,2.83v15.93c0,1.56,1.28,2.83,2.83,2.83h1.53c1.56,0,2.83-1.28,2.83-2.83v-23.13c0-1.56-1.28-2.83-2.83-2.83h-15.93c-1.56,0-2.83-1.28-2.83-2.83v-15.93c0-1.56,1.28-2.83,2.83-2.83h15.93c1.56,0,2.83,1.28,2.83,2.83v8.73c0,1.56,1.28,2.83,2.83,2.83h1.53c1.56,0,2.83-1.28,2.83-2.83v-15.93c0-1.56-1.28-2.83-2.83-2.83h-8.73c-1.56,0-2.83-1.28-2.83-2.83v-30.33c0-1.56,1.28-2.83,2.83-2.83h1.53c1.56,0,2.83,1.28,2.83,2.83v23.13c0,1.56,1.28,2.83,2.83,2.83h8.73c1.56,0,2.83-1.28,2.83-2.83v-1.53c0-1.56-1.28-2.83-2.83-2.83h-1.53c-1.56,0-2.83-1.28-2.83-2.83v-15.93c0-1.56,1.28-2.83,2.83-2.83h1.53c1.56,0,2.83,1.28,2.83,2.83v1.53c0,1.56,1.28,2.83,2.83,2.83h1.53c1.56,0,2.83-1.28,2.83-2.83v-23.13c0-1.56-1.28-2.83-2.83-2.83h-1.53ZM65.3,220.87c0,1.56-1.28,2.83-2.83,2.83h-8.73c-1.56,0-2.83-1.28-2.83-2.83v-8.73c0-1.56,1.28-2.83,2.83-2.83h1.53c1.56,0,2.83,1.28,2.83,2.83v1.53c0,1.56,1.28,2.83,2.83,2.83h1.53c1.56,0,2.83,1.28,2.83,2.83v1.53ZM65.3,55.27c0,1.56-1.28,2.83-2.83,2.83h-1.53c-1.56,0-2.83,1.28-2.83,2.83v1.53c0,1.56-1.28,2.83-2.83,2.83h-1.53c-1.56,0-2.83-1.28-2.83-2.83v-8.73c0-1.56,1.28-2.83,2.83-2.83h8.73c1.56,0,2.83,1.28,2.83,2.83v1.53ZM223.7,220.87c0,1.56-1.28,2.83-2.83,2.83h-8.73c-1.56,0-2.83-1.28-2.83-2.83v-1.53c0-1.56,1.28-2.83,2.83-2.83h1.53c1.56,0,2.83-1.28,2.83-2.83v-1.53c0-1.56,1.28-2.83,2.83-2.83h1.53c1.56,0,2.83,1.28,2.83,2.83v8.73ZM223.7,62.47c0,1.56-1.28,2.83-2.83,2.83h-1.53c-1.56,0-2.83-1.28-2.83-2.83v-1.53c0-1.56-1.28-2.83-2.83-2.83h-1.53c-1.56,0-2.83-1.28-2.83-2.83v-1.53c0-1.56,1.28-2.83,2.83-2.83h8.73c1.56,0,2.83,1.28,2.83,2.83v8.73Z" fill="#fff"/>
    <path d="M269.73,122.9c-1.56,0-2.83,1.28-2.83,2.83v1.53c0,1.56-1.28,2.83-2.83,2.83h-1.53c-1.56,0-2.83-1.28-2.83-2.83v-15.69c0-1.56,1.28-2.83,2.83-2.83h1.53c1.56,0,2.83-1.28,2.83-2.83v-1.77c0-1.56-1.28-2.83-2.83-2.83h-8.73c-1.56,0-2.83,1.28-2.83,2.83v23.13c0,1.56-1.28,2.83-2.83,2.83h-1.53c-1.56,0-2.83-1.28-2.83-2.83v-30.33c0-1.56,1.28-2.83,2.83-2.83h8.73c1.56,0,2.83-1.28,2.83-2.83v-15.93c0-1.56-1.28-2.83-2.83-2.83h-1.53c-1.56,0-2.83,1.28-2.83,2.83v8.73c0,1.56-1.28,2.83-2.83,2.83h-15.93c-1.56,0-2.83-1.28-2.83-2.83v-15.93c0-1.56,1.28-2.83,2.83-2.83h15.93c1.56,0,2.83-1.28,2.83-2.83v-23.13c0-1.56-1.28-2.83-2.83-2.83h-1.53c-1.56,0-2.83,1.28-2.83,2.83v15.93c0,1.56-1.28,2.83-2.83,2.83h-8.73c-1.56,0-2.83-1.28-2.83-2.83v-1.53c0-1.56,1.28-2.83,2.83-2.83h1.53c1.56,0,2.83-1.28,2.83-2.83v-8.73c0-1.56-1.28-2.83-2.83-2.83h-8.73c-1.56,0-2.83,1.28-2.83,2.83v1.53c0,1.56-1.28,2.83-2.83,2.83h-1.53c-1.56,0-2.83-1.28-2.83-2.83v-8.73c0-1.56,1.28-2.83,2.83-2.83h15.93c1.56,0,2.83-1.28,2.83-2.83v-1.53c0-1.56-1.28-2.83-2.83-2.83h-23.13c-1.56,0-2.83,1.28-2.83,2.83v15.93c0,1.56-1.28,2.83-2.83,2.83h-15.93c-1.56,0-2.83-1.28-2.83-2.83v-15.93c0-1.56,1.28-2.83,2.83-2.83h8.73c1.56,0,2.83-1.28,2.83-2.83v-1.53c0-1.56-1.28-2.83-2.83-2.83h-15.93c-1.56,0-2.83,1.28-2.83,2.83v8.73c0,1.56-1.28,2.83-2.83,2.83h-30.33c-1.56,0-2.83-1.28-2.83-2.83v-1.53c0-1.56,1.28-2.83,2.83-2.83h23.13c1.56,0,2.83-1.28,2.83-2.83v-8.73c0-1.56-1.28-2.83-2.83-2.83h-1.53c-1.56,0-2.83,1.28-2.83,2.83v1.53c0,1.56-1.28,2.83-2.83,2.83h-15.93c-1.56,0-2.83-1.28-2.83-2.83v-1.53c0-1.56,1.28-2.83,2.83-2.83h1.53c1.56,0,2.83-1.28,2.83-2.83v-1.53c0-1.56-1.28-2.83-2.83-2.83h-23.13c-1.56,0-2.83,1.28-2.83,2.83v1.53c0,1.56,1.28,2.83,2.83,2.83h1.53c1.56,0,2.83,1.28,2.83,2.83v1.53c0,1.56-1.28,2.83-2.83,2.83h-15.93c-1.56,0-2.83-1.28-2.83-2.83v-1.53c0-1.56-1.28-2.83-2.83-2.83h-1.53c-1.56,0-2.83,1.28-2.83,2.83v8.73c0,1.56,1.28,2.83,2.83,2.83h23.13c1.56,0,2.83,1.28,2.83,2.83v1.53c0,1.56-1.28,2.83-2.83,2.83h-30.33c-1.56,0-2.83-1.28-2.83-2.83v-8.73c0-1.56-1.28-2.83-2.83-2.83h-15.93c-1.56,0-2.83,1.28-2.83,2.83v1.53c0,1.56,1.28,2.83,2.83,2.83h8.73c1.56,0,2.83,1.28,2.83,2.83v15.93c0,1.56-1.28,2.83-2.83,2.83h-15.93c-1.56,0-2.83-1.28-2.83-2.83v-15.93c0-1.56-1.28-2.83-2.83-2.83h-23.13c-1.56,0-2.83,1.28-2.83,2.83v1.53c0,1.56,1.28,2.83,2.83,2.83h15.93c1.56,0,2.83,1.28,2.83,2.83v8.73c0,1.56-1.28,2.83-2.83,2.83h-1.53c-1.56,0-2.83-1.28-2.83-2.83v-1.53c0-1.56-1.28-2.83-2.83-2.83h-8.73c-1.56,0-2.83,1.28-2.83,2.83v8.73c0,1.56,1.28,2.83,2.83,2.83h1.53c1.56,0,2.83,1.28,2.83,2.83v1.53c0,1.56-1.28,2.83-2.83,2.83h-8.73c-1.56,0-2.83-1.28-2.83-2.83v-15.93c0-1.56-1.28-2.83-2.83-2.83h-1.53c-1.56,0-2.83,1.28-2.83,2.83v23.13c0,1.56,1.28,2.83,2.83,2.83h15.93c1.56,0,2.83,1.28,2.83,2.83v15.93c0,1.56-1.28,2.83-2.83,2.83h-15.93c-1.56,0-2.83-1.28-2.83-2.83v-8.73c0-1.56-1.28-2.83-2.83-2.83h-1.53c-1.56,0-2.83,1.28-2.83,2.83v15.93c0,1.56,1.28,2.83,2.83,2.83h8.73c1.56,0,2.83,1.28,2.83,2.83v30.33c0,1.56-1.28,2.83-2.83,2.83h-1.53c-1.56,0-2.83-1.28-2.83-2.83v-23.13c0-1.56-1.28-2.83-2.83-2.83h-8.73c-1.56,0-2.83,1.28-2.83,2.83v1.53c0,1.56,1.28,2.83,2.83,2.83h1.53c1.56,0,2.83,1.28,2.83,2.83v15.93c0,1.56-1.28,2.83-2.83,2.83h-1.53c-1.56,0-2.83-1.28-2.83-2.83v-1.53c0-1.56-1.28-2.83-2.83-2.83h-1.53c-1.56,0-2.83,1.28-2.83,2.83v23.13c0,1.56,1.28,2.83,2.83,2.83h1.53c1.56,0,2.83-1.28,2.83-2.83v-1.53c0-1.56,1.28-2.83,2.83-2.83h1.53c1.56,0,2.83,1.28,2.83,2.83v15.93c0,1.56-1.28,2.83-2.83,2.83h-1.53c-1.56,0-2.83,1.28-2.83,2.83v1.53c0,1.56,1.28,2.83,2.83,2.83h8.73c1.56,0,2.83-1.28,2.83-2.83v-23.13c0-1.56,1.28-2.83,2.83-2.83h1.53c1.56,0,2.83,1.28,2.83,2.83v30.33c0,1.56-1.28,2.83-2.83,2.83h-8.73c-1.56,0-2.83,1.28-2.83,2.83v15.93c0,1.56,1.28,2.83,2.83,2.83h1.53c1.56,0,2.83-1.28,2.83-2.83v-8.73c0-1.56,1.28-2.83,2.83-2.83h15.93c1.56,0,2.83,1.28,2.83,2.83v15.93c0,1.56-1.28,2.83-2.83,2.83h-15.93c-1.56,0-2.83,1.28-2.83,2.83v23.13c0,1.56,1.28,2.83,2.83,2.83h1.53c1.56,0,2.83-1.28,2.83-2.83v-15.93c0-1.56,1.28-2.83,2.83-2.83h8.73c1.56,0,2.83,1.28,2.83,2.83v1.53c0,1.56-1.28,2.83-2.83,2.83h-1.53c-1.56,0-2.83,1.28-2.83,2.83v8.73c0,1.56,1.28,2.83,2.83,2.83h8.73c1.56,0,2.83-1.28,2.83-2.83v-1.53c0-1.56,1.28-2.83,2.83-2.83h1.53c1.56,0,2.83,1.28,2.83,2.83v8.73c0,1.56-1.28,2.83-2.83,2.83h-15.93c-1.56,0-2.83,1.28-2.83,2.83v1.53c0,1.56,1.28,2.83,2.83,2.83h23.13c1.56,0,2.83-1.28,2.83-2.83v-15.93c0-1.56,1.28-2.83,2.83-2.83h15.93c1.56,0,2.83,1.28,2.83,2.83v15.93c0,1.56-1.28,2.83-2.83,2.83h-8.73c-1.56,0-2.83,1.28-2.83,2.83v1.53c0,1.56,1.28,2.83,2.83,2.83h15.93c1.56,0,2.83-1.28,2.83-2.83v-8.73c0-1.56,1.28-2.83,2.83-2.83h30.33c1.56,0,2.83,1.28,2.83,2.83v1.53c0,1.56-1.28,2.83-2.83,2.83h-23.13c-1.56,0-2.83,1.28-2.83,2.83v8.73c0,1.56,1.28,2.83,2.83,2.83h1.53c1.56,0,2.83-1.28,2.83-2.83v-1.53c0-1.56,1.28-2.83,2.83-2.83h15.93c1.56,0,2.83,1.28,2.83,2.83v1.53c0,1.56-1.28,2.83-2.83,2.83h-1.53c-1.56,0-2.83,1.28-2.83,2.83v1.53c0,1.56,1.28,2.83,2.83,2.83h23.13c1.56,0,2.83-1.28,2.83-2.83v-1.53c0-1.56-1.28-2.83-2.83-2.83h-1.53c-1.56,0-2.83-1.28-2.83-2.83v-1.53c0-1.56,1.28-2.83,2.83-2.83h15.93c1.56,0,2.83,1.28,2.83,2.83v1.53c0,1.56,1.28,2.83,2.83,2.83h1.53c1.56,0,2.83-1.28,2.83-2.83v-8.73c0-1.56-1.28-2.83-2.83-2.83h-23.13c-1.56,0-2.83-1.28-2.83-2.83v-1.53c0-1.56,1.28-2.83,2.83-2.83h30.33c1.56,0,2.83,1.28,2.83,2.83v8.73c0,1.56,1.28,2.83,2.83,2.83h15.93c1.56,0,2.83-1.28,2.83-2.83v-1.53c0-1.56-1.28-2.83-2.83-2.83h-8.73c-1.56,0-2.83-1.28-2.83-2.83v-15.93c0-1.56,1.28-2.83,2.83-2.83h15.93c1.56,0,2.83,1.28,2.83,2.83v15.93c0,1.56,1.28,2.83,2.83,2.83h23.13c1.56,0,2.83-1.28,2.83-2.83v-1.53c0-1.56-1.28-2.83-2.83-2.83h-15.93c-1.56,0-2.83-1.28-2.83-2.83v-8.73c0-1.56,1.28-2.83,2.83-2.83h1.53c1.56,0,2.83,1.28,2.83,2.83v1.53c0,1.56,1.28,2.83,2.83,2.83h8.73c1.56,0,2.83-1.28,2.83-2.83v-8.73c0-1.56-1.28-2.83-2.83-2.83h-1.53c-1.56,0-2.83-1.28-2.83-2.83v-1.53c0-1.56,1.28-2.83,2.83-2.83h8.73c1.56,0,2.83,1.28,2.83,2.83v15.93c0,1.56,1.28,2.83,2.83,2.83h1.53c1.56,0,2.83-1.28,2.83-2.83v-23.13c0-1.56-1.28-2.83-2.83-2.83h-15.93c-1.56,0-2.83-1.28-2.83-2.83v-15.93c0-1.56,1.28-2.83,2.83-2.83h15.93c1.56,0,2.83,1.28,2.83,2.83v8.73c0,1.56,1.28,2.83,2.83,2.83h1.53c1.56,0,2.83-1.28,2.83-2.83v-15.93c0-1.56-1.28-2.83-2.83-2.83h-8.73c-1.56,0-2.83-1.28-2.83-2.83v-30.33c0-1.56,1.28-2.83,2.83-2.83h1.53c1.56,0,2.83,1.28,2.83,2.83v23.13c0,1.56,1.28,2.83,2.83,2.83h8.73c1.56,0,2.83-1.28,2.83-2.83v-1.53c0-1.56-1.28-2.83-2.83-2.83h-1.53c-1.56,0-2.83-1.28-2.83-2.83v-15.93c0-1.56,1.28-2.83,2.83-2.83h1.53c1.56,0,2.83,1.28,2.83,2.83v1.53c0,1.56,1.28,2.83,2.83,2.83h1.53c1.56,0,2.83-1.28,2.83-2.83v-23.13c0-1.56-1.28-2.83-2.83-2.83h-1.53ZM65.3,220.87c0,1.56-1.28,2.83-2.83,2.83h-8.73c-1.56,0-2.83-1.28-2.83-2.83v-8.73c0-1.56,1.28-2.83,2.83-2.83h1.53c1.56,0,2.83,1.28,2.83,2.83v1.53c0,1.56,1.28,2.83,2.83,2.83h1.53c1.56,0,2.83,1.28,2.83,2.83v1.53ZM65.3,55.27c0,1.56-1.28,2.83-2.83,2.83h-1.53c-1.56,0-2.83,1.28-2.83,2.83v1.53c0,1.56-1.28,2.83-2.83,2.83h-1.53c-1.56,0-2.83-1.28-2.83-2.83v-8.73c0-1.56,1.28-2.83,2.83-2.83h8.73c1.56,0,2.83,1.28,2.83,2.83v1.53ZM223.7,220.87c0,1.56-1.28,2.83-2.83,2.83h-8.73c-1.56,0-2.83-1.28-2.83-2.83v-1.53c0-1.56,1.28-2.83,2.83-2.83h1.53c1.56,0,2.83-1.28,2.83-2.83v-1.53c0-1.56,1.28-2.83,2.83-2.83h1.53c1.56,0,2.83,1.28,2.83,2.83v8.73ZM223.7,62.47c0,1.56-1.28,2.83-2.83,2.83h-1.53c-1.56,0-2.83-1.28-2.83-2.83v-1.53c0-1.56-1.28-2.83-2.83-2.83h-1.53c-1.56,0-2.83-1.28-2.83-2.83v-1.53c0-1.56,1.28-2.83,2.83-2.83h8.73c1.56,0,2.83,1.28,2.83,2.83v8.73Z" fill="none" stroke="#000" stroke-miterlimit="10" stroke-width="1"/>
  </g>
</svg>