<?xml version="1.0" encoding="UTF-8"?>
<svg id="Layer_2" data-name="Layer 2" xmlns="http://www.w3.org/2000/svg" viewBox="0 0 277.85 277.85">
  <g id="Layer_1-2" data-name="Layer 1-2">
    <path d="M261.32,54.06v-3.06c0-3.13-2.53-5.67-5.67-5.67h-3.06c-3.13,0-5.67,2.54-5.67,5.67v3.06c0,3.14-2.53,5.67-5.67,5.67h-60.66c-3.13,0-5.67,2.54-5.67,5.67v46.26c0,3.14,2.54,5.67,5.67,5.67h3.06c3.14,0,5.67-2.53,5.67-5.67v-31.86c0-3.13,2.54-5.67,5.67-5.67h60.66c3.14,0,5.67,2.54,5.67,5.67v3.06c0,3.14-2.53,5.67-5.67,5.67h-46.26c-3.13,0-5.67,2.54-5.67,5.67v3.06c0,3.14,2.54,5.67,5.67,5.67h60.66c3.14,0,5.67,2.54,5.67,5.67v17.46c0,3.14-2.53,5.67-5.67,5.67h-3.06c-3.13,0-5.67-2.53-5.67-5.67v-3.06c0-3.13-2.53-5.67-5.67-5.67h-46.26c-3.13,0-5.67,2.54-5.67,5.67v3.06c0,3.14,2.54,5.67,5.67,5.67h17.46c3.14,0,5.67,2.54,5.67,5.67v3.06c0,3.14-2.53,5.67-5.67,5.67h-17.46c-3.13,0-5.67,2.54-5.67,5.67v3.06c0,3.14,2.54,5.67,5.67,5.67h46.26c3.14,0,5.67-2.53,5.67-5.67v-3.06c0-3.13,2.54-5.67,5.67-5.67h3.06c3.14,0,5.67,2.54,5.67,5.67v17.46c0,3.14-2.53,5.67-5.67,5.67h-60.66c-3.13,0-5.67,2.54-5.67,5.67v3.06c0,3.14,2.54,5.67,5.67,5.67h46.26c3.14,0,5.67,2.54,5.67,5.67v3.06c0,3.14-2.53,5.67-5.67,5.67h-60.66c-3.13,0-5.67-2.53-5.67-5.67v-31.86c0-3.13-2.53-5.67-5.67-5.67h-3.06c-3.13,0-5.67,2.54-5.67,5.67v46.26c0,3.14,2.54,5.67,5.67,5.67h60.66c3.14,0,5.67,2.54,5.67,5.67v3.06c0,3.14,2.54,5.67,5.67,5.67h3.06c3.14,0,5.67-2.53,5.67-5.67v-3.06c0-3.13,2.54-5.67,5.67-5.67h3.06c3.14,0,5.67,2.54,5.67,5.67v17.46c0,3.14-2.53,5.67-5.67,5.67h-17.46c-3.13,0-5.67,2.54-5.67,5.67v3.06c0,3.14-2.53,5.67-5.67,5.67h-46.26c-3.13,0-5.67,2.54-5.67,5.67v3.06c0,3.14-2.53,5.67-5.67,5.67h-89.46c-3.13,0-5.67-2.53-5.67-5.67v-3.06c0-3.13-2.53-5.67-5.67-5.67h-46.26c-3.13,0-5.67-2.53-5.67-5.67v-3.06c0-3.13-2.53-5.67-5.67-5.67H7.8c-3.13,0-5.67-2.53-5.67-5.67v-17.46c0-3.13,2.54-5.67,5.67-5.67h3.06c3.14,0,5.67,2.54,5.67,5.67v3.06c0,3.14,2.54,5.67,5.67,5.67h3.06c3.14,0,5.67-2.53,5.67-5.67v-3.06c0-3.13,2.54-5.67,5.67-5.67h60.66c3.14,0,5.67-2.53,5.67-5.67v-46.26c0-3.13-2.53-5.67-5.67-5.67h-3.06c-3.13,0-5.67,2.54-5.67,5.67v31.86c0,3.14-2.53,5.67-5.67,5.67H22.2c-3.13,0-5.67-2.53-5.67-5.67v-3.06c0-3.13,2.54-5.67,5.67-5.67h46.26c3.14,0,5.67-2.53,5.67-5.67v-3.06c0-3.13-2.53-5.67-5.67-5.67H7.8c-3.13,0-5.67-2.53-5.67-5.67v-17.46c0-3.13,2.54-5.67,5.67-5.67h3.06c3.14,0,5.67,2.54,5.67,5.67v3.06c0,3.14,2.54,5.67,5.67,5.67h46.26c3.14,0,5.67-2.53,5.67-5.67v-3.06c0-3.13-2.53-5.67-5.67-5.67h-17.46c-3.13,0-5.67-2.53-5.67-5.67v-3.06c0-3.13,2.54-5.67,5.67-5.67h17.46c3.14,0,5.67-2.53,5.67-5.67v-3.06c0-3.13-2.53-5.67-5.67-5.67H22.2c-3.13,0-5.67,2.54-5.67,5.67v3.06c0,3.14-2.53,5.67-5.67,5.67h-3.06c-3.13,0-5.67-2.53-5.67-5.67v-17.46c0-3.13,2.54-5.67,5.67-5.67h60.66c3.14,0,5.67-2.53,5.67-5.67v-3.06c0-3.13-2.53-5.67-5.67-5.67H22.2c-3.13,0-5.67-2.53-5.67-5.67v-3.06c0-3.13,2.54-5.67,5.67-5.67h60.66c3.14,0,5.67,2.54,5.67,5.67v31.86c0,3.14,2.54,5.67,5.67,5.67h3.06c3.14,0,5.67-2.53,5.67-5.67v-46.26c0-3.13-2.53-5.67-5.67-5.67h-60.66c-3.13,0-5.67-2.53-5.67-5.67v-3.06c0-3.13-2.53-5.67-5.67-5.67h-3.06c-3.13,0-5.67,2.54-5.67,5.67v3.06c0,3.14-2.53,5.67-5.67,5.67h-3.06c-3.13,0-5.67-2.53-5.67-5.67v-17.46c0-3.13,2.54-5.67,5.67-5.67h17.46c3.14,0,5.67-2.53,5.67-5.67V7.8c0-3.13,2.54-5.67,5.67-5.67h204.66c3.14,0,5.67,2.54,5.67,5.67v17.46c0,3.14,2.54,5.67,5.67,5.67h17.46c3.14,0,5.67,2.54,5.67,5.67v17.46c0,3.14-2.53,5.67-5.67,5.67h-3.06c-3.13,0-5.67-2.53-5.67-5.67Z" fill="#c7be7d" stroke="#000" stroke-linecap="round" stroke-linejoin="round" stroke-width="4.25"/>
  </g>
</svg>