# Blender 4.4.3
# www.blender.org
mtllib forest.mtl
o Plane
o cube
v -111.450012 33.999996 -111.531807
v -111.450012 33.999996 -95.531807
v -111.449997 15.999998 -79.531807
v -111.449997 9.000001 -63.531815
v -111.449997 9.000000 -47.531815
v -111.449997 29.999998 -31.531816
v -111.449997 29.999998 -15.531816
v -111.449997 15.999998 0.468184
v -111.449997 47.999996 16.468182
v -111.449997 47.999996 32.468182
v -111.449997 34.999996 48.468182
v -111.449997 34.999996 64.468201
v -111.449997 15.999998 80.468201
v -111.449997 24.999998 96.468201
v -111.449989 24.999996 112.468201
v -95.450012 33.999996 -111.531807
v -95.450012 33.999996 -95.531807
v -95.449997 16.000000 -79.531807
v -95.449997 9.000001 -63.531815
v -95.449997 9.000000 -47.531815
v -95.449997 29.999998 -31.531816
v -95.449997 29.999998 -15.531816
v -95.449997 16.000000 0.468184
v -95.449997 47.999996 16.468182
v -95.449997 47.999996 32.468182
v -95.449997 34.999996 48.468182
v -95.449997 34.999996 64.468201
v -95.449997 16.000000 80.468201
v -95.449997 36.999996 96.468201
v -95.449989 24.999998 112.468201
v -79.450012 18.000000 -111.531815
v -79.450012 17.999998 -95.531815
v -79.449997 0.000001 -79.531815
v -79.449997 0.000001 -63.531815
v -79.449997 0.000001 -47.531815
v -79.449997 0.000000 -31.531815
v -79.449997 0.000001 -15.531815
v -79.449997 0.000001 0.468185
v -79.449997 0.000001 16.468185
v -79.449997 0.000001 32.468185
v -79.449997 0.000001 48.468185
v -79.449997 0.000001 64.468185
v -79.449989 0.000001 80.468185
v -79.449997 25.000000 96.468185
v -79.449989 24.999998 112.468185
v -63.450012 18.000002 -111.531815
v -63.450012 18.000000 -95.531815
v -63.450012 0.000001 -79.531815
v -63.449997 0.000001 -63.531815
v -63.449997 0.000001 -47.531815
v -63.449997 0.000000 -31.531815
v -63.449997 0.000001 -15.531815
v -63.450001 0.000001 0.468185
v -63.450001 0.000001 16.468185
v -63.449997 0.000001 32.468185
v -63.449997 0.000001 48.468185
v -63.449997 0.000001 64.468185
v -63.449997 0.000001 80.468185
v -63.449997 9.000000 96.468185
v -63.449997 9.000000 112.468185
v -47.450012 52.999996 -111.531822
v -47.450012 52.999996 -95.531822
v -47.450005 0.000001 -79.531815
v -47.449997 0.000001 -63.531815
v -47.449997 6.000000 -47.531815
v -47.449997 6.000000 -31.531816
v -47.450001 0.000001 -15.531815
v -47.450001 0.000001 0.468185
v -47.450001 0.000001 16.468185
v -47.449997 0.000001 32.468185
v -47.449997 0.000001 48.468185
v -47.449997 0.000001 64.468185
v -47.449997 0.000001 80.468185
v -47.449997 9.000001 96.468185
v -47.449997 9.000001 112.468185
v -31.450012 52.999996 -111.531822
v -31.450005 52.999996 -95.531822
v -31.450005 0.000001 -79.531815
v -31.450005 6.000000 -63.531818
v -31.450005 12.000000 -47.531818
v -31.450005 6.000000 -31.531816
v -31.450001 6.000000 -15.531816
v -31.450001 6.000000 0.468185
v -31.449999 22.999998 16.468182
v -31.449999 22.999998 32.468178
v -31.449997 0.000001 48.468185
v -31.449997 0.000001 64.468185
v -31.449997 0.000001 80.468185
v -31.449997 24.999998 96.468185
v -31.449997 24.999996 112.468185
v -15.450012 -0.999999 -114.531815
v -15.450005 4.000000 -95.531815
v -15.450005 0.000001 -79.531815
v -14.450005 1.000001 -61.531818
v -14.450005 1.000001 -45.531818
v -15.450005 0.000000 -31.531818
v -14.450001 1.000001 -12.531817
v -14.450001 1.000001 1.468181
v -15.449999 1.000001 16.468182
v -15.449999 1.000001 32.468182
v -15.449997 0.000001 48.468185
v -15.449997 0.000001 64.468185
v -15.449997 0.000001 80.468185
v -14.449997 -0.999999 109.468185
v 0.549995 0.000001 -117.531815
v 0.549995 0.000001 -79.531815
v 0.549995 -7.999998 -63.531818
v 0.549999 -7.999999 -47.531818
v 0.549999 0.000000 -31.531818
v 0.549999 0.000001 -15.531818
v 0.550000 0.000001 0.468182
v 0.550001 0.000001 16.468182
v 0.550003 0.000001 32.468182
v 0.550003 0.000001 48.468182
v 0.550003 0.000001 64.468185
v 0.550003 0.000001 80.468185
v 1.550003 -0.999999 109.468185
v 16.549995 0.000001 -117.531815
v 16.549995 0.000001 -79.531815
v 16.549995 -7.999996 -63.531815
v 16.549997 -7.999997 -47.531818
v 16.549999 -5.999998 -31.531822
v 16.549997 -6.999996 -15.531818
v 16.549999 0.000001 0.468181
v 16.550003 0.000001 16.468182
v 16.550003 0.000001 32.468182
v 16.550003 0.000001 48.468182
v 16.550003 0.000001 64.468185
v 16.550003 0.000001 80.468185
v 17.550003 -0.999999 109.468185
v 32.549995 22.000000 -111.531815
v 32.549995 22.000000 -95.531815
v 32.549995 0.000001 -79.531815
v 32.549999 0.000001 -63.531815
v 32.549999 0.000001 -47.531815
v 32.549999 0.000000 -31.531822
v 32.549999 -3.999999 -15.531818
v 32.549999 0.000001 0.468180
v 32.549999 4.000000 16.468180
v 32.550003 4.000000 32.468182
v 32.550003 15.000000 48.468182
v 32.550003 14.999999 64.468185
v 32.550003 0.000001 80.468185
v 32.550003 34.999996 96.468185
v 32.550003 34.999996 112.468185
v 48.549995 22.000000 -111.531815
v 48.549995 22.000000 -95.531815
v 48.549995 0.000001 -79.531815
v 48.549999 0.000001 -63.531822
v 48.549999 0.000001 -47.531822
v 48.549999 1.000000 -31.531822
v 48.549999 6.000000 -15.531818
v 48.549999 5.000000 0.468181
v 48.550003 4.000000 16.468180
v 48.550003 4.000000 32.468178
v 48.550003 15.000000 48.468178
v 48.550003 14.999999 64.468185
v 48.550003 0.000001 80.468185
v 48.550003 34.999996 96.468185
v 48.550003 34.999996 112.468185
v 64.549995 34.000000 -111.531815
v 64.549995 34.000000 -95.531815
v 64.550003 0.000001 -79.531815
v 64.550003 0.000001 -63.531822
v 64.550003 0.000001 -47.531822
v 64.550003 2.000000 -31.531822
v 64.550003 8.000001 -15.531823
v 64.550003 6.000000 0.468177
v 64.550003 0.000001 16.468178
v 64.550003 0.000001 32.468178
v 64.550003 0.000001 48.468178
v 64.550003 0.000001 64.468185
v 64.550018 0.000001 80.468185
v 64.550018 11.000000 96.468185
v 64.550018 11.000000 112.468185
v 80.549995 33.999996 -111.531815
v 80.549995 33.999996 -95.531815
v 80.550003 0.000001 -79.531815
v 80.550003 0.000001 -63.531830
v 80.550003 0.000001 -47.531822
v 80.550003 1.000000 -31.531822
v 80.550003 2.000001 -15.531822
v 80.550003 1.000001 0.468178
v 80.550003 0.000001 16.468178
v 80.550003 0.000001 32.468178
v 80.550003 0.000001 48.468178
v 80.550003 0.000001 64.468185
v 80.550018 0.000001 80.468185
v 80.550018 11.000001 96.468185
v 80.550018 11.000000 112.468185
v 96.549995 26.000000 -111.531830
v 96.549995 38.999996 -95.531830
v 96.549995 38.999996 -79.531830
v 96.549995 25.999998 -63.531834
v 96.550003 26.000000 -47.531834
v 96.550003 17.000000 -31.531824
v 96.550003 16.999998 -15.531823
v 96.550003 26.000000 0.468176
v 96.550003 26.000000 16.468176
v 96.550003 11.000000 32.468178
v 96.550003 11.000000 48.468178
v 96.550003 26.000000 64.468178
v 96.550003 25.999998 80.468178
v 96.550003 25.000000 96.468178
v 96.550018 24.999998 112.468178
v 112.549995 26.000000 -111.531830
v 112.549995 38.999996 -95.531830
v 112.549995 38.999996 -79.531830
v 112.549995 25.999998 -63.531834
v 112.550003 26.000000 -47.531834
v 112.550003 17.000002 -31.531832
v 112.550003 17.000000 -15.531823
v 112.550003 26.000000 0.468176
v 112.550003 26.000002 16.468176
v 112.550003 11.000000 32.468178
v 112.550003 11.000000 48.468178
v 112.550003 26.000002 64.468178
v 112.550003 26.000000 80.468178
v 112.550003 25.000000 96.468178
v 112.550018 25.000000 112.468178
vn -0.0000 1.0000 -0.0000
vn -0.0000 0.6644 0.7474
vn -0.0000 0.9162 0.4008
vn -0.0000 0.6060 -0.7954
vn -0.0000 0.7526 0.6585
vn -0.0000 0.4472 -0.8944
vn -0.0000 0.7761 0.6306
vn -0.0000 0.6441 0.7649
vn -0.5471 0.7295 -0.4104
vn -0.5472 0.7295 -0.4104
vn -0.5471 0.7296 -0.4104
vn -0.5472 0.7295 -0.4103
vn -0.0000 1.0000 -0.0001
vn 0.0001 1.0000 -0.0000
vn 0.7071 0.7071 -0.0000
vn 0.5534 0.5534 0.6225
vn 0.4581 0.8144 0.3562
vn 0.4581 0.8144 0.3563
vn 0.4582 0.8144 0.3562
vn 0.4903 0.8716 -0.0000
vn 0.7507 0.4005 -0.5254
vn 0.7507 0.4004 -0.5255
vn 0.7507 0.4004 -0.5254
vn 0.7507 0.4003 -0.5256
vn 0.8824 0.4706 -0.0000
vn 0.6014 0.6013 0.5261
vn 0.6013 0.6013 0.5262
vn 0.6012 0.6014 0.5262
vn 0.8018 0.2673 -0.5345
vn 0.8018 0.2672 -0.5346
vn 0.9487 0.3162 -0.0000
vn 0.8617 0.3939 0.3200
vn 0.8616 0.3939 0.3200
vn 0.8617 0.3939 0.3199
vn 0.9095 0.4158 -0.0000
vn 0.5416 0.5415 0.6430
vn 0.5415 0.5415 0.6431
vn 0.5415 0.5415 0.6430
vn 0.5414 0.5416 0.6431
vn 0.4138 0.5517 -0.7241
vn 0.4138 0.5517 -0.7242
vn -0.0000 0.8000 0.6000
vn -0.0000 0.8000 0.6001
vn -0.0001 0.8000 0.6000
vn -0.0001 0.6643 0.7474
vn 0.4745 0.4746 -0.7414
vn 0.4745 0.4745 -0.7414
vn 0.4746 0.4744 -0.7414
vn -0.9095 0.4158 -0.0000
vn -0.0001 0.6643 0.7475
vn 0.0001 0.6644 0.7474
vn -0.3511 0.9364 -0.0001
vn -0.3511 0.9363 -0.0000
vn -0.3511 0.9363 -0.0001
vn -0.0001 1.0000 0.0001
vn -0.0000 0.8716 -0.4903
vn -0.0000 0.2890 0.9573
vn 0.0107 0.2939 0.9558
vn -0.3313 0.8835 -0.3313
vn -0.3312 0.8835 0.3312
vn -0.3313 0.8835 0.3313
vn -0.3313 0.8834 0.3313
vn -0.8209 0.5711 -0.0001
vn -0.8209 0.5711 -0.0000
vn -0.0000 0.5710 0.8209
vn -0.0000 0.5711 0.8209
vn 0.1135 0.6561 0.7461
vn -0.0001 0.5711 0.8209
vn -0.0177 0.9636 -0.2667
vn -0.6570 0.6571 -0.3696
vn -0.6570 0.6570 -0.3696
vn -0.6571 0.6570 -0.3695
vn -0.7071 0.7071 -0.0000
vn 0.9506 0.3104 -0.0000
vn 0.9549 0.2871 -0.0756
vn 0.2711 0.3758 0.8861
vn 0.2595 0.5879 0.7662
vn 0.1534 0.9680 -0.1986
vn 0.3019 0.8926 -0.3347
vn 0.1608 0.9653 -0.2055
vn -0.0000 0.9985 -0.0555
vn 0.5850 0.7490 -0.3111
vn 0.5433 0.7861 -0.2948
vn 0.5532 0.7766 -0.3015
vn 0.5845 0.7490 -0.3122
vn 0.4259 0.8750 0.2303
vn 0.3313 0.8835 0.3313
vn 0.4490 0.8700 0.2036
vn 0.5325 0.8407 0.0981
vn 0.0633 0.9782 0.1980
vn 0.2822 0.9594 -0.0000
vn 0.0611 0.9824 0.1767
vn -0.1711 0.9030 0.3942
vn 0.3846 0.9196 -0.0804
vn 0.3715 0.9234 -0.0962
vn 0.4605 0.8721 -0.1654
vn 0.7346 0.3668 -0.5708
vn 0.6858 0.4988 -0.5300
vn 0.7322 0.4476 -0.5134
vn 0.7652 0.3139 -0.5621
vn 0.4799 0.8248 0.2990
vn 0.8087 0.5882 -0.0000
vn 0.5304 0.7554 0.3848
vn 0.0783 0.7972 0.5987
vn 0.2660 0.9064 0.3282
vn 0.3618 0.9224 0.1352
vn 0.0116 0.9873 -0.1583
vn -0.0000 0.5391 -0.8423
vn 0.8370 0.5472 -0.0000
vn 0.8393 0.5436 -0.0102
vn 0.4445 0.8663 -0.2280
vn 0.3456 0.9316 -0.1127
vn 0.1578 0.9835 0.0881
vn -0.0624 0.9981 -0.0000
vn -0.0000 0.9701 0.2425
vn 0.5328 0.8283 -0.1732
vn 0.5056 0.8595 -0.0758
vn 0.5919 0.7810 -0.1996
vn 0.6337 0.7243 -0.2717
vn 0.5145 0.8575 -0.0000
vn -0.1437 0.9791 0.1440
vn -0.0000 0.9975 0.0712
vn -0.1087 0.9761 0.1880
vn -0.1375 0.9203 0.3663
vn 0.2501 0.9282 -0.2755
vn 0.0554 0.9969 -0.0554
vn 0.2688 0.9262 -0.2644
vn 0.4402 0.7825 -0.4403
vn -0.0069 0.9969 0.0784
vn 0.0665 0.9978 -0.0000
vn -0.0085 0.9955 0.0942
vn -0.0695 0.9801 0.1857
vn 0.2607 0.9213 -0.2886
vn 0.0624 0.9981 -0.0000
vn 0.3740 0.8818 -0.2872
vn 0.5564 0.6310 -0.5406
vn -0.3600 0.8733 0.3282
vn -0.4475 0.3548 0.8209
vn 0.0011 0.9988 0.0493
vn -0.0000 0.9994 0.0345
vn 0.0383 0.9608 0.2746
vn -0.0147 0.9790 0.2034
vn -0.0000 0.8944 0.4472
vn 0.3180 0.8481 -0.4239
vn 0.3180 0.8480 -0.4240
vn 0.3179 0.8481 -0.4239
vn 0.4008 0.9162 -0.0000
vn 0.0001 1.0000 -0.0001
vn -0.0000 1.0000 0.0001
vn -0.1333 0.9908 0.0219
vn -0.5715 0.8192 0.0480
vn -0.8087 0.5882 -0.0000
vn -0.2886 0.7205 0.6306
vn 0.1747 0.9575 0.2295
vn -0.1249 0.1885 0.9741
vn -0.4082 0.8165 0.4082
vn -0.4082 0.8166 0.4082
vn -0.4472 0.8944 -0.0000
vn -0.3488 0.9300 -0.1162
vn -0.3487 0.9300 -0.1162
vn -0.1840 0.9810 0.0614
vn -0.1839 0.9810 0.0613
vn -0.0001 0.9162 -0.4008
vn -0.0000 0.9162 -0.4008
vn -0.2425 0.9702 -0.0001
vn -0.2425 0.9701 -0.0000
vn -0.2425 0.9702 -0.0000
vn -0.6839 0.7296 -0.0001
vn -0.6839 0.7295 -0.0000
vn -0.6839 0.7295 0.0001
vn -0.2583 0.5894 -0.7655
vn -0.8320 0.5074 -0.2242
vn -0.3192 0.5108 -0.7982
vn -0.9235 0.3810 0.0450
vn -0.0000 0.5882 0.8087
vn -0.0001 0.5881 0.8088
vn -0.0623 0.9981 -0.0000
vn -0.5184 0.8296 0.2073
vn -0.5185 0.8296 0.2074
vn -0.5185 0.8295 0.2075
vn -0.2902 0.9284 -0.2320
vn -0.2901 0.9284 -0.2321
vn -0.0001 0.9702 -0.2425
vn -0.0000 0.9701 -0.2425
vn -0.0000 0.9702 -0.2425
vn -0.0000 0.8240 -0.5665
vn -0.0000 0.7295 0.6839
vn 0.0001 0.7296 0.6839
vn -0.0000 0.4158 -0.9095
vn -0.6000 0.8000 -0.0000
vn -0.0000 0.5881 0.8088
vn -0.0622 0.9961 -0.0623
vn -0.0623 0.9961 -0.0623
vn -0.1185 0.9478 -0.2962
vn -0.1184 0.9478 -0.2962
vn -0.0623 0.9961 0.0623
vn 0.2420 0.9684 0.0606
vn 0.2421 0.9684 0.0605
vn 0.2420 0.9684 0.0605
vn 0.2425 0.9701 -0.0000
vn 0.6113 0.6522 -0.4483
vn 0.6114 0.6521 -0.4483
vn 0.6114 0.6521 -0.4484
vn 0.6839 0.7295 -0.0000
vn -0.0000 0.7296 0.6839
vn -0.0000 0.7295 0.6840
vn 0.5291 0.3528 -0.7717
vn 0.5292 0.3528 -0.7717
vn 0.5291 0.3529 -0.7717
vn 0.5292 0.3527 -0.7717
vn 0.8321 0.5547 -0.0000
vn 0.8320 0.5547 -0.0000
vn -0.0000 0.4258 0.9048
vn 0.0619 0.9904 -0.1238
vn 0.3313 0.8835 -0.3312
vn 0.3313 0.8835 -0.3313
vn 0.3312 0.8835 -0.3313
vn 0.2962 0.9478 0.1185
vn 0.0001 0.9364 0.3511
vn -0.0000 0.9363 0.3511
vn 0.0001 0.9364 0.3510
vn 0.0001 0.9363 0.3511
vn -0.2983 0.9545 -0.0000
vn -0.2982 0.9545 -0.0000
vn -0.7201 0.2955 0.6278
vn -0.7201 0.2954 0.6278
vn -0.7201 0.2955 0.6279
vn -0.8517 0.5241 0.0001
vn -0.8517 0.5241 -0.0000
vn -0.7065 0.7064 -0.0441
vn -0.7064 0.7064 -0.0442
vn -0.7064 0.7064 -0.0441
vn -0.6832 0.7288 -0.0456
vn -0.6832 0.7288 -0.0455
vn -0.8418 0.5388 0.0336
vn -0.8418 0.5387 0.0337
vn -0.8418 0.5388 0.0337
vn -0.8512 0.5238 0.0327
vn -0.5666 0.8240 0.0001
vn -0.5665 0.8240 -0.0000
vn -0.5666 0.8240 -0.0000
vn -0.8516 0.5241 -0.0001
vn -0.5849 0.6684 -0.4595
vn -0.5848 0.6684 -0.4596
vn -0.6585 0.7526 -0.0000
vn -0.0000 0.7761 -0.6306
vn -0.0000 0.8716 0.4903
vn -0.0000 0.7295 -0.6839
vn -0.0000 0.9981 0.0624
vn 0.0359 0.9989 0.0290
vn 0.0624 0.9980 0.0042
vn 0.0357 0.9988 0.0327
vn 0.0126 0.9980 0.0613
vt 4.000000 1.000000
vt 0.000000 1.000000
vt 0.000000 -3.000000
vt 4.000000 -3.000000
s 1
usemtl m_0d6948d6-45c5-c148-53c1-afc132db9892
f 1/1/1 2/2/1 17/3/1
f 1/1/1 17/3/1 16/4/1
f 2/1/2 3/2/2 18/3/2
f 2/1/2 18/3/2 17/4/2
f 3/1/3 4/2/3 19/3/3
f 3/1/3 19/3/3 18/4/3
f 4/1/1 5/2/1 20/3/1
f 4/1/1 20/3/1 19/4/1
f 5/1/4 6/2/4 21/3/4
f 5/1/4 21/3/4 20/4/4
f 6/1/1 7/2/1 22/3/1
f 6/1/1 22/3/1 21/4/1
f 7/1/5 8/2/5 23/3/5
f 7/1/5 23/3/5 22/4/5
f 8/1/6 9/2/6 24/3/6
f 8/1/6 24/3/6 23/4/6
f 9/1/1 10/2/1 25/3/1
f 9/1/1 25/3/1 24/4/1
f 10/1/7 11/2/7 26/3/7
f 10/1/7 26/3/7 25/4/7
f 11/1/1 12/2/1 27/3/1
f 11/1/1 27/3/1 26/4/1
f 12/1/8 13/2/8 28/3/8
f 12/1/8 28/3/8 27/4/8
f 13/1/9 14/2/10 29/3/11
f 13/1/9 29/3/11 28/4/12
f 14/1/1 15/2/1 30/3/1
f 14/1/13 30/3/14 29/4/13
f 16/1/15 17/2/15 32/3/15
f 16/1/15 32/3/15 31/4/15
f 17/1/16 18/2/16 33/3/16
f 17/1/16 33/3/16 32/4/16
f 18/1/17 19/2/18 34/3/19
f 18/1/17 34/3/19 33/4/18
f 19/1/20 20/2/20 35/3/20
f 19/1/20 35/3/20 34/4/20
f 20/1/21 21/2/22 36/3/23
f 20/1/21 36/3/23 35/4/24
f 21/1/25 22/2/25 37/3/25
f 21/1/25 37/3/25 36/4/25
f 22/1/26 23/2/27 38/3/27
f 22/1/26 38/3/27 37/4/28
f 23/1/29 24/2/29 39/3/29
f 23/1/29 39/3/29 38/4/30
f 24/1/31 25/2/31 40/3/31
f 24/1/31 40/3/31 39/4/31
f 25/1/32 26/2/33 41/3/34
f 25/1/32 41/3/34 40/4/32
f 26/1/35 27/2/35 42/3/35
f 26/1/35 42/3/35 41/4/35
f 27/1/36 28/2/37 43/3/38
f 27/1/36 43/3/38 42/4/39
f 28/1/40 29/2/40 44/3/40
f 28/1/40 44/3/40 43/4/41
f 29/1/42 30/2/42 45/3/42
f 29/1/43 45/3/44 44/4/43
f 31/1/1 32/2/1 47/3/1
f 31/1/1 47/3/1 46/4/1
f 32/1/2 33/2/2 48/3/2
f 32/1/2 48/3/2 47/4/45
f 33/1/1 34/2/1 49/3/1
f 33/1/1 49/3/1 48/4/1
f 34/1/1 35/2/1 50/3/1
f 34/1/1 50/3/1 49/4/1
f 35/1/1 36/2/1 51/3/1
f 35/1/1 51/3/1 50/4/1
f 36/1/1 37/2/1 52/3/1
f 36/1/1 52/3/1 51/4/1
f 37/1/1 38/2/1 53/3/1
f 37/1/1 53/3/1 52/4/1
f 38/1/1 39/2/1 54/3/1
f 38/1/1 54/3/1 53/4/1
f 39/1/1 40/2/1 55/3/1
f 39/1/1 55/3/1 54/4/1
f 40/1/1 41/2/1 56/3/1
f 40/1/1 56/3/1 55/4/1
f 41/1/1 42/2/1 57/3/1
f 41/1/1 57/3/1 56/4/1
f 42/1/1 43/2/1 58/3/1
f 42/1/1 58/3/1 57/4/1
f 43/1/46 44/2/47 59/3/46
f 43/1/46 59/3/46 58/4/48
f 44/1/15 45/2/15 60/3/15
f 44/1/15 60/3/15 59/4/15
f 46/1/49 47/2/49 62/3/49
f 46/1/49 62/3/49 61/4/49
f 47/1/45 48/2/2 63/3/50
f 47/1/45 63/3/50 62/4/51
f 48/1/1 49/2/1 64/3/1
f 48/1/1 64/3/1 63/4/1
f 49/1/52 50/2/53 65/3/54
f 49/1/52 65/3/54 64/4/53
f 50/1/53 51/2/53 66/3/53
f 50/1/53 66/3/53 65/4/54
f 51/1/1 52/2/1 67/3/55
f 51/1/1 67/3/55 66/4/1
f 52/1/1 53/2/1 68/3/1
f 52/1/1 68/3/1 67/4/55
f 53/1/1 54/2/1 69/3/1
f 53/1/1 69/3/1 68/4/1
f 54/1/1 55/2/1 70/3/1
f 54/1/1 70/3/1 69/4/1
f 55/1/1 56/2/1 71/3/1
f 55/1/1 71/3/1 70/4/1
f 56/1/1 57/2/1 72/3/1
f 56/1/1 72/3/1 71/4/1
f 57/1/1 58/2/1 73/3/1
f 57/1/1 73/3/1 72/4/1
f 58/1/56 59/2/56 74/3/56
f 58/1/56 74/3/56 73/4/56
f 59/1/1 60/2/1 75/3/1
f 59/1/1 75/3/1 74/4/1
f 61/1/1 62/2/1 77/3/1
f 61/1/1 77/3/1 76/4/1
f 62/1/57 63/2/57 78/3/57
f 62/1/57 78/3/57 77/4/58
f 63/1/52 64/2/53 79/3/54
f 63/1/52 79/3/54 78/4/53
f 64/1/59 65/2/59 80/3/59
f 64/1/59 80/3/59 79/4/59
f 65/1/55 66/2/1 81/3/55
f 65/1/55 81/3/55 80/4/1
f 66/1/60 67/2/61 82/3/60
f 66/1/60 82/3/60 81/4/62
f 67/1/53 68/2/53 83/3/53
f 67/1/53 83/3/53 82/4/53
f 68/1/63 69/2/64 84/3/63
f 68/1/63 84/3/63 83/4/64
f 69/1/64 70/2/64 85/3/64
f 69/1/64 85/3/64 84/4/63
f 71/1/65 86/2/66 85/3/67
f 71/1/65 85/3/67 70/4/68
f 71/1/1 72/2/1 87/3/1
f 71/1/1 87/3/1 86/4/1
f 72/1/1 73/2/1 88/3/69
f 72/1/1 88/3/69 87/4/1
f 73/1/70 74/2/71 89/3/70
f 73/1/70 89/3/70 88/4/72
f 74/1/73 75/2/73 90/3/73
f 74/1/73 90/3/73 89/4/73
f 76/1/74 77/2/74 92/3/74
f 76/1/75 92/3/75 91/4/75
f 77/1/58 78/2/57 93/3/76
f 77/1/58 93/3/76 92/4/77
f 78/1/78 79/2/79 94/3/80
f 78/1/78 94/3/80 93/4/81
f 79/1/82 80/2/83 95/3/84
f 79/1/82 95/3/84 94/4/85
f 80/1/86 81/2/87 96/3/88
f 80/1/86 96/3/88 95/4/89
f 81/1/90 82/2/91 97/3/92
f 81/1/90 97/3/92 96/4/93
f 82/1/94 83/2/91 98/3/95
f 82/1/94 98/3/95 97/4/96
f 83/1/97 84/2/98 99/3/99
f 83/1/97 99/3/99 98/4/100
f 84/1/101 85/2/102 100/3/103
f 84/1/101 100/3/103 99/4/104
f 85/1/67 86/2/66 101/3/105
f 85/1/67 101/3/105 100/4/106
f 86/1/1 87/2/1 102/3/1
f 86/1/1 102/3/1 101/4/1
f 87/1/1 88/2/69 103/3/107
f 87/1/1 103/3/107 102/4/1
f 88/1/69 89/2/108 103/3/107
f 89/1/109 90/2/109 104/3/109
f 89/1/110 104/3/110 103/4/110
f 91/1/111 92/2/112 106/3/113
f 91/1/114 106/3/114 105/4/114
f 92/1/112 93/2/115 106/3/113
f 93/1/116 94/2/117 107/3/118
f 93/1/116 107/3/118 106/4/119
f 94/1/120 95/2/120 108/3/120
f 94/1/120 108/3/120 107/4/120
f 95/1/121 96/2/122 109/3/123
f 95/1/121 109/3/123 108/4/124
f 96/1/125 97/2/126 110/3/127
f 96/1/125 110/3/127 109/4/128
f 97/1/129 98/2/130 111/3/131
f 97/1/129 111/3/131 110/4/132
f 99/1/133 100/2/134 113/3/135
f 99/1/133 113/3/135 112/4/136
f 100/1/106 101/2/105 114/3/137
f 100/1/106 114/3/137 113/4/138
f 101/1/1 102/2/1 115/3/1
f 101/1/1 115/3/1 114/4/1
f 102/1/1 103/2/107 116/3/139
f 102/1/1 116/3/139 115/4/1
f 103/1/140 104/2/140 117/3/140
f 103/1/107 117/3/140 116/4/139
f 105/1/1 106/2/141 119/3/142
f 105/1/1 119/3/1 118/4/1
f 106/1/141 107/2/143 120/3/143
f 106/1/141 120/3/143 119/4/142
f 107/1/1 108/2/1 121/3/1
f 107/1/1 121/3/1 120/4/1
f 108/1/144 109/2/145 122/3/146
f 108/1/144 122/3/146 121/4/145
f 109/1/147 110/2/147 123/3/147
f 109/1/147 123/3/147 122/4/147
f 110/1/148 111/2/1 124/3/1
f 110/1/148 124/3/1 123/4/1
f 111/1/1 112/2/1 125/3/1
f 111/1/1 125/3/1 124/4/1
f 112/1/1 113/2/1 126/3/1
f 112/1/1 126/3/1 125/4/1
f 113/1/1 114/2/1 127/3/1
f 113/1/1 127/3/1 126/4/1
f 114/1/1 115/2/1 128/3/149
f 114/1/1 128/3/149 127/4/1
f 115/1/1 116/2/139 129/3/150
f 115/1/1 129/3/150 128/4/149
f 116/1/139 117/2/140 130/3/151
f 116/1/139 130/3/151 129/4/150
f 118/1/152 119/2/152 132/3/152
f 118/1/152 132/3/152 131/4/152
f 119/1/153 133/3/154 132/4/155
f 119/1/153 120/2/156 134/3/157
f 119/1/153 134/3/157 133/4/154
f 120/1/158 121/2/158 135/3/158
f 120/1/158 135/3/158 134/4/158
f 121/1/159 122/2/160 136/3/159
f 121/1/159 136/3/159 135/4/159
f 122/1/161 123/2/162 137/3/161
f 122/1/161 137/3/161 136/4/161
f 123/1/163 124/2/164 138/3/164
f 123/1/163 138/3/164 137/4/163
f 124/1/165 125/2/166 139/3/166
f 124/1/165 139/3/166 138/4/167
f 125/1/166 126/2/166 140/3/166
f 125/1/166 140/3/166 139/4/166
f 126/1/168 127/2/169 141/3/168
f 126/1/168 141/3/168 140/4/170
f 127/1/169 128/2/169 142/3/169
f 127/1/169 142/3/169 141/4/168
f 128/1/149 129/2/150 143/3/1
f 128/1/149 143/3/1 142/4/1
f 129/1/171 144/3/172 143/4/173
f 129/1/150 130/2/151 145/3/174
f 129/1/171 145/3/49 144/4/172
f 131/1/1 132/2/1 147/3/1
f 131/1/1 147/3/1 146/4/1
f 132/1/175 133/2/175 148/3/175
f 132/1/175 148/3/175 147/4/176
f 133/1/1 134/2/1 149/3/1
f 133/1/1 149/3/1 148/4/1
f 134/1/1 135/2/1 150/3/1
f 134/1/1 150/3/1 149/4/1
f 135/1/114 136/2/114 151/3/114
f 135/1/114 151/3/114 150/4/177
f 136/1/178 137/2/179 152/3/178
f 136/1/178 152/3/178 151/4/180
f 137/1/181 138/2/182 153/3/181
f 137/1/181 153/3/181 152/4/181
f 138/1/183 139/2/184 154/3/183
f 138/1/183 154/3/183 153/4/185
f 139/1/1 140/2/1 155/3/1
f 139/1/1 155/3/1 154/4/1
f 140/1/186 141/2/186 156/3/186
f 140/1/186 156/3/186 155/4/186
f 141/1/1 142/2/1 157/3/1
f 141/1/1 157/3/1 156/4/1
f 142/1/187 143/2/187 158/3/187
f 142/1/187 158/3/187 157/4/188
f 143/1/189 144/2/189 159/3/189
f 143/1/189 159/3/189 158/4/189
f 144/1/1 145/2/1 160/3/1
f 144/1/1 160/3/1 159/4/1
f 146/1/190 147/2/190 162/3/190
f 146/1/190 162/3/190 161/4/190
f 147/1/176 148/2/175 163/3/176
f 147/1/176 163/3/176 162/4/191
f 148/1/1 149/2/1 164/3/1
f 148/1/1 164/3/1 163/4/1
f 149/1/1 150/2/1 165/3/1
f 149/1/1 165/3/1 164/4/1
f 150/1/192 151/2/193 166/3/193
f 150/1/192 166/3/193 165/4/192
f 151/1/194 152/2/194 167/3/194
f 151/1/194 167/3/194 166/4/195
f 152/1/196 153/2/196 168/3/196
f 152/1/196 168/3/196 167/4/196
f 153/1/197 154/2/198 169/3/197
f 153/1/197 169/3/197 168/4/199
f 154/1/200 155/2/200 170/3/200
f 154/1/200 170/3/200 169/4/200
f 155/1/201 156/2/202 171/3/201
f 155/1/201 171/3/201 170/4/203
f 156/1/204 157/2/204 172/3/204
f 156/1/204 172/3/204 171/4/204
f 157/1/188 158/2/187 173/3/205
f 157/1/188 173/3/205 172/4/206
f 158/1/207 159/2/208 174/3/209
f 158/1/207 174/3/209 173/4/210
f 159/1/211 160/2/211 175/3/211
f 159/1/212 175/3/212 174/4/212
f 161/1/1 162/2/1 177/3/1
f 161/1/1 177/3/1 176/4/1
f 162/1/213 163/2/213 178/3/213
f 162/1/213 178/3/213 177/4/213
f 163/1/1 164/2/1 179/3/1
f 163/1/1 179/3/1 178/4/1
f 164/1/1 165/2/1 180/3/1
f 164/1/1 180/3/1 179/4/1
f 165/1/214 166/2/214 181/3/214
f 165/1/214 181/3/214 180/4/214
f 166/1/215 167/2/216 182/3/215
f 166/1/215 182/3/215 181/4/217
f 167/1/218 168/2/218 183/3/218
f 167/1/218 183/3/218 182/4/218
f 168/1/219 169/2/220 184/3/221
f 168/1/219 184/3/221 183/4/222
f 169/1/1 170/2/1 185/3/1
f 169/1/1 185/3/1 184/4/1
f 170/1/1 171/2/1 186/3/1
f 170/1/1 186/3/1 185/4/1
f 171/1/1 172/2/1 187/3/1
f 171/1/1 187/3/1 186/4/1
f 172/1/1 173/2/1 188/3/1
f 172/1/1 188/3/1 187/4/1
f 173/1/186 174/2/186 189/3/186
f 173/1/186 189/3/186 188/4/186
f 174/1/1 175/2/1 190/3/1
f 174/1/1 190/3/1 189/4/1
f 176/1/223 177/2/223 192/3/223
f 176/1/224 192/3/223 191/4/223
f 177/1/225 178/2/226 193/3/225
f 177/1/225 193/3/225 192/4/227
f 178/1/228 179/2/229 194/3/228
f 178/1/228 194/3/228 193/4/228
f 179/1/229 180/2/229 195/3/229
f 179/1/229 195/3/229 194/4/228
f 180/1/230 181/2/231 196/3/230
f 180/1/230 196/3/230 195/4/232
f 181/1/233 182/2/234 197/3/234
f 181/1/233 197/3/234 196/4/234
f 182/1/235 183/2/236 198/3/235
f 182/1/235 198/3/235 197/4/237
f 183/1/238 184/2/238 199/3/238
f 183/1/238 199/3/238 198/4/238
f 184/1/239 185/2/240 200/3/239
f 184/1/239 200/3/239 199/4/241
f 185/1/240 186/2/240 201/3/240
f 185/1/240 201/3/240 200/4/239
f 186/1/242 187/2/229 202/3/242
f 186/1/242 202/3/242 201/4/228
f 187/1/229 188/2/229 203/3/229
f 187/1/229 203/3/229 202/4/242
f 188/1/243 189/2/243 204/3/243
f 188/1/243 204/3/243 203/4/244
f 189/1/245 190/2/245 205/3/245
f 189/1/245 205/3/245 204/4/245
f 191/1/246 192/2/246 207/3/246
f 191/1/246 207/3/246 206/4/246
f 192/1/1 193/2/1 208/3/1
f 192/1/1 208/3/1 207/4/1
f 193/1/7 194/2/7 209/3/7
f 193/1/7 209/3/7 208/4/7
f 194/1/1 195/2/1 210/3/1
f 194/1/1 210/3/1 209/4/1
f 195/1/247 196/2/247 211/3/247
f 195/1/247 211/3/247 210/4/247
f 196/1/1 197/2/1 212/3/1
f 196/1/1 212/3/1 211/4/1
f 197/1/56 198/2/56 213/3/56
f 197/1/56 213/3/56 212/4/56
f 198/1/1 199/2/1 214/3/1
f 198/1/1 214/3/1 213/4/1
f 199/1/187 200/2/187 215/3/187
f 199/1/187 215/3/187 214/4/187
f 200/1/1 201/2/1 216/3/1
f 200/1/1 216/3/1 215/4/1
f 201/1/248 202/2/248 217/3/248
f 201/1/248 217/3/248 216/4/248
f 202/1/1 203/2/1 218/3/1
f 202/1/1 218/3/1 217/4/1
f 203/1/249 204/2/249 219/3/249
f 203/1/249 219/3/249 218/4/249
f 204/1/1 205/2/1 220/3/1
f 204/1/1 220/3/1 219/4/1
f 98/4/250 99/1/251 112/2/252
f 98/4/250 112/2/252 111/3/253
