# Blender 4.4.3
# www.blender.org
mtllib pillar2.mtl
o Plane
v 0.000000 4.000000 -6.000000
v 3.000000 4.000000 -5.000000
v 5.000000 4.000000 -3.000000
v 6.000000 4.000000 0.000000
v 5.000000 4.000000 3.000000
v 3.000000 4.000000 5.000000
v 0.000000 4.000000 6.000000
v -3.000000 4.000000 5.000000
v -5.000000 4.000000 3.000000
v -6.000000 4.000000 0.000000
v -5.000000 4.000000 -3.000000
v -3.000000 4.000000 -5.000000
v 4.000000 4.000000 -7.000000
v 0.000000 4.000000 -8.000000
v 7.000000 4.000000 -4.000000
v 8.000000 4.000000 0.000000
v 7.000000 4.000000 4.000000
v 4.000000 4.000000 7.000000
v 0.000000 4.000000 8.000000
v -4.000000 4.000000 7.000000
v -7.000000 4.000000 4.000000
v -8.000000 4.000000 0.000000
v -7.000000 4.000000 -4.000000
v -4.000000 4.000000 -7.000000
v 2.000000 11.000002 -3.000000
v 0.000000 11.000002 -4.000000
v 3.000000 11.000002 -2.000000
v 4.000000 11.000002 0.000000
v 3.000000 11.000002 2.000000
v 2.000000 11.000002 3.000000
v 0.000000 11.000002 4.000000
v -2.000000 11.000002 3.000000
v -3.000000 11.000002 2.000000
v -4.000000 11.000002 0.000000
v -3.000000 11.000002 -2.000000
v -2.000000 11.000002 -3.000000
v 0.000000 0.000000 -8.000000
v 4.000000 0.000000 -7.000000
v 7.000000 0.000000 -4.000000
v 8.000000 0.000000 0.000000
v 7.000000 0.000000 4.000000
v 4.000000 0.000000 7.000000
v 0.000000 0.000000 8.000000
v -4.000000 0.000000 7.000000
v -7.000000 0.000000 4.000000
v -8.000000 0.000000 0.000000
v -7.000000 0.000000 -4.000000
v -4.000000 0.000000 -7.000000
v 0.000000 60.000000 -6.000000
v 3.000000 60.000000 -5.000000
v 5.000000 60.000000 -3.000000
v 6.000000 60.000000 0.000000
v 5.000000 60.000000 3.000000
v 3.000000 60.000000 5.000000
v 0.000000 60.000000 6.000000
v -3.000000 60.000000 5.000000
v -5.000000 60.000000 3.000000
v -6.000000 60.000000 0.000000
v -5.000000 60.000000 -3.000000
v -3.000000 60.000000 -5.000000
v 4.000000 60.000000 -7.000000
v 0.000000 60.000000 -8.000000
v 7.000000 60.000000 -4.000000
v 8.000000 60.000000 0.000000
v 7.000000 60.000000 4.000000
v 4.000000 60.000000 7.000000
v 0.000000 60.000000 8.000000
v -4.000000 60.000000 7.000000
v -7.000000 60.000000 4.000000
v -8.000000 60.000000 0.000000
v -7.000000 60.000000 -4.000000
v -4.000000 60.000000 -7.000000
v 2.000000 53.000004 -3.000000
v 0.000000 53.000004 -4.000000
v 3.000000 53.000004 -2.000000
v 4.000000 53.000004 0.000000
v 3.000000 53.000004 2.000000
v 2.000000 53.000004 3.000000
v 0.000000 53.000004 4.000000
v -2.000000 53.000004 3.000000
v -3.000000 53.000004 2.000000
v -4.000000 53.000004 0.000000
v -3.000000 53.000004 -2.000000
v -2.000000 53.000004 -3.000000
v 0.000000 64.000000 -8.000000
v 4.000000 64.000000 -7.000000
v 7.000000 64.000000 -4.000000
v 8.000000 64.000000 0.000000
v 7.000000 64.000000 4.000000
v 4.000000 64.000000 7.000000
v 0.000000 64.000000 8.000000
v -4.000000 64.000000 7.000000
v -7.000000 64.000000 4.000000
v -8.000000 64.000000 0.000000
v -7.000000 64.000000 -4.000000
v -4.000000 64.000000 -7.000000
vn 0.7071 -0.0000 -0.7071
vn 0.9701 -0.0000 -0.2425
vn 0.9701 -0.0000 0.2425
vn 0.7071 -0.0000 0.7071
vn 0.2425 -0.0000 0.9701
vn -0.2425 -0.0000 0.9701
vn -0.7071 -0.0000 0.7071
vn -0.9701 -0.0000 0.2425
vn -0.9701 -0.0000 -0.2425
vn -0.7071 -0.0000 -0.7071
vn -0.8520 0.3043 -0.4260
vn -0.2425 -0.0000 -0.9701
vn -0.0000 1.0000 -0.0000
vn -0.4260 0.3043 0.8520
vn 0.8520 0.3043 0.4260
vn -0.6767 0.2900 -0.6767
vn 0.4260 0.3043 -0.8520
vn -0.6767 0.2900 0.6767
vn 0.6767 0.2900 0.6767
vn -0.3052 0.2616 -0.9156
vn 0.6767 0.2900 -0.6767
vn -0.9156 0.2616 0.3052
vn 0.3052 0.2616 0.9156
vn 0.9156 0.2616 -0.3052
vn 0.4472 -0.0000 -0.8944
vn -0.4472 -0.0000 -0.8944
vn -0.8944 -0.0000 -0.4472
vn -0.8944 -0.0000 0.4472
vn -0.0000 -1.0000 -0.0000
vn 0.2425 -0.0000 -0.9701
vn -0.9156 -0.2616 -0.3052
vn -0.3052 -0.2616 0.9156
vn 0.9156 -0.2616 0.3052
vn -0.6767 -0.2900 -0.6767
vn 0.3052 -0.2616 -0.9156
vn -0.6767 -0.2900 0.6767
vn 0.6767 -0.2900 0.6767
vn -0.3052 -0.2616 -0.9156
vn 0.6767 -0.2900 -0.6767
vn -0.9156 -0.2616 0.3052
vn 0.3052 -0.2616 0.9156
vn 0.9156 -0.2616 -0.3052
vn -0.4472 -0.0000 0.8944
vn 0.4472 -0.0000 0.8944
vn 0.8944 -0.0000 0.4472
vn 0.8944 -0.0000 -0.4472
vn -0.9156 0.2616 -0.3052
vn -0.3052 0.2616 0.9156
vn 0.9156 0.2616 0.3052
vn 0.3052 0.2616 -0.9156
vn -0.4260 0.3043 -0.8520
vn -0.8520 0.3043 0.4260
vn 0.4260 0.3043 0.8520
vn 0.8520 0.3043 -0.4260
vn -0.8520 -0.3043 -0.4260
vn -0.4260 -0.3043 0.8520
vn 0.8520 -0.3043 0.4260
vn 0.4260 -0.3043 -0.8520
vn -0.4260 -0.3043 -0.8520
vn -0.8520 -0.3043 0.4260
vn 0.4260 -0.3043 0.8520
vn 0.8520 -0.3043 -0.4260
vt 0.235696 0.678953
vt 0.143662 0.768239
vt 0.143662 0.678953
vt 0.306929 0.440229
vt 0.143662 0.487580
vt 0.143662 0.456013
vt 0.227978 0.571485
vt 0.143662 0.616453
vt 0.239220 0.616453
vt 0.154904 0.565864
vt 0.306929 0.503364
vt 0.081162 0.031250
vt 0.031250 0.968750
vt 0.031250 0.031250
vt 0.143662 0.247800
vt 0.365626 0.031250
vt 0.441418 0.334420
vt 0.235696 0.768239
vt 0.154904 0.565864
vt 0.143662 0.616453
vt 0.081162 0.968750
vt 0.360212 0.377729
vt 0.268178 0.377729
vt 0.186972 0.329006
vt 0.143662 0.155766
vt 0.192386 0.074560
vt 0.273592 0.031250
vt 0.446832 0.079974
vt 0.490142 0.161180
vt 0.490142 0.253213
s 0
usemtl Material.001
f 39/1/1 13/2/1 15/3/1
f 40/1/2 15/2/2 16/3/2
f 41/1/3 16/2/3 17/3/3
f 42/1/4 17/2/4 18/3/4
f 43/1/5 18/2/5 19/3/5
f 44/1/6 19/2/6 20/3/6
f 45/1/7 20/2/7 21/3/7
f 46/1/8 21/2/8 22/3/8
f 47/1/9 22/2/9 23/3/9
f 48/1/10 23/2/10 24/3/10
f 11/4/11 34/5/11 35/6/11
f 37/1/12 24/2/12 14/3/12
f 1/7/13 13/8/13 14/9/13
f 3/10/13 13/9/13 2/7/13
f 4/10/13 15/9/13 3/7/13
f 4/7/13 17/8/13 16/9/13
f 6/10/13 17/9/13 5/7/13
f 7/10/13 18/9/13 6/7/13
f 7/7/13 20/8/13 19/9/13
f 9/10/13 20/9/13 8/7/13
f 10/10/13 21/9/13 9/7/13
f 10/7/13 23/8/13 22/9/13
f 12/10/13 23/9/13 11/7/13
f 1/10/13 24/9/13 12/7/13
f 8/4/14 31/5/14 32/6/14
f 5/4/15 28/5/15 29/6/15
f 11/11/16 36/6/16 12/4/16
f 2/4/17 26/5/17 25/6/17
f 8/11/18 33/6/18 9/4/18
f 5/11/19 30/6/19 6/4/19
f 12/11/20 26/6/20 1/4/20
f 2/11/21 27/6/21 3/4/21
f 9/11/22 34/6/22 10/4/22
f 6/11/23 31/6/23 7/4/23
f 3/11/24 28/6/24 4/4/24
f 73/12/25 26/13/25 74/14/25
f 74/12/26 36/13/26 84/14/26
f 84/12/10 35/13/10 83/14/10
f 83/12/27 34/13/27 82/14/27
f 82/12/28 33/13/28 81/14/28
f 40/15/29 44/16/29 48/17/29
f 38/1/30 14/2/30 13/3/30
f 61/3/1 87/18/1 63/2/1
f 63/3/2 88/18/2 64/2/2
f 64/3/3 89/18/3 65/2/3
f 65/3/4 90/18/4 66/2/4
f 66/3/5 91/18/5 67/2/5
f 67/3/6 92/18/6 68/2/6
f 68/3/7 93/18/7 69/2/7
f 69/3/8 94/18/8 70/2/8
f 70/3/9 95/18/9 71/2/9
f 71/3/10 96/18/10 72/2/10
f 59/11/31 82/6/31 58/4/31
f 72/3/12 85/18/12 62/2/12
f 49/19/29 61/9/29 50/7/29
f 61/20/29 51/7/29 50/19/29
f 63/20/29 52/7/29 51/19/29
f 52/19/29 65/9/29 53/7/29
f 65/20/29 54/7/29 53/19/29
f 66/20/29 55/7/29 54/19/29
f 55/19/29 68/9/29 56/7/29
f 68/20/29 57/7/29 56/19/29
f 69/20/29 58/7/29 57/19/29
f 58/19/29 71/9/29 59/7/29
f 71/20/29 60/7/29 59/19/29
f 72/20/29 49/7/29 60/19/29
f 56/11/32 79/6/32 55/4/32
f 53/11/33 76/6/33 52/4/33
f 60/11/34 83/6/34 59/4/34
f 50/11/35 74/6/35 49/4/35
f 57/11/36 80/6/36 56/4/36
f 54/11/37 77/6/37 53/4/37
f 74/5/38 60/4/38 49/11/38
f 51/11/39 73/6/39 50/4/39
f 82/5/40 57/4/40 58/11/40
f 79/5/41 54/4/41 55/11/41
f 76/5/42 51/4/42 52/11/42
f 81/12/7 32/13/7 80/14/7
f 80/12/43 31/13/43 79/14/43
f 79/12/44 30/13/44 78/14/44
f 78/12/4 29/13/4 77/14/4
f 77/12/45 28/13/45 76/14/45
f 76/12/46 27/13/46 75/14/46
f 75/12/1 25/13/1 73/14/1
f 94/15/13 90/16/13 86/17/13
f 62/3/30 86/18/30 61/2/30
f 39/1/1 38/18/1 13/2/1
f 40/1/2 39/18/2 15/2/2
f 41/1/3 40/18/3 16/2/3
f 42/1/4 41/18/4 17/2/4
f 43/1/5 42/18/5 18/2/5
f 44/1/6 43/18/6 19/2/6
f 45/1/7 44/18/7 20/2/7
f 46/1/8 45/18/8 21/2/8
f 47/1/9 46/18/9 22/2/9
f 48/1/10 47/18/10 23/2/10
f 11/4/47 10/11/47 34/5/47
f 37/1/12 48/18/12 24/2/12
f 1/7/13 2/10/13 13/8/13
f 3/10/13 15/8/13 13/9/13
f 4/10/13 16/8/13 15/9/13
f 4/7/13 5/10/13 17/8/13
f 6/10/13 18/8/13 17/9/13
f 7/10/13 19/8/13 18/9/13
f 7/7/13 8/10/13 20/8/13
f 9/10/13 21/8/13 20/9/13
f 10/10/13 22/8/13 21/9/13
f 10/7/13 11/10/13 23/8/13
f 12/10/13 24/8/13 23/9/13
f 1/10/13 14/8/13 24/9/13
f 8/4/48 7/11/48 31/5/48
f 5/4/49 4/11/49 28/5/49
f 11/11/16 35/5/16 36/6/16
f 2/4/50 1/11/50 26/5/50
f 8/11/18 32/5/18 33/6/18
f 5/11/19 29/5/19 30/6/19
f 12/11/51 36/5/51 26/6/51
f 2/11/21 25/5/21 27/6/21
f 9/11/52 33/5/52 34/6/52
f 6/11/53 30/5/53 31/6/53
f 3/11/54 27/5/54 28/6/54
f 73/12/25 25/21/25 26/13/25
f 74/12/26 26/21/26 36/13/26
f 84/12/10 36/21/10 35/13/10
f 83/12/27 35/21/27 34/13/27
f 82/12/28 34/21/28 33/13/28
f 48/17/29 37/22/29 38/23/29
f 38/23/29 39/24/29 40/15/29
f 40/15/29 41/25/29 42/26/29
f 42/26/29 43/27/29 44/16/29
f 44/16/29 45/28/29 46/29/29
f 46/29/29 47/30/29 48/17/29
f 48/17/29 38/23/29 40/15/29
f 40/15/29 42/26/29 44/16/29
f 44/16/29 46/29/29 48/17/29
f 38/1/30 37/18/30 14/2/30
f 61/3/1 86/1/1 87/18/1
f 63/3/2 87/1/2 88/18/2
f 64/3/3 88/1/3 89/18/3
f 65/3/4 89/1/4 90/18/4
f 66/3/5 90/1/5 91/18/5
f 67/3/6 91/1/6 92/18/6
f 68/3/7 92/1/7 93/18/7
f 69/3/8 93/1/8 94/18/8
f 70/3/9 94/1/9 95/18/9
f 71/3/10 95/1/10 96/18/10
f 59/11/55 83/5/55 82/6/55
f 72/3/12 96/1/12 85/18/12
f 49/19/29 62/20/29 61/9/29
f 61/20/29 63/9/29 51/7/29
f 63/20/29 64/9/29 52/7/29
f 52/19/29 64/20/29 65/9/29
f 65/20/29 66/9/29 54/7/29
f 66/20/29 67/9/29 55/7/29
f 55/19/29 67/20/29 68/9/29
f 68/20/29 69/9/29 57/7/29
f 69/20/29 70/9/29 58/7/29
f 58/19/29 70/20/29 71/9/29
f 71/20/29 72/9/29 60/7/29
f 72/20/29 62/9/29 49/7/29
f 56/11/56 80/5/56 79/6/56
f 53/11/57 77/5/57 76/6/57
f 60/11/34 84/5/34 83/6/34
f 50/11/58 73/5/58 74/6/58
f 57/11/36 81/5/36 80/6/36
f 54/11/37 78/5/37 77/6/37
f 74/5/59 84/6/59 60/4/59
f 51/11/39 75/5/39 73/6/39
f 82/5/60 81/6/60 57/4/60
f 79/5/61 78/6/61 54/4/61
f 76/5/62 75/6/62 51/4/62
f 81/12/7 33/21/7 32/13/7
f 80/12/43 32/21/43 31/13/43
f 79/12/44 31/21/44 30/13/44
f 78/12/4 30/21/4 29/13/4
f 77/12/45 29/21/45 28/13/45
f 76/12/46 28/21/46 27/13/46
f 75/12/1 27/21/1 25/13/1
f 86/17/13 85/22/13 96/23/13
f 96/23/13 95/24/13 94/15/13
f 94/15/13 93/25/13 92/26/13
f 92/26/13 91/27/13 90/16/13
f 90/16/13 89/28/13 88/29/13
f 88/29/13 87/30/13 86/17/13
f 86/17/13 96/23/13 94/15/13
f 94/15/13 92/26/13 90/16/13
f 90/16/13 88/29/13 86/17/13
f 62/3/30 85/1/30 86/18/30
