# Made in Blockbench 4.9.4

o cylinder
v 0.12560118395208875 0 0.46875
v 0.12560118395208875 0.25 0.46875
v 0.34314881604791114 0 0.3431488160479112
v 0.34314881604791114 0.25 0.3431488160479112
v 0.46875 0 0.12560118395208875
v 0.46875 0.25 0.12560118395208875
v 0.46875 0 -0.1256011839520888
v 0.46875 0.25 -0.1256011839520888
v 0.3431488160479112 0 -0.34314881604791114
v 0.3431488160479112 0.25 -0.34314881604791114
v 0.12560118395208889 0 -0.46874999999999994
v 0.12560118395208889 0.25 -0.46874999999999994
v -0.12560118395208855 0 -0.46875000000000006
v -0.12560118395208855 0.25 -0.46875000000000006
v -0.34314881604791114 0 -0.34314881604791125
v -0.34314881604791114 0.25 -0.34314881604791125
v -0.46875 0 -0.1256011839520887
v -0.46875 0.25 -0.1256011839520887
v -0.46875000000000006 0 0.12560118395208852
v -0.46875000000000006 0.25 0.12560118395208852
v -0.34314881604791125 0 0.3431488160479111
v -0.34314881604791125 0.25 0.3431488160479111
v -0.12560118395208872 0 0.46875
v -0.12560118395208872 0.25 0.46875
vt 0 0
vt 1 0
vt 1 1
vt 0 1
vt 0 0
vt 1 0
vt 1 1
vt 0 1
vt 0 0
vt 1 0
vt 1 1
vt 0 1
vt 0 0
vt 1 0
vt 1 1
vt 0 1
vt 0 0
vt 1 0
vt 1 1
vt 0 1
vt 0 0
vt 1 0
vt 1 1
vt 0 1
vt 0 0
vt 1 0
vt 1 1
vt 0 1
vt 0 0
vt 1 0
vt 1 1
vt 0 1
vt 0 0
vt 1 0
vt 1 1
vt 0 1
vt 0 0
vt 1 0
vt 1 1
vt 0 1
vt 0 0
vt 1 0
vt 1 1
vt 0 1
vt 0 0
vt 1 0
vt 1 1
vt 0 1
vn 0.5000000000000003 0 0.8660254037844387
vn 0.8660254037844386 0 0.5000000000000003
vn 1 0 0
vn 0.8660254037844385 0 -0.5000000000000003
vn 0.5000000000000004 0 -0.8660254037844386
vn 4.419635984676137e-16 0 -1
vn -0.4999999999999999 0 -0.8660254037844387
vn -0.8660254037844386 0 -0.5000000000000001
vn -1 0 -2.2098179923380705e-16
vn -0.8660254037844388 0 0.5
vn -0.5000000000000003 0 0.8660254037844385
vn 0 0 1
usemtl m_d81790a4-12f1-25c4-954a-f4b305a7b573
f 1/1/1 3/2/1 4/3/1
f 1/1/1 4/3/1 2/4/1
f 3/5/2 5/6/2 6/7/2
f 3/5/2 6/7/2 4/8/2
f 5/9/3 7/10/3 8/11/3
f 5/9/3 8/11/3 6/12/3
f 7/13/4 9/14/4 10/15/4
f 7/13/4 10/15/4 8/16/4
f 9/17/5 11/18/5 12/19/5
f 9/17/5 12/19/5 10/20/5
f 11/21/6 13/22/6 14/23/6
f 11/21/6 14/23/6 12/24/6
f 13/25/7 15/26/7 16/27/7
f 13/25/7 16/27/7 14/28/7
f 15/29/8 17/30/8 18/31/8
f 15/29/8 18/31/8 16/32/8
f 17/33/9 19/34/9 20/35/9
f 17/33/9 20/35/9 18/36/9
f 19/37/10 21/38/10 22/39/10
f 19/37/10 22/39/10 20/40/10
f 21/41/11 23/42/11 24/43/11
f 21/41/11 24/43/11 22/44/11
f 23/45/12 1/46/12 2/47/12
f 23/45/12 2/47/12 24/48/12