# Made in Blockbench 4.9.4
mtllib slotmachin-int.mtl

o cuboid
v 0 8 3
v 0 8 -2
v 1 10 3
v 1 10 -2
v 2 4 3
v 2 4 -2
v -2 8 3
v -2 8 -2
v -2.000000000000001 0 -2
v 2 0 3
v 2 0 -2
v -2.000000000000001 0 3
v 0 0 -2
v 0 0 3
v 3 4 3
v 3 0 3
v 3 4 -2
v 3 0 -2
v -2.000000000000001 10 3
v -2.000000000000001 10 -2
vt 0.6534671160130718 0.3486076420802696
vt 0.6534671160130718 0.6704075233609069
vt 0.3267335580065359 0.6704075233609069
vt 0.3267335580065359 0.3486076420802696
vt 0.6534671160130718 0.2640326605902774
vt 0.3267335580065359 0.2640326605902774
vt 0.3267335580065359 0.022249827665440813
vt 0.6534671160130718 0.022249827665440813
vt 0.9148539624183005 0.1504927491830066
vt 0.7841605392156865 0.1504927491830066
vt 0.7841605392156865 0.6863357843137254
vt 0.9148539624183005 0.3922755821078432
vt 0.6534671160130718 0.1504927491830066
vt 0.7841605392156862 0.1504927491830066
vt 0.7841605392156862 0.6863357843137254
vt 0.6534671160130718 0.6863357843137254
vt 0.6534671160130721 0.6863357843137254
vt 0.7841605392156865 0.6863357843137254
vt 0.7841605392156865 0.1504927491830066
vt 0.6534671160130718 0.1504927491830066
vt 0.9148539624183005 0.3922755821078432
vt 0.7841605392156862 0.6863357843137254
vt 0.7841605392156862 0.1504927491830066
vt 0.9148539624183005 0.1504927491830066
vt 0.3267335580065359 0.26362424364276926
vt 0.6534671160130718 0.26362424364276926
vt 0.6534671160130718 0.3485749687244687
vt 0.3267335580065359 0.3485749687244687
vt 0.9998046875000001 0.1504927491830066
vt 0.9998046875000001 0.3922755821078432
vt 0.9148539624183005 0.3922755821078432
vt 0.9148539624183005 0.1504927491830066
vt 0.9998046875000001 0.3922755821078432
vt 0.9998046875000001 0.1504927491830066
vt 0.9148539624183005 0.1504927491830066
vt 0.9148539624183005 0.3922755821078432
vt 0.8495072508169934 0.8039598651960783
vt 0.6534671160130718 0.8039598651960783
vt 0.6534671160130718 0.6863357843137254
vt 0.7841605392156862 0.6863357843137254
vt 0.6534671160130718 0.8039598651960784
vt 0.3267335580065359 0.8039598651960784
vt 0.3267335580065359 0.6694044513378268
vt 0.6534671160130718 0.6694044513378268
vt 0.6534671160130718 0.8039598651960783
vt 0.8495072508169936 0.8039598651960783
vt 0.7841605392156865 0.6863357843137254
vt 0.6534671160130721 0.6863357843137254
vt 0.3267335580065359 0.1504927491830066
vt 0.3267335580065359 0.8039598651960784
vt 0 0.8039598651960784
vt 0 0.1504927491830066
vt 0.3267335580065359 0.9999999999999999
vt 0.3267335580065359 0.8039598651960784
vt 0.6534671160129084 0.8039598651960784
vt 0.6534671160129084 1
vn 0.8944271909999161 0.44721359549995804 0
vn 1 0 0
vn 0 0 -1
vn 0 0 1
vn 0 0 -1
vn 0 0 1
vn 0 1 0
vn 0 0 1
vn 0 0 -1
vn 0 0 1
vn 0.8944271909999161 -0.44721359549995804 0
vn 0 0 -1
vn -1 0 0
vn 0 1 0
usemtl m_e63a761b-b553-f2cb-6119-b0c9fa5943fe
f 6/1/1 2/2/1 1/3/1
f 6/1/1 1/3/1 5/4/1
f 17/5/2 15/6/2 16/7/2
f 17/5/2 16/7/2 18/8/2
f 11/9/3 13/10/3 2/11/3
f 11/9/3 2/11/3 6/12/3
f 12/13/4 14/14/4 1/15/4
f 12/13/4 1/15/4 7/16/4
f 8/17/5 2/18/5 13/19/5
f 8/17/5 13/19/5 9/20/5
f 5/21/6 1/22/6 14/23/6
f 5/21/6 14/23/6 10/24/6
f 15/25/7 17/26/7 6/27/7
f 15/25/7 6/27/7 5/28/7
f 16/29/8 15/30/8 5/31/8
f 16/29/8 5/31/8 10/32/8
f 17/33/9 18/34/9 11/35/9
f 17/33/9 11/35/9 6/36/9
f 3/37/10 19/38/10 7/39/10
f 3/37/10 7/39/10 1/40/10
f 4/41/11 3/42/11 1/43/11
f 4/41/11 1/43/11 2/44/11
f 20/45/12 4/46/12 2/47/12
f 20/45/12 2/47/12 8/48/12
f 12/49/13 19/50/13 20/51/13
f 12/49/13 20/51/13 9/52/13
f 19/53/14 3/54/14 4/55/14
f 19/53/14 4/55/14 20/56/14