# Made in Blockbench 4.9.4
mtllib tree.mtl

o tree
v 1 1.4901161526914564e-8 2.220446032706685e-16
v -0.9999999999999996 -1.4901160749758446e-8 -2.220446065793941e-16
v 0.9999999701976772 2.000000014901161 -9.992007223280772e-15
v -1.0000000298023224 1.9999999850988388 -1.0436096433130834e-14
v 1.9428902434631872e-16 3.3306690738754696e-16 1
v 1.9428902434631872e-16 3.3306690738754696e-16 -1
v -2.498001871581051e-16 2.0000000000000004 1
v -2.498001871581051e-16 2.0000000000000004 -1
vt 0 0
vt 1 0
vt 1 1
vt 0 0.9999999999999998
vt 0 0
vt 1 0
vt 1 1
vt 0 0.9999999999999998
vn 2.2204468102564737e-16 -5.1070259099669984e-15 -1
vn 1 2.2204460492503126e-16 -1.0600318413907344e-30
usemtl m_8c7d57ca-5db9-e8c8-41c7-c06f9be7a074
f 1/1/1 2/2/1 4/3/1
f 1/1/1 4/3/1 3/4/1
f 5/5/2 6/6/2 8/7/2
f 5/5/2 8/7/2 7/8/2