# Made in Blockbench 4.9.4
mtllib vendingmachine.mtl

o cube
v 0.6000000000000001 4 1
v 0.6000000000000001 4 -1
v 0.6000000000000001 0 1
v 0.6000000000000001 0 -1
v -0.6000000000000001 4 1
v -0.6000000000000001 4 -1
v -0.6000000000000001 0 1
v -0.6000000000000001 0 -1
v -0.6000000000000001 3.8000000000000007 1
v 0.6000000000000001 4 -0.5
v 0.6000000000000001 0 -0.5
v 0.6000000000000001 4 0.8
v 0.6000000000000001 0 0.8
v 0.6000000000000001 3.8000000000000007 0.8
v 0.6000000000000001 3.8000000000000007 -0.5
v 0.6000000000000001 0.9000000000000001 0.8
v 0.6000000000000001 0.9000000000000001 -0.5
v 0.6000000000000001 0.19999999999999996 0.8
v 0.6000000000000001 0.19999999999999996 -0.5
v 0 0.9000000000000001 0.8
v 0 0.9000000000000001 -0.5
v 0 0.19999999999999996 0.8
v 0 0.19999999999999996 -0.5
v 0.6000000000000001 1.1 0.8
v 0.6000000000000001 1.1 -0.5
v -0.3999999999999999 3.8000000000000003 0.8
v -0.3999999999999999 3.8000000000000003 -0.5
v -0.3999999999999999 1.1 0.8
v -0.3999999999999999 1.1 -0.5
vt 0.6500000000000011 0.350000000000002
vt 0.6500000000000011 0.8500000000000006
vt 0.5000000000000018 0.8500000000000006
vt 0.5000000000000018 0.350000000000002
vt 0.5000000000000018 1
vt 0.25000000000000266 1
vt 0.25000000000000266 0.8500000000000006
vt 0.5000000000000018 0.8500000000000006
vt 0.6500000000000011 0.350000000000002
vt 0.6500000000000011 0.8500000000000006
vt 0.5000000000000018 0.8500000000000006
vt 0.5000000000000018 0.350000000000002
vt 0.5000000000000022 0.8500000000000006
vt 0.43750000000000244 0.8500000000000006
vt 0.43750000000000244 0.350000000000002
vt 0.5000000000000022 0.350000000000002
vt 0.25000000000000266 0.8500000000000006
vt 0.25000000000000266 0.350000000000002
vt 0.27500000000000246 0.350000000000002
vt 0.27500000000000246 0.8500000000000006
vt 0.275000000000002 0.8250000000000017
vt 0.4375000000000011 0.8250000000000017
vt 0.4375000000000011 0.8500000000000015
vt 0.275000000000002 0.8500000000000015
vt 0.5625000000000022 0.3250000000000024
vt 0.5625000000000022 0.16250000000000286
vt 0.6500000000000018 0.16250000000000286
vt 0.6500000000000018 0.3250000000000024
vt 0.48750000000000365 0.16250000000000286
vt 0.5625000000000031 0.16250000000000286
vt 0.5625000000000031 0.32500000000000195
vt 0.4875000000000032 0.32500000000000195
vt 0.4875000000000032 0.16250000000000286
vt 0.5625000000000027 0.16250000000000286
vt 0.5625000000000027 0.3250000000000024
vt 0.4875000000000032 0.3250000000000024
vt 0.5625000000000022 0.1625000000000033
vt 0.5625000000000022 0.08750000000000357
vt 0.6500000000000018 0.08750000000000357
vt 0.6500000000000018 0.1625000000000033
vt 0.5625000000000027 0.16250000000000242
vt 0.5625000000000027 0.08750000000000357
vt 0.6500000000000022 0.08750000000000357
vt 0.6500000000000022 0.16250000000000242
vt 0.125 0.3250000000000033
vt 0.125 0.16250000000000375
vt 0.4624999999999987 0.16250000000000375
vt 0.4624999999999987 0.3250000000000033
vt 0.125 0.3250000000000033
vt 4.4408920985006104e-16 0.3250000000000033
vt 4.4408920985006104e-16 0.16250000000000375
vt 0.125 0.16250000000000375
vt 0 0.16250000000000375
vt 0.125 0.16250000000000375
vt 0.125 0.3250000000000033
vt 0 0.3250000000000033
vt 0.125 0.16250000000000375
vt 0.125 0.0375000000000042
vt 0.4624999999999987 0.0375000000000042
vt 0.4624999999999987 0.16250000000000375
vt 0.125 0.1625000000000033
vt 0.125 0.03750000000000375
vt 0.4624999999999987 0.03750000000000375
vt 0.4624999999999987 0.1625000000000033
vt 0.437500000000002 0.46250000000000246
vt 0.27500000000000246 0.46250000000000246
vt 0.27500000000000246 0.48750000000000226
vt 0.437500000000002 0.48750000000000226
vt 0.4375000000000011 0.35000000000000286
vt 0.27500000000000224 0.35000000000000286
vt 0.27500000000000224 0.37500000000000266
vt 0.4375000000000011 0.37500000000000266
vt 0.25000000000000244 0.8500000000000006
vt 3.5527136788004883e-15 0.8500000000000006
vt 3.5527136788004883e-15 0.35000000000000175
vt 0.25000000000000244 0.35000000000000175
vt 0.2750000000000027 0.8250000000000008
vt 0.2750000000000027 0.4875000000000014
vt 0.43750000000000244 0.4875000000000014
vt 0.43750000000000244 0.8250000000000008
vt 0.27500000000000246 0.375000000000002
vt 0.437500000000002 0.375000000000002
vt 0.437500000000002 0.4625000000000016
vt 0.27500000000000246 0.4625000000000016
vn 0 0 1
vn 0 1 0
vn 0 0 -1
vn 1 0 0
vn 1 0 0
vn 1 0 0
vn 1 0 0
vn 0 -1 0
vn 0 1 0
vn 0 0 -1
vn 0 0 1
vn 1 0 0
vn 4.440892098500626e-16 -1 0
vn 0 1 0
vn 0 0 -1
vn 0 0 1
vn 1 0 0
vn 1 0 0
vn -1 0 0
vn 1 0 0
vn 1 0 0
usemtl m_77d3c2d5-24cd-7f4f-074e-dd10f3ad9bd2
f 3/1/1 1/2/1 5/3/1
f 3/1/1 5/3/1 7/4/1
f 6/5/2 5/6/2 1/7/2
f 6/5/2 1/7/2 2/8/2
f 8/9/3 6/10/3 2/11/3
f 8/9/3 2/11/3 4/12/3
f 2/13/4 10/14/4 11/15/4
f 2/13/4 11/15/4 4/16/4
f 1/17/5 3/18/5 13/19/5
f 1/17/5 13/19/5 12/20/5
f 14/21/6 15/22/6 10/23/6
f 14/21/6 10/23/6 12/24/6
f 21/25/7 20/26/7 22/27/7
f 21/25/7 22/27/7 23/28/7
f 21/29/8 17/30/8 16/31/8
f 21/29/8 16/31/8 20/32/8
f 22/33/9 18/34/9 19/35/9
f 22/33/9 19/35/9 23/36/9
f 20/37/10 16/38/10 18/39/10
f 20/37/10 18/39/10 22/40/10
f 17/41/11 21/42/11 23/43/11
f 17/41/11 23/43/11 19/44/11
f 27/45/12 26/46/12 28/47/12
f 27/45/12 28/47/12 29/48/12
f 27/49/13 15/50/13 14/51/13
f 27/49/13 14/51/13 26/52/13
f 28/53/14 24/54/14 25/55/14
f 28/53/14 25/55/14 29/56/14
f 26/57/15 14/58/15 24/59/15
f 26/57/15 24/59/15 28/60/15
f 15/61/16 27/62/16 29/63/16
f 15/61/16 29/63/16 25/64/16
f 16/65/17 17/66/17 25/67/17
f 16/65/17 25/67/17 24/68/17
f 13/69/18 11/70/18 19/71/18
f 13/69/18 19/71/18 18/72/18
f 5/73/19 6/74/19 8/75/19
f 5/73/19 8/75/19 7/76/19
f 14/77/20 24/78/20 25/79/20
f 14/77/20 25/79/20 15/80/20
f 18/81/21 19/82/21 17/83/21
f 18/81/21 17/83/21 16/84/21