# Made in Blockbench 4.12.2
mtllib sky.mtl

o cube
v 63 63 63
v 63 63 -63
v 63 -63 63
v 63 -63 -63
v -63 63 63
v -63 63 -63
v -63 -63 63
v -63 -63 -63
vt 0 1
vt 1 1
vt 1 0
vt 0 0
vt 0 1
vt 1 1
vt 1 0
vt 0 0
vt 0 1
vt 1 1
vt 1 0
vt 0 0
vt 0 1
vt 1 1
vt 1 0
vt 0 0
vt 0 1
vt 1 1
vt 1 0
vt 0 0
vt 0 1
vt 1 1
vt 1 0
vt 0 0
vn -1 0 0
vn 1 0 0
vn 0 -1 0
vn 0 1 0
vn 0 0 -1
vn 0 0 1
usemtl none
f 1/1/1 2/2/1 4/3/1
f 1/1/1 4/3/1 3/4/1
f 6/5/2 5/6/2 7/7/2
f 6/5/2 7/7/2 8/8/2
f 6/9/3 2/10/3 1/11/3
f 6/9/3 1/11/3 5/12/3
f 7/13/4 3/14/4 4/15/4
f 7/13/4 4/15/4 8/16/4
f 5/17/5 1/18/5 3/19/5
f 5/17/5 3/19/5 7/20/5
f 2/21/6 6/22/6 8/23/6
f 2/21/6 8/23/6 4/24/6