# Blender 4.4.3
# www.blender.org
mtllib 2.mtl
o Cube
v 0.000000 0.000000 -3.000000
v 0.000000 8.000000 -6.000000
v 2.000000 0.000000 -2.000000
v 4.000000 8.000000 -4.000000
v 3.000000 0.000000 0.000000
v 6.000000 8.000000 0.000000
v 2.000000 0.000000 2.000000
v 4.000000 8.000000 4.000000
v 0.000000 0.000000 3.000000
v 0.000000 8.000000 6.000000
v -2.000000 0.000000 2.000000
v -4.000000 8.000000 4.000000
v -3.000000 0.000000 0.000000
v -6.000000 8.000000 0.000000
v -2.000000 0.000000 -2.000000
v -4.000000 8.000000 -4.000000
v 4.000000 14.000000 -4.000000
v 0.000000 14.000000 -6.000000
v 6.000000 14.000000 0.000000
v 4.000000 14.000000 4.000000
v 0.000000 14.000000 6.000000
v -4.000000 14.000000 4.000000
v -6.000000 14.000000 0.000000
v -4.000000 14.000000 -4.000000
v 2.000000 17.000000 -2.000000
v 0.000000 17.000000 -3.000000
v 3.000000 17.000000 0.000000
v 2.000000 17.000000 2.000000
v 0.000000 17.000000 3.000000
v -2.000000 17.000000 2.000000
v -3.000000 17.000000 0.000000
v -2.000000 17.000000 -2.000000
v 2.000000 19.000000 -2.000000
v 0.000000 19.000000 -3.000000
v 3.000000 19.000000 0.000000
v 2.000000 19.000000 2.000000
v 0.000000 19.000000 3.000000
v -2.000000 19.000000 2.000000
v -3.000000 19.000000 0.000000
v -2.000000 19.000000 -2.000000
v 0.000000 8.000000 9.000000
v 0.000000 14.000000 9.000000
v 0.000000 8.000000 -9.000000
v 0.000000 14.000000 -9.000000
vn 0.4240 -0.3180 -0.8480
vn 0.8480 -0.3180 -0.4240
vn 0.8480 -0.3180 0.4240
vn 0.4240 -0.3180 0.8480
vn -0.4240 -0.3180 0.8480
vn -0.8480 -0.3180 0.4240
vn 0.4472 -0.0000 0.8944
vn -0.8480 -0.3180 -0.4240
vn -0.4240 -0.3180 -0.8480
vn -0.0000 -1.0000 -0.0000
vn -0.3333 0.6667 -0.6667
vn -0.8944 -0.0000 -0.4472
vn 0.8944 -0.0000 -0.4472
vn -0.4472 -0.0000 0.8944
vn -0.4472 -0.0000 -0.8944
vn 0.4472 -0.0000 -0.8944
vn 0.8944 -0.0000 0.4472
vn -0.8944 -0.0000 0.4472
vn -0.6667 0.6667 0.3333
vn 0.3333 0.6667 0.6667
vn 0.6667 0.6667 -0.3333
vn -0.6667 0.6667 -0.3333
vn -0.3333 0.6667 0.6667
vn 0.6667 0.6667 0.3333
vn 0.3333 0.6667 -0.6667
vn -0.0000 1.0000 -0.0000
vn -1.0000 -0.0000 -0.0000
vn 1.0000 -0.0000 -0.0000
vt 0.107422 0.510319
vt 0.285156 0.031250
vt 0.234375 0.510319
vt 0.031250 0.031250
vt 0.347656 0.371901
vt 0.601562 0.031250
vt 0.601562 0.371901
vt 0.664063 0.132812
vt 0.867188 0.031250
vt 0.968750 0.234375
vt 0.259766 0.826726
vt 0.031250 0.623601
vt 0.259766 0.572819
vt 0.694032 0.928542
vt 0.580482 0.801589
vt 0.694032 0.801589
vt 0.031250 0.750554
vt 0.580482 0.662917
vt 0.656654 0.434401
vt 0.885169 0.510573
vt 0.517982 0.775052
vt 0.347656 0.434401
vt 0.517982 0.434401
vt 0.347656 0.031250
vt 0.892578 0.335937
vt 0.765625 0.335937
vt 0.664063 0.259766
vt 0.740234 0.031250
vt 0.968750 0.107422
vt 0.580482 0.928542
vt 0.885169 0.637526
vt 0.808997 0.739089
vt 0.682044 0.739089
vt 0.580482 0.535964
vt 0.783607 0.434401
vt 0.347656 0.775052
s 0
usemtl Material
f 1/1/1 4/2/1 3/3/1
f 4/4/2 5/3/2 3/1/2
f 5/1/3 8/2/3 7/3/3
f 8/4/4 9/3/4 7/1/4
f 9/1/5 12/2/5 11/3/5
f 12/4/6 13/3/6 11/1/6
f 8/5/7 21/6/7 10/7/7
f 13/1/8 16/2/8 15/3/8
f 16/4/9 1/3/9 15/1/9
f 7/8/10 11/9/10 15/10/10
f 24/11/11 26/12/11 18/13/11
f 14/5/12 24/6/12 16/7/12
f 4/5/13 19/6/13 6/7/13
f 10/5/14 22/6/14 12/7/14
f 16/5/15 18/6/15 2/7/15
f 2/5/16 17/6/16 4/7/16
f 6/5/17 20/6/17 8/7/17
f 12/5/18 23/6/18 14/7/18
f 32/14/15 34/15/15 26/16/15
f 22/11/19 31/12/19 23/13/19
f 20/11/20 29/12/20 21/13/20
f 17/11/21 27/12/21 19/13/21
f 24/13/22 31/17/22 32/12/22
f 22/13/23 29/17/23 30/12/23
f 20/13/24 27/17/24 28/12/24
f 17/13/25 26/17/25 25/12/25
f 39/18/26 37/19/26 35/20/26
f 30/14/18 39/15/18 31/16/18
f 28/14/7 37/15/7 29/16/7
f 25/14/13 35/15/13 27/16/13
f 31/14/12 40/15/12 32/16/12
f 29/14/14 38/15/14 30/16/14
f 27/14/17 36/15/17 28/16/17
f 26/14/16 33/15/16 25/16/16
f 10/21/27 42/22/27 21/23/27
f 2/21/28 44/22/28 18/23/28
f 1/1/1 2/4/1 4/2/1
f 4/4/2 6/2/2 5/3/2
f 5/1/3 6/4/3 8/2/3
f 8/4/4 10/2/4 9/3/4
f 9/1/5 10/4/5 12/2/5
f 12/4/6 14/2/6 13/3/6
f 8/5/7 20/24/7 21/6/7
f 13/1/8 14/4/8 16/2/8
f 16/4/9 2/2/9 1/3/9
f 15/10/10 1/25/10 3/26/10
f 3/26/10 5/27/10 7/8/10
f 7/8/10 9/28/10 11/9/10
f 11/9/10 13/29/10 15/10/10
f 15/10/10 3/26/10 7/8/10
f 24/11/11 32/17/11 26/12/11
f 14/5/12 23/24/12 24/6/12
f 4/5/13 17/24/13 19/6/13
f 10/5/14 21/24/14 22/6/14
f 16/5/15 24/24/15 18/6/15
f 2/5/16 18/24/16 17/6/16
f 6/5/17 19/24/17 20/6/17
f 12/5/18 22/24/18 23/6/18
f 32/14/15 40/30/15 34/15/15
f 22/11/19 30/17/19 31/12/19
f 20/11/20 28/17/20 29/12/20
f 17/11/21 25/17/21 27/12/21
f 24/13/22 23/11/22 31/17/22
f 22/13/23 21/11/23 29/17/23
f 20/13/24 19/11/24 27/17/24
f 17/13/25 18/11/25 26/17/25
f 35/20/26 33/31/26 34/32/26
f 34/32/26 40/33/26 39/18/26
f 39/18/26 38/34/26 37/19/26
f 37/19/26 36/35/26 35/20/26
f 35/20/26 34/32/26 39/18/26
f 30/14/18 38/30/18 39/15/18
f 28/14/7 36/30/7 37/15/7
f 25/14/13 33/30/13 35/15/13
f 31/14/12 39/30/12 40/15/12
f 29/14/14 37/30/14 38/15/14
f 27/14/17 35/30/17 36/15/17
f 26/14/16 34/30/16 33/15/16
f 10/21/27 41/36/27 42/22/27
f 2/21/28 43/36/28 44/22/28
