# Made in Blockbench 4.12.3
mtllib device.mtl

o cuboid
v -6 6 4
v -6 6 2
v -6 5 4
v -6 5 2
v -8 6 4
v -8 6 2
v -8 5 4
v -8 5 2
vt 0.5166015625 0.57080078125
vt 0.4853515625 0.57080078125
vt 0.4853515625 0.55517578125
vt 0.5166015625 0.55517578125
vt 0.5166015625 0.57080078125
vt 0.4853515625 0.57080078125
vt 0.4853515625 0.55517578125
vt 0.5166015625 0.55517578125
vt 0.52783203125 0.55517578125
vt 0.55908203125 0.55517578125
vt 0.55908203125 0.58642578125
vt 0.52783203125 0.58642578125
vt 0.703125 0.59375
vt 0.703125 0.625
vt 0.671875 0.625
vt 0.671875 0.59375
vt 0.5166015625 0.57080078125
vt 0.4853515625 0.57080078125
vt 0.4853515625 0.55517578125
vt 0.5166015625 0.55517578125
vt 0.5166015625 0.57080078125
vt 0.4853515625 0.57080078125
vt 0.4853515625 0.55517578125
vt 0.5166015625 0.55517578125
vn 1 0 0
vn -1 0 0
vn 0 1 0
vn 0 -1 0
vn 0 0 1
vn 0 0 -1
usemtl m_2f299224-05f0-d43c-2bbe-081738c1c65b
f 2/1/1 1/2/1 3/3/1
f 2/1/1 3/3/1 4/4/1
f 7/5/2 5/6/2 6/7/2
f 7/5/2 6/7/2 8/8/2
f 5/9/3 1/10/3 2/11/3
f 5/9/3 2/11/3 6/12/3
f 4/13/4 3/14/4 7/15/4
f 4/13/4 7/15/4 8/16/4
f 3/17/5 1/18/5 5/19/5
f 3/17/5 5/19/5 7/20/5
f 6/21/6 2/22/6 4/23/6
f 6/21/6 4/23/6 8/24/6
o cuboid
v -6 6 -5
v -6 6 -7
v -6 5 -5
v -6 5 -7
v -8 6 -5
v -8 6 -7
v -8 5 -5
v -8 5 -7
vt 0.5166015625 0.57080078125
vt 0.4853515625 0.57080078125
vt 0.4853515625 0.55517578125
vt 0.5166015625 0.55517578125
vt 0.5166015625 0.57080078125
vt 0.4853515625 0.57080078125
vt 0.4853515625 0.55517578125
vt 0.5166015625 0.55517578125
vt 0.52783203125 0.55517578125
vt 0.55908203125 0.55517578125
vt 0.55908203125 0.58642578125
vt 0.52783203125 0.58642578125
vt 0.625 0.546875
vt 0.625 0.578125
vt 0.59375 0.578125
vt 0.59375 0.546875
vt 0.5166015625 0.57080078125
vt 0.4853515625 0.57080078125
vt 0.4853515625 0.55517578125
vt 0.5166015625 0.55517578125
vt 0.5166015625 0.57080078125
vt 0.4853515625 0.57080078125
vt 0.4853515625 0.55517578125
vt 0.5166015625 0.55517578125
vn 1 0 0
vn -1 0 0
vn 0 1 0
vn 0 -1 0
vn 0 0 1
vn 0 0 -1
usemtl m_2f299224-05f0-d43c-2bbe-081738c1c65b
f 10/25/7 9/26/7 11/27/7
f 10/25/7 11/27/7 12/28/7
f 15/29/8 13/30/8 14/31/8
f 15/29/8 14/31/8 16/32/8
f 13/33/9 9/34/9 10/35/9
f 13/33/9 10/35/9 14/36/9
f 12/37/10 11/38/10 15/39/10
f 12/37/10 15/39/10 16/40/10
f 11/41/11 9/42/11 13/43/11
f 11/41/11 13/43/11 15/44/11
f 14/45/12 10/46/12 12/47/12
f 14/45/12 12/47/12 16/48/12
o cuboid
v -6 6 -8
v -6 6 -10
v -6 5 -8
v -6 5 -10
v -8 6 -8
v -8 6 -10
v -8 5 -8
v -8 5 -10
vt 0.5166015625 0.57080078125
vt 0.4853515625 0.57080078125
vt 0.4853515625 0.55517578125
vt 0.5166015625 0.55517578125
vt 0.5166015625 0.57080078125
vt 0.4853515625 0.57080078125
vt 0.4853515625 0.55517578125
vt 0.5166015625 0.55517578125
vt 0.52783203125 0.55517578125
vt 0.55908203125 0.55517578125
vt 0.55908203125 0.58642578125
vt 0.52783203125 0.58642578125
vt 0.453125 0.65625
vt 0.453125 0.6875
vt 0.421875 0.6875
vt 0.421875 0.65625
vt 0.5166015625 0.57080078125
vt 0.4853515625 0.57080078125
vt 0.4853515625 0.55517578125
vt 0.5166015625 0.55517578125
vt 0.5166015625 0.57080078125
vt 0.4853515625 0.57080078125
vt 0.4853515625 0.55517578125
vt 0.5166015625 0.55517578125
vn 1 0 0
vn -1 0 0
vn 0 1 0
vn 0 -1 0
vn 0 0 1
vn 0 0 -1
usemtl m_2f299224-05f0-d43c-2bbe-081738c1c65b
f 18/49/13 17/50/13 19/51/13
f 18/49/13 19/51/13 20/52/13
f 23/53/14 21/54/14 22/55/14
f 23/53/14 22/55/14 24/56/14
f 21/57/15 17/58/15 18/59/15
f 21/57/15 18/59/15 22/60/15
f 20/61/16 19/62/16 23/63/16
f 20/61/16 23/63/16 24/64/16
f 19/65/17 17/66/17 21/67/17
f 19/65/17 21/67/17 23/68/17
f 22/69/18 18/70/18 20/71/18
f 22/69/18 20/71/18 24/72/18
o board
v -9 8 5
v -9 8 -11
v -9 5 -11
v -11 8 5
v -11 8 -11
v -11 5 -11
v 11 3 11
v 11 3 -11
v 11 0 11
v 11 0 -11
v -5 5 -11
v -5 0 11
v -5 0 -11
v -5 11 11
v -5 11 5
v -5 5 11
v -5 5 5
v -11 11 11
v -11 11 5
v -11 5 5
v -11 0 11
v -11 0 -11
v -11 5 11
v -9 5 5
vt 0.61962890625 0.806640625
vt 0.36962890625 0.806640625
vt 0.36962890625 0.759765625
vt 0.61962890625 0.759765625
vt 0.76806640625 0.61474609375
vt 0.79931640625 0.61474609375
vt 0.79931640625 0.86474609375
vt 0.76806640625 0.86474609375
vt 0.515625 0.625
vt 0.484375 0.625
vt 0.484375 0.578125
vt 0.515625 0.578125
vt 0.716796875 0.82568359375
vt 0.716796875 0.87255859375
vt 0.373046875 0.87255859375
vt 0.373046875 0.82568359375
vt 0.3457 0.65625
vt 0.3457 1
vt 0.093753125 1
vt 0.093753125 0.65625
vt 0.453125 0.546875
vt 0.453125 0.46875
vt 0.703125 0.46875
vt 0.703125 0.515625
vt 0.5615234375 0.35791015625
vt 0.5615234375 0.45166015625
vt 0.4677734375 0.45166015625
vt 0.4677734375 0.35791015625
vt 0.5615234375 0.35791015625
vt 0.5615234375 0.45166015625
vt 0.4677734375 0.45166015625
vt 0.4677734375 0.35791015625
vt 0.5615234375 0.35791015625
vt 0.5615234375 0.45166015625
vt 0.4677734375 0.45166015625
vt 0.4677734375 0.35791015625
vt 0.359375 0.546875
vt 0.359375 0.46875
vt 0.453125 0.46875
vt 0.453125 0.546875
vt 0.5615234375 0.35791015625
vt 0.5615234375 0.45166015625
vt 0.4677734375 0.45166015625
vt 0.4677734375 0.35791015625
vt 0.65625 0.09375
vt 0.65625 0.34375
vt 0.625 0.34375
vt 0.625 0.09375
vt 0.703125 0.46875
vt 0.703125 0.515625
vt 0.453125 0.546875
vt 0.453125 0.46875
vt 0.71337890625 0.89501953125
vt 0.71337890625 0.97314453125
vt 0.36962890625 0.97314453125
vt 0.36962890625 0.89501953125
vt 0.5146484375 0.5771484375
vt 0.5146484375 0.6240234375
vt 0.4833984375 0.6240234375
vt 0.4833984375 0.5771484375
vt 0.734375 0.640625
vt 0.734375 0.6875
vt 0.484375 0.6875
vt 0.484375 0.640625
vt 0.5615234375 0.35791015625
vt 0.5615234375 0.45166015625
vt 0.4677734375 0.45166015625
vt 0.4677734375 0.35791015625
vt 0.453125 0.46875
vt 0.453125 0.546875
vt 0.359375 0.546875
vt 0.359375 0.46875
vt 0.072265625 0.75927734375
vt 0.072265625 0.9833984375
vt 0.033203125 0.9833984375
vt 0.033203125 0.75927734375
vt 0 0.640625
vt 0 0.296875
vt 0.09375 0.296875
vt 0.34375 0.296875
vt 0.34375 0.296875
vt 0.34375 0.640625
vt 0.09375 0.640625
vt 0 0.640625
vn 1 0 0
vn 0 1 0
vn 0 0 -1
vn 1 0 0
vn 0.12403473458920847 0.9922778767136677 0
vn 0 0 -1
vn 1 0 0
vn 0 0 -1
vn 0 1 0
vn 0 0 -1
vn -1 0 0
vn 0 -1 0
vn 0 0 1
vn -1 0 0
vn 0 0 1
vn -1 0 0
vn 0 0 1
vn 0 0 1
vn 0 1 0
vn 0 -1 0
vn 0 -1 0
usemtl m_2f299224-05f0-d43c-2bbe-081738c1c65b
f 26/73/19 25/74/19 48/75/19
f 26/73/19 48/75/19 27/76/19
f 28/77/20 25/78/20 26/79/20
f 28/77/20 26/79/20 29/80/20
f 29/81/21 26/82/21 27/83/21
f 29/81/21 27/83/21 30/84/21
f 34/85/22 32/86/22 31/87/22
f 34/85/22 31/87/22 33/88/22
f 31/89/23 32/90/23 35/91/23
f 31/89/23 35/91/23 40/92/23
f 37/93/24 35/94/24 32/95/24
f 37/93/24 32/95/24 34/96/24
f 41/97/25 39/98/25 38/99/25
f 41/97/25 38/99/25 40/100/25
f 44/101/26 43/102/26 39/103/26
f 44/101/26 39/103/26 41/104/26
f 38/105/27 39/106/27 43/107/27
f 38/105/27 43/107/27 42/108/27
f 46/109/28 30/110/28 35/111/28
f 46/109/28 35/111/28 37/112/28
f 47/113/29 42/114/29 43/115/29
f 47/113/29 43/115/29 44/116/29
f 27/117/30 48/118/30 44/119/30
f 27/117/30 44/119/30 30/120/30
f 33/121/31 31/122/31 40/123/31
f 33/121/31 40/123/31 36/124/31
f 45/125/32 47/126/32 30/127/32
f 45/125/32 30/127/32 46/128/32
f 48/129/33 25/130/33 28/131/33
f 48/129/33 28/131/33 44/132/33
f 44/133/34 28/134/34 29/135/34
f 44/133/34 29/135/34 30/136/34
f 40/137/35 38/138/35 42/139/35
f 40/137/35 42/139/35 47/140/35
f 36/141/36 40/142/36 47/143/36
f 36/141/36 47/143/36 45/144/36
f 40/145/37 35/146/37 30/147/37
f 40/145/37 30/147/37 47/148/37
f 45/149/38 46/150/38 37/151/38
f 45/149/38 37/151/38 34/152/38
f 34/153/39 33/154/39 36/155/39
f 34/153/39 36/155/39 45/156/39
o cuboid
v -6 6 -2
v -6 6 -4
v -6 5 -2
v -6 5 -4
v -8 6 -2
v -8 6 -4
v -8 5 -2
v -8 5 -4
vt 0.5166015625 0.57080078125
vt 0.4853515625 0.57080078125
vt 0.4853515625 0.55517578125
vt 0.5166015625 0.55517578125
vt 0.5166015625 0.57080078125
vt 0.4853515625 0.57080078125
vt 0.4853515625 0.55517578125
vt 0.5166015625 0.55517578125
vt 0.52783203125 0.55517578125
vt 0.55908203125 0.55517578125
vt 0.55908203125 0.58642578125
vt 0.52783203125 0.58642578125
vt 0.671875 0.7685546875
vt 0.671875 0.7998046875
vt 0.640625 0.7998046875
vt 0.640625 0.7685546875
vt 0.5166015625 0.57080078125
vt 0.4853515625 0.57080078125
vt 0.4853515625 0.55517578125
vt 0.5166015625 0.55517578125
vt 0.5166015625 0.57080078125
vt 0.4853515625 0.57080078125
vt 0.4853515625 0.55517578125
vt 0.5166015625 0.55517578125
vn 1 0 0
vn -1 0 0
vn 0 1 0
vn 0 -1 0
vn 0 0 1
vn 0 0 -1
usemtl m_2f299224-05f0-d43c-2bbe-081738c1c65b
f 50/157/40 49/158/40 51/159/40
f 50/157/40 51/159/40 52/160/40
f 55/161/41 53/162/41 54/163/41
f 55/161/41 54/163/41 56/164/41
f 53/165/42 49/166/42 50/167/42
f 53/165/42 50/167/42 54/168/42
f 52/169/43 51/170/43 55/171/43
f 52/169/43 55/171/43 56/172/43
f 51/173/44 49/174/44 53/175/44
f 51/173/44 53/175/44 55/176/44
f 54/177/45 50/178/45 52/179/45
f 54/177/45 52/179/45 56/180/45
o cuboid
v -6 6 1
v -6 6 -1
v -6 5 1
v -6 5 -1
v -8 6 1
v -8 6 -1
v -8 5 1
v -8 5 -1
vt 0.5166015625 0.57080078125
vt 0.4853515625 0.57080078125
vt 0.4853515625 0.55517578125
vt 0.5166015625 0.55517578125
vt 0.5166015625 0.57080078125
vt 0.4853515625 0.57080078125
vt 0.4853515625 0.55517578125
vt 0.5166015625 0.55517578125
vt 0.52783203125 0.55517578125
vt 0.55908203125 0.55517578125
vt 0.55908203125 0.58642578125
vt 0.52783203125 0.58642578125
vt 0.71875 0.71875
vt 0.71875 0.75
vt 0.6875 0.75
vt 0.6875 0.71875
vt 0.5166015625 0.57080078125
vt 0.4853515625 0.57080078125
vt 0.4853515625 0.55517578125
vt 0.5166015625 0.55517578125
vt 0.5166015625 0.57080078125
vt 0.4853515625 0.57080078125
vt 0.4853515625 0.55517578125
vt 0.5166015625 0.55517578125
vn 1 0 0
vn -1 0 0
vn 0 1 0
vn 0 -1 0
vn 0 0 1
vn 0 0 -1
usemtl m_2f299224-05f0-d43c-2bbe-081738c1c65b
f 58/181/46 57/182/46 59/183/46
f 58/181/46 59/183/46 60/184/46
f 63/185/47 61/186/47 62/187/47
f 63/185/47 62/187/47 64/188/47
f 61/189/48 57/190/48 58/191/48
f 61/189/48 58/191/48 62/192/48
f 60/193/49 59/194/49 63/195/49
f 60/193/49 63/195/49 64/196/49
f 59/197/50 57/198/50 61/199/50
f 59/197/50 61/199/50 63/200/50
f 62/201/51 58/202/51 60/203/51
f 62/201/51 60/203/51 64/204/51